<svg width="54" height="23" viewBox="0 0 54 23" fill="none" xmlns="http://www.w3.org/2000/svg">
<path d="M11.5489 0.927067C11.8483 0.0057565 13.1517 0.0057565 13.4511 0.927067L15.5309 7.32829C15.6648 7.74031 16.0488 8.01932 16.482 8.01932H23.2126C24.1814 8.01932 24.5841 9.25892 23.8004 9.82832L18.3552 13.7844C18.0047 14.0391 17.8581 14.4905 17.9919 14.9025L20.0718 21.3037C20.3712 22.225 19.3167 22.9911 18.533 22.4217L13.0878 18.4656C12.7373 18.2109 12.2627 18.2109 11.9122 18.4656L6.46703 22.4217C5.68332 22.9911 4.62884 22.225 4.92819 21.3037L7.00807 14.9025C7.14195 14.4905 6.99529 14.0391 6.6448 13.7844L1.1996 9.82832C0.415877 9.25892 0.818657 8.01932 1.78738 8.01932H8.51802C8.95122 8.01932 9.33522 7.74031 9.46912 7.32829L11.5489 0.927067Z" fill="#FFA500"/>
<path d="M40.5489 0.927067C40.8483 0.0057565 42.1517 0.0057565 42.4511 0.927067L44.5309 7.32829C44.6648 7.74031 45.0488 8.01932 45.482 8.01932H52.2126C53.1814 8.01932 53.5841 9.25892 52.8004 9.82832L47.3552 13.7844C47.0047 14.0391 46.8581 14.4905 46.9919 14.9025L49.0718 21.3037C49.3712 22.225 48.3167 22.9911 47.533 22.4217L42.0878 18.4656C41.7373 18.2109 41.2627 18.2109 40.9122 18.4656L35.467 22.4217C34.6833 22.9911 33.6288 22.225 33.9282 21.3037L36.0081 14.9025C36.1419 14.4905 35.9953 14.0391 35.6448 13.7844L30.1996 9.82832C29.4159 9.25892 29.8186 8.01932 30.7874 8.01932H37.518C37.9512 8.01932 38.3352 7.74031 38.4691 7.32829L40.5489 0.927067Z" fill="#FFA500"/>
</svg>
