<svg width="87" height="29" viewBox="0 0 87 29" fill="none" xmlns="http://www.w3.org/2000/svg">
<path d="M13.5489 2.92705C13.8483 2.00574 15.1517 2.00574 15.4511 2.92705L17.5309 9.32827C17.6648 9.74029 18.0488 10.0193 18.482 10.0193L25.2126 10.0193C26.1814 10.0193 26.5841 11.2589 25.8004 11.8283L20.3552 15.7844C20.0047 16.0391 19.8581 16.4905 19.9919 16.9025L22.0718 23.3037C22.3712 24.225 21.3167 24.9911 20.533 24.4217L15.0878 20.4656C14.7373 20.2109 14.2627 20.2109 13.9122 20.4656L8.46701 24.4217C7.6833 24.9911 6.62882 24.225 6.92817 23.3037L9.00805 16.9025C9.14193 16.4905 8.99527 16.0391 8.64478 15.7844L3.19958 11.8283C2.41586 11.2589 2.81864 10.0193 3.78736 10.0193L10.518 10.0193C10.9512 10.0193 11.3352 9.74029 11.4691 9.32827L13.5489 2.92705Z" fill="#FFA500"/>
<path d="M42.5489 2.92705C42.8483 2.00574 44.1517 2.00574 44.4511 2.92705L46.5309 9.32827C46.6648 9.74029 47.0488 10.0193 47.482 10.0193L54.2126 10.0193C55.1814 10.0193 55.5841 11.2589 54.8004 11.8283L49.3552 15.7844C49.0047 16.0391 48.8581 16.4905 48.9919 16.9025L51.0718 23.3037C51.3712 24.225 50.3167 24.9911 49.533 24.4217L44.0878 20.4656C43.7373 20.2109 43.2627 20.2109 42.9122 20.4656L37.467 24.4217C36.6833 24.9911 35.6288 24.225 35.9282 23.3037L38.0081 16.9025C38.1419 16.4905 37.9953 16.0391 37.6448 15.7844L32.1996 11.8283C31.4159 11.2589 31.8186 10.0193 32.7874 10.0193L39.518 10.0193C39.9512 10.0193 40.3352 9.74029 40.4691 9.32827L42.5489 2.92705Z" fill="#FFA500"/>
<path d="M71.5489 2.92705C71.8483 2.00574 73.1517 2.00574 73.4511 2.92705L75.5309 9.32827C75.6648 9.74029 76.0488 10.0193 76.482 10.0193L83.2126 10.0193C84.1814 10.0193 84.5841 11.2589 83.8004 11.8283L78.3552 15.7844C78.0047 16.0391 77.8581 16.4905 77.9919 16.9025L80.0718 23.3037C80.3712 24.225 79.3167 24.9911 78.533 24.4217L73.0878 20.4656C72.7373 20.2109 72.2627 20.2109 71.9122 20.4656L66.467 24.4217C65.6833 24.9911 64.6288 24.225 64.9282 23.3037L67.0081 16.9025C67.1419 16.4905 66.9953 16.0391 66.6448 15.7844L61.1996 11.8283C60.4159 11.2589 60.8186 10.0193 61.7874 10.0193L68.518 10.0193C68.9512 10.0193 69.3352 9.74029 69.4691 9.32827L71.5489 2.92705Z" fill="#FFA500"/>
</svg>
