<svg width="18" height="18" viewBox="0 0 18 18" fill="none" xmlns="http://www.w3.org/2000/svg">
<path d="M17.55 6.3H13.05L14.724 4.626C14.0518 3.74611 13.1856 3.0333 12.1927 2.54312C11.1999 2.05294 10.1073 1.79863 9 1.8C5.022 1.8 1.8 5.022 1.8 9C1.8 10.647 2.349 12.15 3.276 13.365C4.374 12.105 6.435 11.25 9 11.25C11.565 11.25 13.635 12.105 14.724 13.365C15.6842 12.1127 16.2031 10.578 16.2 9H18C18 13.95 13.95 18 9 18C4.05 18 0 13.95 0 9C0 4.05 4.05 0 9 0C11.826 0 14.355 1.305 16.002 3.348L17.55 1.8V6.3ZM9 4.5C10.494 4.5 11.7 5.706 11.7 7.2C11.7 8.694 10.494 9.9 9 9.9C7.506 9.9 6.3 8.694 6.3 7.2C6.3 5.706 7.506 4.5 9 4.5Z" fill="#A3A5AF"/>
</svg>
