<svg width="18" height="18" viewBox="0 0 18 18" fill="none" xmlns="http://www.w3.org/2000/svg">
<path d="M0 15H7.5V16.5H0V15ZM0 10.5H7.5V12H0V10.5ZM16.5 7.5H1.5C1.10218 7.5 0.720644 7.34196 0.43934 7.06066C0.158035 6.77936 0 6.39782 0 6V1.5C0 1.10218 0.158035 0.720644 0.43934 0.43934C0.720644 0.158035 1.10218 0 1.5 0H16.5C16.8978 0 17.2794 0.158035 17.5607 0.43934C17.842 0.720644 18 1.10218 18 1.5V6C18 6.39782 17.842 6.77936 17.5607 7.06066C17.2794 7.34196 16.8978 7.5 16.5 7.5ZM1.5 1.5V6H16.5V1.5H1.5ZM16.5 18H12C11.6022 18 11.2206 17.842 10.9393 17.5607C10.658 17.2794 10.5 16.8978 10.5 16.5V12C10.5 11.6022 10.658 11.2206 10.9393 10.9393C11.2206 10.658 11.6022 10.5 12 10.5H16.5C16.8978 10.5 17.2794 10.658 17.5607 10.9393C17.842 11.2206 18 11.6022 18 12V16.5C18 16.8978 17.842 17.2794 17.5607 17.5607C17.2794 17.842 16.8978 18 16.5 18ZM12 12V16.5H16.5V12H12Z" fill="#A3A5AF"/>
</svg>
