<svg width="18" height="18" viewBox="0 0 18 18" fill="none" xmlns="http://www.w3.org/2000/svg">
<path d="M2.925 1.35C2.50728 1.35 2.10668 1.51594 1.81131 1.81131C1.51594 2.10668 1.35 2.50728 1.35 2.925V5.625C1.35 5.80402 1.27888 5.97571 1.1523 6.1023C1.02571 6.22888 0.854021 6.3 0.675 6.3C0.495979 6.3 0.32429 6.22888 0.197703 6.1023C0.0711158 5.97571 3.77259e-09 5.80402 0 5.625V2.925C0 2.14924 0.308169 1.40526 0.856713 0.856713C1.40526 0.308169 2.14924 0 2.925 0H5.625C5.80402 3.77259e-09 5.97571 0.0711158 6.1023 0.197703C6.22888 0.32429 6.3 0.495979 6.3 0.675C6.3 0.854021 6.22888 1.02571 6.1023 1.1523C5.97571 1.27888 5.80402 1.35 5.625 1.35H2.925ZM2.925 16.65C2.50728 16.65 2.10668 16.4841 1.81131 16.1887C1.51594 15.8933 1.35 15.4927 1.35 15.075V12.375C1.35 12.196 1.27888 12.0243 1.1523 11.8977C1.02571 11.7711 0.854021 11.7 0.675 11.7C0.495979 11.7 0.32429 11.7711 0.197703 11.8977C0.0711158 12.0243 3.77259e-09 12.196 0 12.375V15.075C0 15.4591 0.0756573 15.8395 0.222652 16.1943C0.369647 16.5492 0.585101 16.8717 0.856713 17.1433C1.12832 17.4149 1.45077 17.6304 1.80565 17.7773C2.16053 17.9243 2.54088 18 2.925 18H5.625C5.80402 18 5.97571 17.9289 6.1023 17.8023C6.22888 17.6757 6.3 17.504 6.3 17.325C6.3 17.146 6.22888 16.9743 6.1023 16.8477C5.97571 16.7211 5.80402 16.65 5.625 16.65H2.925ZM16.65 2.925C16.65 2.50728 16.4841 2.10668 16.1887 1.81131C15.8933 1.51594 15.4927 1.35 15.075 1.35H12.375C12.196 1.35 12.0243 1.27888 11.8977 1.1523C11.7711 1.02571 11.7 0.854021 11.7 0.675C11.7 0.495979 11.7711 0.32429 11.8977 0.197703C12.0243 0.0711158 12.196 3.77259e-09 12.375 0H15.075C15.4591 0 15.8395 0.0756573 16.1943 0.222652C16.5492 0.369647 16.8717 0.585101 17.1433 0.856713C17.4149 1.12832 17.6304 1.45077 17.7773 1.80565C17.9243 2.16053 18 2.54088 18 2.925V5.625C18 5.80402 17.9289 5.97571 17.8023 6.1023C17.6757 6.22888 17.504 6.3 17.325 6.3C17.146 6.3 16.9743 6.22888 16.8477 6.1023C16.7211 5.97571 16.65 5.80402 16.65 5.625V2.925ZM15.075 16.65C15.4927 16.65 15.8933 16.4841 16.1887 16.1887C16.4841 15.8933 16.65 15.4927 16.65 15.075V12.375C16.65 12.196 16.7211 12.0243 16.8477 11.8977C16.9743 11.7711 17.146 11.7 17.325 11.7C17.504 11.7 17.6757 11.7711 17.8023 11.8977C17.9289 12.0243 18 12.196 18 12.375V15.075C18 15.4591 17.9243 15.8395 17.7773 16.1943C17.6304 16.5492 17.4149 16.8717 17.1433 17.1433C16.8717 17.4149 16.5492 17.6304 16.1943 17.7773C15.8395 17.9243 15.4591 18 15.075 18H12.375C12.196 18 12.0243 17.9289 11.8977 17.8023C11.7711 17.6757 11.7 17.504 11.7 17.325C11.7 17.146 11.7711 16.9743 11.8977 16.8477C12.0243 16.7211 12.196 16.65 12.375 16.65H15.075ZM5.175 3.6C4.99598 3.6 4.82429 3.67112 4.6977 3.7977C4.57112 3.92429 4.5 4.09598 4.5 4.275V5.4C4.5 5.57902 4.57112 5.75071 4.6977 5.8773C4.82429 6.00388 4.99598 6.075 5.175 6.075C5.35402 6.075 5.52571 6.00388 5.6523 5.8773C5.77888 5.75071 5.85 5.57902 5.85 5.4V4.95H8.325V13.05H6.975C6.79598 13.05 6.62429 13.1211 6.4977 13.2477C6.37112 13.3743 6.3 13.546 6.3 13.725C6.3 13.904 6.37112 14.0757 6.4977 14.2023C6.62429 14.3289 6.79598 14.4 6.975 14.4H11.025C11.204 14.4 11.3757 14.3289 11.5023 14.2023C11.6289 14.0757 11.7 13.904 11.7 13.725C11.7 13.546 11.6289 13.3743 11.5023 13.2477C11.3757 13.1211 11.204 13.05 11.025 13.05H9.675V4.95H12.15V5.4C12.15 5.57902 12.2211 5.75071 12.3477 5.8773C12.4743 6.00388 12.646 6.075 12.825 6.075C13.004 6.075 13.1757 6.00388 13.3023 5.8773C13.4289 5.75071 13.5 5.57902 13.5 5.4V4.275C13.5 4.09598 13.4289 3.92429 13.3023 3.7977C13.1757 3.67112 13.004 3.6 12.825 3.6H5.175Z" fill="#A3A5AF"/>
</svg>
