<svg width="18" height="15" viewBox="0 0 18 15" fill="none" xmlns="http://www.w3.org/2000/svg">
<path d="M8.03717 1.71958C8.13731 1.54858 8.27858 1.40715 8.44729 1.30898C8.616 1.2108 8.80643 1.15922 9.00015 1.15922C9.19387 1.15922 9.3843 1.2108 9.55301 1.30898C9.72172 1.40715 9.86299 1.54858 9.96313 1.71958L12.356 5.79972H11.8126C11.7874 5.79954 11.7622 5.80109 11.7372 5.80436C10.7467 5.75416 9.77069 6.06542 8.98057 6.6835C8.19045 7.30157 7.63674 8.18694 7.41666 9.18414C7.19658 10.1813 7.32421 11.2266 7.77714 12.1364C8.23006 13.0462 8.97932 13.7624 9.89336 14.1592C10.8074 14.556 11.8278 14.608 12.7753 14.3062C13.7229 14.0043 14.537 13.3679 15.0747 12.5086C15.6125 11.6493 15.8395 10.6221 15.7159 9.6074C15.5924 8.59268 15.1261 7.65529 14.3989 6.95984H17.4375C17.5867 6.95984 17.7298 6.89872 17.8353 6.78994C17.9407 6.68116 18 6.53362 18 6.37978C18 6.22594 17.9407 6.0784 17.8353 5.96961C17.7298 5.86083 17.5867 5.79972 17.4375 5.79972H13.6711L10.9261 1.1198C10.0498 -0.373268 7.95054 -0.373268 7.07531 1.1198L0.0812968 13.04C0.0430335 13.1052 0.017599 13.1776 0.00644558 13.2529C-0.00470784 13.3282 -0.00136183 13.4051 0.0162926 13.4791C0.0339471 13.5531 0.0655642 13.6228 0.109339 13.6842C0.153113 13.7456 0.208188 13.7976 0.271419 13.837C0.334649 13.8765 0.404797 13.9027 0.477857 13.9142C0.550917 13.9257 0.625458 13.9223 0.697225 13.904C0.768992 13.8858 0.836579 13.8532 0.896127 13.8081C0.955675 13.763 1.00602 13.7062 1.04428 13.641L8.03717 1.71958ZM11.5314 6.95984C12.3519 6.95984 13.1388 7.29596 13.7189 7.89426C14.2991 8.49256 14.6251 9.30404 14.6251 10.1502C14.6251 10.9963 14.2991 11.8078 13.7189 12.4061C13.1388 13.0044 12.3519 13.3405 11.5314 13.3405C10.7109 13.3405 9.92396 13.0044 9.34378 12.4061C8.7636 11.8078 8.43766 10.9963 8.43766 10.1502C8.43766 9.30404 8.7636 8.49256 9.34378 7.89426C9.92396 7.29596 10.7109 6.95984 11.5314 6.95984Z" fill="#A3A5AF"/>
</svg>
