<svg width="17" height="21" viewBox="0 0 17 21" fill="none" xmlns="http://www.w3.org/2000/svg">
<path d="M16.405 1.11052C16.721 1.36352 17 1.74652 17 2.26252C17 3.04652 16.5 3.55852 15.932 3.85652C15.387 4.14152 14.674 4.29852 13.922 4.39352C12.472 4.57752 10.577 4.56152 8.737 4.54652L8.494 4.54452C6.538 4.52852 4.665 4.52352 3.282 4.72752C2.584 4.83052 2.092 4.97752 1.792 5.15052C1.524 5.30652 1.5 5.42052 1.5 5.51152L1.501 5.51352C1.52113 5.54523 1.54649 5.57329 1.576 5.59652C1.686 5.69352 1.89 5.80952 2.212 5.92352C2.85 6.14952 3.746 6.29952 4.698 6.39152C4.798 6.40152 4.899 6.41052 5 6.41852V7.92352C4.85089 7.91185 4.70188 7.89885 4.553 7.88452C3.567 7.78952 2.525 7.62652 1.71 7.33752C1.305 7.19352 0.903 7.00052 0.59 6.72752C0.265 6.44452 0 6.03752 0 5.51352C0 4.72952 0.462 4.18752 1.04 3.85352C1.588 3.53552 2.306 3.35552 3.062 3.24352C4.585 3.01852 6.587 3.02852 8.506 3.04352L8.688 3.04552C10.581 3.06152 12.386 3.07552 13.734 2.90552C14.436 2.81652 14.934 2.68552 15.236 2.52752C15.43 2.42552 15.482 2.35152 15.496 2.30552C15.487 2.29717 15.4776 2.28916 15.468 2.28152C15.37 2.20352 15.181 2.10352 14.87 2.00552C14.255 1.80952 13.38 1.68152 12.41 1.60552C10.815 1.47852 9.122 1.49852 8.212 1.50952L7.75 1.51252C7.55109 1.51252 7.36032 1.4335 7.21967 1.29285C7.07902 1.1522 7 0.961431 7 0.762519C7 0.563606 7.07902 0.372841 7.21967 0.232189C7.36032 0.0915364 7.55109 0.0125187 7.75 0.0125187L8.168 0.00851875C9.062 -0.00248125 10.853 -0.0244813 12.528 0.108519C13.528 0.188519 14.542 0.325519 15.325 0.574519C15.714 0.698519 16.101 0.866518 16.405 1.10952V1.11052ZM10.995 7.84152C10.928 6.48152 10.098 5.51352 8.749 5.51352C7.342 5.51252 6.5 6.56852 6.5 8.02152V12.1895L6.241 12.1095C5.05 11.7615 4.117 11.7425 3.415 12.0935C2.462 12.5695 1.971 13.4255 1.996 14.5335C1.99903 14.6702 2.03939 14.8035 2.11271 14.919C2.18603 15.0344 2.28953 15.1276 2.412 15.1885L4.775 16.3645L4.872 16.4165L4.966 16.4745L6.85 17.7305L7.043 17.8695C7.483 18.2075 7.835 18.6475 8.07 19.1525L8.099 19.2145L8.178 19.3695C8.40044 19.7649 8.73718 20.0838 9.14406 20.2843C9.55094 20.4849 10.0089 20.5578 10.458 20.4935L12.876 20.1465L13.042 20.1165C13.4447 20.0276 13.8152 19.8298 14.113 19.5447C14.4109 19.2595 14.6247 18.8979 14.731 18.4995L15.779 14.5765L15.821 14.3965C15.909 13.972 15.9111 13.5343 15.8273 13.109C15.7435 12.6836 15.5755 12.2794 15.3332 11.92C15.0908 11.5606 14.779 11.2533 14.4161 11.0162C14.0532 10.7791 13.6465 10.6171 13.22 10.5395L11 10.1375V8.02052L10.996 7.84052L10.995 7.84152Z" fill="#A3A5AF"/>
</svg>
