<svg width="18" height="18" viewBox="0 0 18 18" fill="none" xmlns="http://www.w3.org/2000/svg">
<path d="M2.25 15.9429H5.625V9.77143H12.375V15.9429H15.75V6.68571L9 2.05714L2.25 6.68571V15.9429ZM2.25 18C1.63125 18 1.10138 17.7984 0.660377 17.3952C0.219377 16.992 -0.00074809 16.5079 1.91002e-06 15.9429V6.68571C1.91002e-06 6.36 0.0798767 6.05143 0.239627 5.76C0.399377 5.46857 0.619502 5.22857 0.900002 5.04L7.65 0.411429C7.85625 0.274286 8.07187 0.171428 8.29687 0.102857C8.52187 0.0342856 8.75625 0 9 0C9.24375 0 9.47812 0.0342856 9.70312 0.102857C9.92812 0.171428 10.1437 0.274286 10.35 0.411429L17.1 5.04C17.3812 5.22857 17.6017 5.46857 17.7615 5.76C17.9212 6.05143 18.0007 6.36 18 6.68571V15.9429C18 16.5086 17.7795 16.993 17.3385 17.3962C16.8975 17.7994 16.368 18.0007 15.75 18H10.125V11.8286H7.875V18H2.25Z" fill="#A3A5AF"/>
</svg>
