<svg width="41" height="42" viewBox="0 0 41 42" fill="none" xmlns="http://www.w3.org/2000/svg">
<path d="M41 31.7951C40.9317 15.0836 26.8013 0.97474 10.1451 0.90625L0.0421753 42L41 31.7951Z" fill="#F6DA77"/>
<path d="M35.6755 33.0963L37.109 32.8224C36.4264 19.8094 27.1426 6.17994 9.12116 4.81015L8.91637 6.17994C22.7055 7.96067 33.9689 19.193 35.6755 33.0963Z" fill="#860D16"/>
<path d="M37.0407 32.8224L40.9317 31.8635C41 15.1521 26.8013 0.90625 10.0086 0.90625L9.05289 4.81016C25.0947 6.31693 35.539 16.8643 37.0407 32.8224Z" fill="#C98E52"/>
<path d="M7.68763 28.0966C6.52716 28.0966 5.50321 27.6857 4.68406 26.8638C4.34274 26.5214 4.34274 25.9734 4.68406 25.6995C5.02537 25.357 5.57148 25.357 5.84453 25.6995C6.80021 26.6583 8.50679 26.6583 9.46247 25.6995C9.94031 25.2201 10.2134 24.6036 10.2134 23.9188C10.2134 23.2339 9.94031 22.6175 9.46247 22.138C9.12115 21.7956 9.12115 21.2477 9.46247 20.9737C9.80378 20.6313 10.3499 20.6313 10.6229 20.9737C11.4421 21.7956 11.8517 22.8229 11.8517 23.9872C11.8517 25.1516 11.4421 26.1789 10.6229 27.0008C9.87205 27.6172 8.77984 28.0966 7.68763 28.0966ZM24.8217 14.5357V14.8781C24.7534 15.0836 24.6851 15.2206 24.4803 15.3576C24.2755 15.4945 24.0708 15.4945 23.9342 15.426C23.3881 15.2891 22.842 15.426 22.3642 15.7C21.8863 15.974 21.545 16.4534 21.4085 17.0013C21.1354 18.0971 21.8863 19.2615 22.9786 19.5354C23.3881 19.6039 23.6612 20.0833 23.5247 20.4258C23.4564 20.8367 23.0468 21.1107 22.6372 20.9737C21.272 20.6313 20.248 19.6039 19.9067 18.2341C19.7702 17.6862 19.7702 17.1383 19.9067 16.6589C20.1115 15.7 20.7259 14.9466 21.545 14.3987C22.3642 13.8508 23.3199 13.7138 24.2755 13.9193C24.4803 14.0563 24.7534 14.2617 24.8217 14.5357ZM28.4396 34.3977H28.0983C27.8935 34.3292 27.757 34.2607 27.6887 34.0552C27.6204 33.9182 27.5522 33.7128 27.6204 33.5073C27.757 33.0279 27.6887 32.48 27.4156 32.0005C27.1426 31.5211 26.733 31.1786 26.1869 31.0417C25.163 30.7677 24.0025 31.4526 23.7294 32.4115C23.6612 32.7539 23.1833 33.0279 22.842 32.8909C22.4324 32.7539 22.2277 32.4115 22.3642 32.0005C22.7055 30.7677 23.7294 29.7404 25.0264 29.5349C25.5043 29.4664 26.0504 29.4664 26.5282 29.6034C27.4156 29.8089 28.1665 30.4253 28.5761 31.1786C29.054 32.0005 29.1222 32.8909 28.9174 33.7813C28.9174 34.1237 28.7126 34.3292 28.4396 34.3977Z" fill="#83BF4F"/>
<path d="M23.7977 24.3297C24.7534 27.1378 23.2516 30.1513 20.3846 31.1102C17.5175 32.069 14.4457 30.5622 13.5582 27.7542C12.6026 24.9461 14.1044 21.9325 16.9714 20.9737C19.7702 20.0148 22.842 21.5216 23.7977 24.3297ZM32.3306 24.8776C32.8767 26.5898 31.9893 28.3706 30.2827 28.987C28.5761 29.5349 26.733 28.6445 26.1869 26.9323C25.6408 25.22 26.5282 23.4393 28.2348 22.8229C29.8731 22.275 31.7162 23.1654 32.3306 24.8776ZM18.2684 12.5495C19.0193 14.8096 17.7906 17.3437 15.4696 18.0971C13.1487 18.8505 10.6229 17.6177 9.87205 15.3575C9.12115 13.0974 10.3499 10.5633 12.6708 9.80989C14.9918 9.05651 17.5175 10.2893 18.2684 12.5495ZM21.9546 36.5208L15.3331 38.1646C14.7187 36.3839 15.9475 34.2607 17.7223 33.7812C19.9067 33.2333 21.3402 34.8086 21.9546 36.5208ZM11.8517 31.7266C12.6708 34.0552 11.3738 36.6578 8.98463 37.4112C6.59542 38.2331 4.00142 36.9318 3.18227 34.5346C2.36311 32.206 3.66011 29.6034 6.04932 28.85C8.43852 28.0966 11.0325 29.3979 11.8517 31.7266Z" fill="#B21725"/>
<path d="M9.05289 4.81015C12.6708 4.87864 16.2888 5.56354 19.7019 6.93333C23.1151 8.23463 26.3234 10.2893 28.9174 12.9604C31.5114 15.563 33.5593 18.782 34.9246 22.2065C36.2898 25.631 36.9725 29.2609 37.0407 32.8909C36.4264 29.3294 35.4707 25.8365 33.9689 22.6174C32.4671 19.3984 30.4875 16.3849 27.9618 13.9193C25.5043 11.3852 22.5007 9.39895 19.2923 7.96067C16.084 6.38541 12.6026 5.42656 9.05289 4.81015Z" fill="#E0A763"/>
<path d="M9.93621 8.73871L11.2878 7.38261L12.6394 8.73871L11.2878 10.0948L9.93621 8.73871ZM18.7599 12.5796L20.1115 11.2235L21.4631 12.5796L20.1115 13.9357L18.7599 12.5796ZM7.28351 17.6506L8.63512 16.2945L9.98673 17.6506L8.63512 19.0067L7.28351 17.6506ZM11.9527 21.5456L13.3043 20.1895L14.6559 21.5456L13.3043 22.9017L11.9527 21.5456ZM24.1015 21.7202L25.4531 20.3641L26.8047 21.7202L25.4531 23.0763L24.1015 21.7202ZM31.9374 31.4122L33.289 30.0561L34.6406 31.4122L33.289 32.7683L31.9374 31.4122ZM11.8633 30.1184L13.2149 28.7623L14.5665 30.1184L13.2149 31.4745L11.8633 30.1184ZM12.8306 35.0846L14.1822 33.7285L15.5338 35.0846L14.1822 36.4407L12.8306 35.0846ZM1.43336 39.4255L2.78497 38.0694L4.13658 39.4255L2.78497 40.7816L1.43336 39.4255ZM8.00846 11.4043L9.02217 10.3873L10.0359 11.4043L9.02217 12.4214L8.00846 11.4043ZM16.5973 18.6402L17.611 17.6232L18.6247 18.6402L17.611 19.6573L16.5973 18.6402ZM25.8285 18.6827L26.8422 17.6656L27.8559 18.6827L26.8422 19.6998L25.8285 18.6827ZM7.64394 24.305L8.65764 23.2879L9.67135 24.305L8.65764 25.3221L7.64394 24.305ZM3.49627 28.3706L4.50998 27.3535L5.52369 28.3699L4.50998 29.3869L3.49627 28.3706ZM1.90575 36.853L2.91945 35.8359L3.93316 36.853L2.91945 37.8701L1.90575 36.853ZM10.6748 37.4016L11.6885 36.3845L12.7022 37.4023L11.6885 38.4187L10.6748 37.4016ZM19.4821 32.6484L20.4958 31.6313L21.5095 32.6484L20.4958 33.6655L19.4821 32.6484ZM23.7581 34.3949L24.7718 33.3778L25.7855 34.3949L24.7718 35.4113L23.7581 34.3949ZM29.4472 30.4732L30.4609 29.4568L31.4746 30.4739L30.4609 31.4909L29.4472 30.4732Z" fill="#FFAB41"/>
</svg>
