<svg width="18" height="18" viewBox="0 0 18 18" fill="none" xmlns="http://www.w3.org/2000/svg">
<path fill-rule="evenodd" clip-rule="evenodd" d="M13.6234 0.210759C13.8233 0.051196 14.0783 -0.0224606 14.3324 0.00599005C14.5866 0.0344407 14.819 0.162668 14.9786 0.362469C16.9383 2.81634 18.004 5.86444 18 9.00481C17.996 12.1452 16.9227 15.1906 14.9567 17.6395C14.7965 17.8389 14.5635 17.9666 14.3091 17.9943C14.0547 18.022 13.7998 17.9476 13.6003 17.7873C13.4008 17.6271 13.2732 17.3941 13.2454 17.1397C13.2177 16.8854 13.2922 16.6304 13.4524 16.4309C15.1438 14.3239 16.0673 11.7037 16.0708 9.00178C16.0743 6.29987 15.1576 3.6773 13.4717 1.56587C13.3122 1.36604 13.2385 1.11102 13.2669 0.856896C13.2954 0.60277 13.4236 0.37035 13.6234 0.210759ZM8.68629 4.02924C8.78876 3.95473 8.90491 3.90115 9.02809 3.87155C9.15128 3.84195 9.2791 3.83692 9.40423 3.85674C9.52936 3.87656 9.64937 3.92085 9.75738 3.98706C9.86539 4.05328 9.95929 4.14013 10.0337 4.24266C11.0353 5.62198 11.5747 7.28287 11.5747 8.98747C11.5747 10.6921 11.0353 12.353 10.0337 13.7323C9.95958 13.8354 9.86582 13.9228 9.7578 13.9896C9.64978 14.0563 9.52964 14.1011 9.40427 14.1213C9.2789 14.1415 9.15077 14.1368 9.02725 14.1073C8.90372 14.0779 8.78723 14.0243 8.68445 13.9498C8.58167 13.8752 8.49464 13.781 8.42835 13.6727C8.36206 13.5644 8.31781 13.4441 8.29815 13.3186C8.27849 13.1932 8.28381 13.0651 8.31379 12.9417C8.34377 12.8183 8.39783 12.702 8.47286 12.5996C9.23546 11.5496 9.64618 10.2852 9.64618 8.98747C9.64618 7.68976 9.23546 6.42535 8.47286 5.37535C8.32292 5.16833 8.26132 4.91026 8.30158 4.65785C8.34184 4.40543 8.47939 4.17933 8.68629 4.02924ZM2.57143 11.571C3.25342 11.571 3.90747 11.3001 4.3897 10.8179C4.87194 10.3357 5.14286 9.68165 5.14286 8.99968C5.14286 8.31772 4.87194 7.66368 4.3897 7.18145C3.90747 6.69923 3.25342 6.42832 2.57143 6.42832C1.88944 6.42832 1.23539 6.69923 0.753154 7.18145C0.270918 7.66368 0 8.31772 0 8.99968C0 9.68165 0.270918 10.3357 0.753154 10.8179C1.23539 11.3001 1.88944 11.571 2.57143 11.571Z" fill="#A3A5AF"/>
</svg>
