<svg width="35" height="35" viewBox="0 0 35 35" fill="none" xmlns="http://www.w3.org/2000/svg">
<circle cx="17.5" cy="17.5" r="17.5" fill="#A3A5AF"/>
<path d="M17 9C12.0293 9 8 13.0293 8 18C8 22.9707 12.0293 27 17 27C21.9707 27 26 22.9707 26 18C26 13.0293 21.9707 9 17 9Z" stroke="white" stroke-width="1.5" stroke-linecap="round" stroke-linejoin="round"/>
<path d="M10.0439 23.7114C10.0439 23.7114 12.05 21.15 17 21.15C21.95 21.15 23.957 23.7114 23.957 23.7114M17 18C17.7161 18 18.4028 17.7155 18.9092 17.2092C19.4155 16.7028 19.7 16.0161 19.7 15.3C19.7 14.5839 19.4155 13.8972 18.9092 13.3908C18.4028 12.8845 17.7161 12.6 17 12.6C16.2839 12.6 15.5971 12.8845 15.0908 13.3908C14.5844 13.8972 14.3 14.5839 14.3 15.3C14.3 16.0161 14.5844 16.7028 15.0908 17.2092C15.5971 17.7155 16.2839 18 17 18Z" stroke="white" stroke-width="1.5" stroke-linecap="round" stroke-linejoin="round"/>
</svg>
