<svg width="238" height="212" viewBox="0 0 238 212" fill="none" xmlns="http://www.w3.org/2000/svg">
<rect x="113" width="125" height="141" rx="10" fill="#424365" fill-opacity="0.25"/>
<rect x="176" y="83" width="8" height="39" rx="4" fill="#03B962"/>
<rect x="190" y="66" width="8" height="56" rx="4" fill="#03B962"/>
<rect x="204" y="75" width="8" height="47" rx="4" fill="#03B962"/>
<rect x="218" y="53" width="8" height="69" rx="4" fill="#03B962"/>
<path d="M165.569 22V15.4545H166.953V20.859H169.759V22H165.569ZM171.971 22H170.488L172.747 15.4545H174.531L176.787 22H175.304L173.664 16.9503H173.613L171.971 22ZM171.878 19.4272H175.381V20.5075H171.878V19.4272ZM180.976 17.337C180.951 17.0792 180.841 16.8789 180.647 16.7362C180.453 16.5934 180.19 16.522 179.858 16.522C179.632 16.522 179.441 16.554 179.285 16.6179C179.13 16.6797 179.011 16.766 178.927 16.8768C178.847 16.9876 178.806 17.1133 178.806 17.2539C178.802 17.3711 178.826 17.4734 178.88 17.5607C178.935 17.6481 179.011 17.7237 179.106 17.7876C179.202 17.8494 179.313 17.9038 179.439 17.9506C179.565 17.9954 179.699 18.0337 179.842 18.0657L180.43 18.2063C180.715 18.2702 180.977 18.3555 181.216 18.462C181.454 18.5685 181.661 18.6996 181.836 18.8551C182.011 19.0107 182.146 19.1939 182.242 19.4048C182.34 19.6158 182.39 19.8576 182.392 20.1303C182.39 20.5309 182.288 20.8782 182.085 21.1722C181.885 21.4641 181.595 21.6911 181.216 21.853C180.839 22.0128 180.384 22.0927 179.851 22.0927C179.323 22.0927 178.862 22.0117 178.47 21.8498C178.081 21.6879 177.776 21.4482 177.556 21.1307C177.339 20.8111 177.225 20.4158 177.214 19.945H178.554C178.568 20.1644 178.631 20.3477 178.742 20.4947C178.855 20.6396 179.005 20.7493 179.193 20.8239C179.382 20.8963 179.597 20.9325 179.835 20.9325C180.07 20.9325 180.273 20.8984 180.446 20.8303C180.62 20.7621 180.756 20.6673 180.851 20.5458C180.947 20.4244 180.995 20.2848 180.995 20.1271C180.995 19.9801 180.952 19.8565 180.864 19.7564C180.779 19.6562 180.653 19.571 180.487 19.5007C180.323 19.4304 180.122 19.3665 179.883 19.3089L179.17 19.13C178.619 18.9957 178.183 18.7859 177.863 18.5004C177.544 18.2148 177.385 17.8303 177.387 17.3466C177.385 16.9503 177.49 16.604 177.703 16.3079C177.919 16.0117 178.214 15.7805 178.589 15.6143C178.964 15.4482 179.39 15.3651 179.867 15.3651C180.353 15.3651 180.777 15.4482 181.139 15.6143C181.503 15.7805 181.787 16.0117 181.989 16.3079C182.192 16.604 182.296 16.9471 182.302 17.337H180.976ZM183.074 16.5955V15.4545H188.449V16.5955H186.445V22H185.077V16.5955H183.074ZM191.418 15.4545H193.124L194.927 19.8523H195.003L196.806 15.4545H198.513V22H197.17V17.7397H197.116L195.422 21.968H194.508L192.814 17.7237H192.76V22H191.418V15.4545ZM205.668 18.7273C205.668 19.4411 205.532 20.0483 205.262 20.549C204.993 21.0497 204.627 21.4322 204.162 21.6964C203.7 21.9585 203.18 22.0895 202.603 22.0895C202.021 22.0895 201.499 21.9574 201.037 21.6932C200.574 21.429 200.209 21.0465 199.941 20.5458C199.672 20.0451 199.538 19.4389 199.538 18.7273C199.538 18.0135 199.672 17.4062 199.941 16.9055C200.209 16.4048 200.574 16.0234 201.037 15.7614C201.499 15.4972 202.021 15.3651 202.603 15.3651C203.18 15.3651 203.7 15.4972 204.162 15.7614C204.627 16.0234 204.993 16.4048 205.262 16.9055C205.532 17.4062 205.668 18.0135 205.668 18.7273ZM204.265 18.7273C204.265 18.2649 204.195 17.875 204.057 17.5575C203.921 17.2401 203.728 16.9993 203.479 16.8352C203.229 16.6712 202.937 16.5891 202.603 16.5891C202.268 16.5891 201.976 16.6712 201.727 16.8352C201.478 16.9993 201.284 17.2401 201.145 17.5575C201.009 17.875 200.941 18.2649 200.941 18.7273C200.941 19.1896 201.009 19.5795 201.145 19.897C201.284 20.2145 201.478 20.4553 201.727 20.6193C201.976 20.7834 202.268 20.8654 202.603 20.8654C202.937 20.8654 203.229 20.7834 203.479 20.6193C203.728 20.4553 203.921 20.2145 204.057 19.897C204.195 19.5795 204.265 19.1896 204.265 18.7273ZM212.168 15.4545V22H210.972L208.125 17.8803H208.077V22H206.693V15.4545H207.907L210.733 19.571H210.79V15.4545H212.168ZM213.062 16.5955V15.4545H218.438V16.5955H216.434V22H215.066V16.5955H213.062ZM219.323 22V15.4545H220.707V18.1552H223.516V15.4545H224.897V22H223.516V19.2962H220.707V22H219.323Z" fill="white"/>
<path d="M189.549 42.3636V28.7273H190.423V42.3636H189.549ZM191.866 33.2283C191.824 32.7987 191.641 32.4648 191.317 32.2269C190.994 31.989 190.556 31.87 190.002 31.87C189.625 31.87 189.308 31.9233 189.048 32.0298C188.789 32.1328 188.59 32.2766 188.452 32.4613C188.317 32.646 188.249 32.8555 188.249 33.0898C188.242 33.2852 188.283 33.4556 188.372 33.6012C188.464 33.7468 188.59 33.8729 188.75 33.9794C188.91 34.0824 189.094 34.1729 189.304 34.2511C189.513 34.3256 189.737 34.3896 189.975 34.4428L190.955 34.6772C191.431 34.7837 191.868 34.9258 192.266 35.1033C192.663 35.2809 193.008 35.4993 193.299 35.7585C193.59 36.0178 193.816 36.3232 193.975 36.6747C194.139 37.0263 194.222 37.4293 194.226 37.8839C194.222 38.5515 194.052 39.1303 193.714 39.6204C193.381 40.1069 192.898 40.4851 192.266 40.755C191.637 41.0213 190.879 41.1545 189.991 41.1545C189.11 41.1545 188.343 41.0195 187.69 40.7496C187.04 40.4798 186.532 40.0803 186.167 39.5511C185.804 39.0185 185.614 38.3597 185.597 37.5749H187.828C187.853 37.9407 187.958 38.2461 188.143 38.4911C188.331 38.7326 188.581 38.9155 188.894 39.0398C189.21 39.1605 189.567 39.2209 189.964 39.2209C190.355 39.2209 190.694 39.1641 190.982 39.0504C191.273 38.9368 191.499 38.7788 191.658 38.5763C191.818 38.3739 191.898 38.1413 191.898 37.8786C191.898 37.6335 191.825 37.4276 191.68 37.2607C191.538 37.0937 191.328 36.9517 191.051 36.8345C190.778 36.7173 190.442 36.6108 190.044 36.5149L188.857 36.2166C187.937 35.9929 187.211 35.6431 186.678 35.1673C186.145 34.6914 185.881 34.0504 185.884 33.2443C185.881 32.5838 186.056 32.0067 186.412 31.5131C186.77 31.0195 187.262 30.6342 187.887 30.3572C188.512 30.0803 189.222 29.9418 190.018 29.9418C190.827 29.9418 191.534 30.0803 192.138 30.3572C192.745 30.6342 193.217 31.0195 193.555 31.5131C193.892 32.0067 194.066 32.5785 194.077 33.2283H191.866ZM195.548 39.0824V37.266L200.103 30.0909H201.669V32.6051H200.742L197.871 37.1488V37.234H204.343V39.0824H195.548ZM200.784 41V38.5284L200.827 37.7241V30.0909H202.99V41H200.784ZM210.157 41.2397C209.241 41.2362 208.452 41.0107 207.792 40.5632C207.135 40.1158 206.629 39.4677 206.274 38.619C205.922 37.7702 205.748 36.7493 205.752 35.5561C205.752 34.3665 205.927 33.3526 206.279 32.5146C206.634 31.6765 207.14 31.0391 207.797 30.6023C208.457 30.1619 209.244 29.9418 210.157 29.9418C211.069 29.9418 211.854 30.1619 212.511 30.6023C213.172 31.0426 213.679 31.6818 214.035 32.5199C214.39 33.3544 214.565 34.3665 214.562 35.5561C214.562 36.7528 214.384 37.7756 214.029 38.6243C213.678 39.473 213.173 40.1211 212.516 40.5685C211.859 41.016 211.073 41.2397 210.157 41.2397ZM210.157 39.3274C210.782 39.3274 211.281 39.0131 211.653 38.3846C212.026 37.756 212.211 36.8132 212.207 35.5561C212.207 34.7287 212.122 34.0398 211.952 33.4893C211.785 32.9389 211.547 32.5252 211.238 32.2482C210.933 31.9712 210.572 31.8327 210.157 31.8327C209.535 31.8327 209.038 32.1435 208.665 32.7649C208.292 33.3864 208.104 34.3168 208.101 35.5561C208.101 36.3942 208.184 37.0938 208.351 37.6548C208.521 38.2124 208.761 38.6314 209.07 38.9119C209.379 39.1889 209.741 39.3274 210.157 39.3274ZM220.484 41.2397C219.568 41.2362 218.779 41.0107 218.119 40.5632C217.462 40.1158 216.956 39.4677 216.601 38.619C216.249 37.7702 216.075 36.7493 216.079 35.5561C216.079 34.3665 216.254 33.3526 216.606 32.5146C216.961 31.6765 217.467 31.0391 218.124 30.6023C218.785 30.1619 219.571 29.9418 220.484 29.9418C221.396 29.9418 222.181 30.1619 222.838 30.6023C223.499 31.0426 224.007 31.6818 224.362 32.5199C224.717 33.3544 224.893 34.3665 224.889 35.5561C224.889 36.7528 224.711 37.7756 224.356 38.6243C224.005 39.473 223.501 40.1211 222.844 40.5685C222.187 41.016 221.4 41.2397 220.484 41.2397ZM220.484 39.3274C221.109 39.3274 221.608 39.0131 221.981 38.3846C222.354 37.756 222.538 36.8132 222.535 35.5561C222.535 34.7287 222.449 34.0398 222.279 33.4893C222.112 32.9389 221.874 32.5252 221.565 32.2482C221.26 31.9712 220.899 31.8327 220.484 31.8327C219.862 31.8327 219.365 32.1435 218.992 32.7649C218.619 33.3864 218.431 34.3168 218.428 35.5561C218.428 36.3942 218.511 37.0938 218.678 37.6548C218.849 38.2124 219.088 38.6314 219.397 38.9119C219.706 39.1889 220.068 39.3274 220.484 39.3274Z" fill="white"/>
<g filter="url(#filter0_d_46_54)">
<rect x="30" y="48" width="134" height="130" rx="10" fill="white"/>
</g>
<rect x="116" y="128" width="102" height="41" rx="7" fill="#F7A400"/>
<path d="M137.147 154L134.273 143.818H136.257L138.092 151.3H138.186L140.145 143.818H141.95L143.913 151.305H144.003L145.837 143.818H147.821L144.947 154H143.128L141.089 146.856H141.01L138.967 154H137.147ZM149.02 154V146.364H150.82V154H149.02ZM149.925 145.28C149.64 145.28 149.395 145.185 149.189 144.996C148.984 144.804 148.881 144.574 148.881 144.305C148.881 144.034 148.984 143.803 149.189 143.614C149.395 143.422 149.64 143.326 149.925 143.326C150.214 143.326 150.459 143.422 150.661 143.614C150.867 143.803 150.969 144.034 150.969 144.305C150.969 144.574 150.867 144.804 150.661 144.996C150.459 145.185 150.214 145.28 149.925 145.28ZM156.484 146.364V147.756H152.094V146.364H156.484ZM153.178 144.534H154.978V151.703C154.978 151.945 155.014 152.131 155.087 152.26C155.163 152.386 155.263 152.472 155.385 152.518C155.508 152.565 155.644 152.588 155.793 152.588C155.906 152.588 156.008 152.58 156.101 152.563C156.197 152.547 156.27 152.532 156.32 152.518L156.623 153.925C156.527 153.959 156.39 153.995 156.211 154.035C156.035 154.075 155.819 154.098 155.564 154.104C155.114 154.118 154.708 154.05 154.346 153.901C153.985 153.748 153.698 153.513 153.486 153.195C153.277 152.876 153.175 152.479 153.178 152.001V144.534ZM159.953 149.526V154H158.153V143.818H159.913V147.661H160.003C160.182 147.23 160.458 146.891 160.833 146.642C161.211 146.39 161.691 146.264 162.275 146.264C162.805 146.264 163.267 146.375 163.662 146.597C164.056 146.819 164.361 147.144 164.577 147.572C164.795 147.999 164.905 148.521 164.905 149.138V154H163.105V149.416C163.105 148.902 162.972 148.503 162.707 148.218C162.445 147.93 162.077 147.786 161.604 147.786C161.285 147.786 161 147.855 160.748 147.994C160.5 148.13 160.304 148.327 160.162 148.586C160.023 148.844 159.953 149.158 159.953 149.526ZM169.573 154.134C168.973 154.134 168.436 153.98 167.962 153.672C167.488 153.364 167.114 152.916 166.839 152.33C166.564 151.743 166.426 151.03 166.426 150.192C166.426 149.343 166.565 148.627 166.844 148.044C167.125 147.457 167.505 147.015 167.982 146.717C168.459 146.415 168.991 146.264 169.578 146.264C170.025 146.264 170.393 146.34 170.682 146.493C170.97 146.642 171.199 146.823 171.368 147.035C171.537 147.244 171.668 147.441 171.76 147.626H171.835V143.818H173.64V154H171.87V152.797H171.76C171.668 152.982 171.533 153.18 171.358 153.388C171.182 153.594 170.95 153.77 170.662 153.915C170.373 154.061 170.01 154.134 169.573 154.134ZM170.075 152.658C170.456 152.658 170.781 152.555 171.05 152.349C171.318 152.141 171.522 151.851 171.661 151.479C171.8 151.108 171.87 150.676 171.87 150.182C171.87 149.688 171.8 149.259 171.661 148.894C171.525 148.53 171.323 148.246 171.055 148.044C170.789 147.842 170.463 147.741 170.075 147.741C169.674 147.741 169.339 147.845 169.071 148.054C168.802 148.263 168.6 148.551 168.464 148.919C168.328 149.287 168.26 149.708 168.26 150.182C168.26 150.659 168.328 151.085 168.464 151.46C168.604 151.831 168.807 152.124 169.076 152.339C169.348 152.552 169.681 152.658 170.075 152.658ZM175.558 154V146.364H177.303V147.636H177.382C177.521 147.196 177.76 146.856 178.098 146.617C178.439 146.375 178.829 146.254 179.266 146.254C179.366 146.254 179.477 146.259 179.599 146.269C179.725 146.276 179.83 146.287 179.913 146.304V147.96C179.836 147.933 179.715 147.91 179.55 147.89C179.387 147.867 179.23 147.855 179.077 147.855C178.749 147.855 178.454 147.926 178.192 148.069C177.934 148.208 177.73 148.402 177.581 148.651C177.432 148.899 177.357 149.186 177.357 149.511V154H175.558ZM183.169 154.154C182.685 154.154 182.249 154.068 181.862 153.896C181.477 153.72 181.172 153.461 180.947 153.12C180.725 152.779 180.614 152.358 180.614 151.857C180.614 151.426 180.693 151.07 180.852 150.788C181.011 150.507 181.228 150.281 181.504 150.112C181.779 149.943 182.089 149.816 182.433 149.729C182.781 149.64 183.141 149.575 183.512 149.536C183.96 149.489 184.322 149.448 184.601 149.411C184.879 149.371 185.081 149.312 185.207 149.232C185.337 149.149 185.401 149.022 185.401 148.849V148.82C185.401 148.445 185.29 148.155 185.068 147.95C184.846 147.744 184.526 147.641 184.109 147.641C183.668 147.641 183.318 147.737 183.06 147.93C182.804 148.122 182.632 148.349 182.543 148.611L180.862 148.372C180.995 147.908 181.214 147.52 181.518 147.209C181.823 146.894 182.196 146.659 182.637 146.503C183.078 146.344 183.565 146.264 184.099 146.264C184.467 146.264 184.833 146.307 185.197 146.393C185.562 146.48 185.895 146.622 186.197 146.821C186.498 147.017 186.74 147.283 186.923 147.621C187.108 147.96 187.201 148.382 187.201 148.889V154H185.471V152.951H185.411C185.302 153.163 185.148 153.362 184.949 153.548C184.753 153.73 184.506 153.877 184.208 153.99C183.913 154.099 183.567 154.154 183.169 154.154ZM183.636 152.832C183.998 152.832 184.311 152.76 184.576 152.618C184.841 152.472 185.045 152.28 185.188 152.041C185.333 151.803 185.406 151.542 185.406 151.261V150.361C185.35 150.407 185.254 150.45 185.118 150.49C184.985 150.53 184.836 150.565 184.67 150.594C184.505 150.624 184.341 150.651 184.178 150.674C184.016 150.697 183.875 150.717 183.756 150.734C183.487 150.77 183.247 150.83 183.035 150.913C182.823 150.996 182.655 151.112 182.533 151.261C182.41 151.406 182.349 151.595 182.349 151.827C182.349 152.159 182.47 152.409 182.712 152.578C182.954 152.747 183.262 152.832 183.636 152.832ZM190.587 154L188.429 146.364H190.263L191.606 151.733H191.675L193.048 146.364H194.862L196.234 151.703H196.309L197.631 146.364H199.471L197.308 154H195.434L194.002 148.839H193.898L192.466 154H190.587Z" fill="white"/>
<g filter="url(#filter1_d_46_54)">
<rect x="17" y="149" width="45" height="45" rx="10" fill="#ACAEFF"/>
</g>
<path d="M38.9368 181.249C37.7531 181.249 36.6937 181.027 35.7585 180.583C34.8234 180.133 34.0806 179.517 33.5302 178.736C32.9857 177.955 32.6957 177.061 32.6602 176.055H35.8562C35.9154 176.801 36.2379 177.41 36.8239 177.884C37.4098 178.351 38.1141 178.585 38.9368 178.585C39.5819 178.585 40.156 178.437 40.6591 178.141C41.1622 177.845 41.5587 177.434 41.8487 176.907C42.1387 176.381 42.2808 175.78 42.2749 175.105C42.2808 174.419 42.1358 173.809 41.8398 173.276C41.5439 172.744 41.1385 172.326 40.6236 172.025C40.1087 171.717 39.5168 171.563 38.848 171.563C38.3035 171.557 37.7679 171.658 37.2411 171.865C36.7144 172.072 36.2971 172.344 35.9893 172.681L33.0153 172.193L33.9652 162.818H44.5121V165.57H36.6907L36.1669 170.391H36.2734C36.6108 169.994 37.0872 169.666 37.7028 169.406C38.3183 169.139 38.993 169.006 39.7269 169.006C40.8278 169.006 41.8103 169.266 42.6744 169.787C43.5385 170.302 44.2191 171.012 44.7163 171.918C45.2134 172.824 45.462 173.859 45.462 175.025C45.462 176.227 45.1838 177.298 44.6275 178.239C44.0771 179.174 43.3106 179.911 42.3281 180.45C41.3516 180.982 40.2211 181.249 38.9368 181.249Z" fill="white"/>
<path d="M39.3977 62.8317V61.7273H45.2003V62.8317H42.9524V69H41.6456V62.8317H39.3977ZM47.8503 69.1065C47.3176 69.1065 46.856 68.9893 46.4654 68.755C46.0748 68.5206 45.7717 68.1927 45.5563 67.7713C45.3432 67.3499 45.2367 66.8575 45.2367 66.294C45.2367 65.7306 45.3432 65.237 45.5563 64.8132C45.7717 64.3894 46.0748 64.0604 46.4654 63.826C46.856 63.5916 47.3176 63.4744 47.8503 63.4744C48.383 63.4744 48.8446 63.5916 49.2353 63.826C49.6259 64.0604 49.9277 64.3894 50.1408 64.8132C50.3562 65.237 50.464 65.7306 50.464 66.294C50.464 66.8575 50.3562 67.3499 50.1408 67.7713C49.9277 68.1927 49.6259 68.5206 49.2353 68.755C48.8446 68.9893 48.383 69.1065 47.8503 69.1065ZM47.8574 68.0767C48.1462 68.0767 48.3877 67.9974 48.5819 67.8388C48.776 67.6778 48.9204 67.4624 49.0151 67.1925C49.1122 66.9226 49.1607 66.6219 49.1607 66.2905C49.1607 65.9567 49.1122 65.6548 49.0151 65.3849C48.9204 65.1127 48.776 64.8961 48.5819 64.7351C48.3877 64.5741 48.1462 64.4936 47.8574 64.4936C47.5615 64.4936 47.3153 64.5741 47.1188 64.7351C46.9247 64.8961 46.7791 65.1127 46.682 65.3849C46.5873 65.6548 46.54 65.9567 46.54 66.2905C46.54 66.6219 46.5873 66.9226 46.682 67.1925C46.7791 67.4624 46.9247 67.6778 47.1188 67.8388C47.3153 67.9974 47.5615 68.0767 47.8574 68.0767ZM54.2788 63.5455V64.5398H51.1431V63.5455H54.2788ZM51.9173 62.2386H53.2028V67.3594C53.2028 67.5322 53.2288 67.6648 53.2809 67.7571C53.3353 67.8471 53.4064 67.9086 53.494 67.9418C53.5816 67.9749 53.6786 67.9915 53.7852 67.9915C53.8656 67.9915 53.939 67.9856 54.0053 67.9737C54.074 67.9619 54.1261 67.9512 54.1616 67.9418L54.3782 68.9467C54.3095 68.9704 54.2113 68.9964 54.0835 69.0249C53.958 69.0533 53.8041 69.0698 53.6218 69.0746C53.2998 69.084 53.0098 69.0355 52.7518 68.929C52.4937 68.8201 52.2889 68.652 52.1374 68.4247C51.9883 68.1974 51.9149 67.9134 51.9173 67.5724V62.2386ZM56.9235 69.1101C56.5778 69.1101 56.2665 69.0485 55.9895 68.9254C55.7149 68.8 55.4971 68.6153 55.3361 68.3714C55.1775 68.1276 55.0982 67.8269 55.0982 67.4695C55.0982 67.1617 55.155 66.9072 55.2686 66.706C55.3823 66.5047 55.5373 66.3438 55.7338 66.223C55.9303 66.1023 56.1517 66.0111 56.3979 65.9496C56.6465 65.8857 56.9033 65.8395 57.1685 65.8111C57.4881 65.7779 57.7473 65.7483 57.9462 65.7223C58.1451 65.6939 58.2895 65.6513 58.3794 65.5945C58.4718 65.5353 58.5179 65.4441 58.5179 65.321V65.2997C58.5179 65.0322 58.4386 64.825 58.28 64.6783C58.1214 64.5315 57.8929 64.4581 57.5946 64.4581C57.2798 64.4581 57.03 64.5268 56.8453 64.6641C56.6631 64.8014 56.54 64.9635 56.476 65.1506L55.2757 64.9801C55.3704 64.6487 55.5267 64.3717 55.7445 64.1491C55.9623 63.9242 56.2286 63.7562 56.5435 63.6449C56.8584 63.5312 57.2064 63.4744 57.5875 63.4744C57.8503 63.4744 58.1119 63.5052 58.3723 63.5668C58.6328 63.6283 58.8707 63.7301 59.0861 63.8722C59.3016 64.0118 59.4744 64.2024 59.6046 64.4439C59.7372 64.6854 59.8034 64.9872 59.8034 65.3494V69H58.5676V68.2507H58.525C58.4469 68.4022 58.3368 68.5443 58.1948 68.6768C58.0551 68.8071 57.8787 68.9124 57.6657 68.9929C57.455 69.071 57.2076 69.1101 56.9235 69.1101ZM57.2573 68.1655C57.5153 68.1655 57.7391 68.1146 57.9284 68.0128C58.1178 67.9086 58.2634 67.7713 58.3652 67.6009C58.4694 67.4304 58.5215 67.2446 58.5215 67.0433V66.4006C58.4812 66.4337 58.4126 66.4645 58.3155 66.4929C58.2208 66.5213 58.1143 66.5462 57.9959 66.5675C57.8775 66.5888 57.7604 66.6077 57.6444 66.6243C57.5283 66.6409 57.4277 66.6551 57.3425 66.6669C57.1507 66.6929 56.9791 66.7356 56.8276 66.7947C56.6761 66.8539 56.5565 66.9368 56.4689 67.0433C56.3813 67.1475 56.3375 67.2824 56.3375 67.4482C56.3375 67.6849 56.4239 67.8636 56.5968 67.9844C56.7696 68.1051 56.9898 68.1655 57.2573 68.1655ZM62.3816 61.7273V69H61.0961V61.7273H62.3816ZM68.5987 69.1065C68.0518 69.1065 67.5795 68.9929 67.1818 68.7656C66.7865 68.536 66.4822 68.2116 66.2692 67.7926C66.0561 67.3712 65.9496 66.8752 65.9496 66.3047C65.9496 65.7436 66.0561 65.2512 66.2692 64.8274C66.4846 64.4013 66.7853 64.0698 67.1712 63.8331C67.5571 63.594 68.0104 63.4744 68.5312 63.4744C68.8674 63.4744 69.1847 63.5289 69.483 63.6378C69.7836 63.7443 70.0488 63.91 70.2784 64.1349C70.5104 64.3598 70.6927 64.6463 70.8253 64.9943C70.9579 65.34 71.0241 65.7519 71.0241 66.2301V66.6243H66.5533V65.7578H69.7919C69.7895 65.5116 69.7363 65.2926 69.6321 65.1009C69.5279 64.9067 69.3823 64.754 69.1953 64.6428C69.0107 64.5315 68.7952 64.4759 68.549 64.4759C68.2862 64.4759 68.0554 64.5398 67.8565 64.6676C67.6577 64.7931 67.5026 64.9588 67.3913 65.1648C67.2824 65.3684 67.2268 65.5921 67.2244 65.8359V66.5923C67.2244 66.9096 67.2824 67.1818 67.3984 67.4091C67.5144 67.634 67.6766 67.8068 67.8849 67.9276C68.0933 68.0459 68.3371 68.1051 68.6165 68.1051C68.8035 68.1051 68.9728 68.0791 69.1243 68.027C69.2758 67.9725 69.4072 67.8932 69.5185 67.7891C69.6297 67.6849 69.7138 67.5559 69.7706 67.402L70.9709 67.5369C70.8951 67.8542 70.7507 68.1312 70.5376 68.3679C70.3269 68.6023 70.0571 68.7846 69.728 68.9148C69.3989 69.0426 69.0225 69.1065 68.5987 69.1065ZM73.6813 69.1101C73.3356 69.1101 73.0243 69.0485 72.7473 68.9254C72.4727 68.8 72.2549 68.6153 72.0939 68.3714C71.9353 68.1276 71.856 67.8269 71.856 67.4695C71.856 67.1617 71.9128 66.9072 72.0265 66.706C72.1401 66.5047 72.2952 66.3438 72.4917 66.223C72.6882 66.1023 72.9095 66.0111 73.1557 65.9496C73.4043 65.8857 73.6612 65.8395 73.9263 65.8111C74.2459 65.7779 74.5051 65.7483 74.704 65.7223C74.9029 65.6939 75.0473 65.6513 75.1373 65.5945C75.2296 65.5353 75.2757 65.4441 75.2757 65.321V65.2997C75.2757 65.0322 75.1964 64.825 75.0378 64.6783C74.8792 64.5315 74.6507 64.4581 74.3525 64.4581C74.0376 64.4581 73.7878 64.5268 73.6032 64.6641C73.4209 64.8014 73.2978 64.9635 73.2338 65.1506L72.0336 64.9801C72.1283 64.6487 72.2845 64.3717 72.5023 64.1491C72.7201 63.9242 72.9864 63.7562 73.3013 63.6449C73.6162 63.5312 73.9642 63.4744 74.3453 63.4744C74.6081 63.4744 74.8697 63.5052 75.1301 63.5668C75.3906 63.6283 75.6285 63.7301 75.8439 63.8722C76.0594 64.0118 76.2322 64.2024 76.3624 64.4439C76.495 64.6854 76.5613 64.9872 76.5613 65.3494V69H75.3255V68.2507H75.2828C75.2047 68.4022 75.0946 68.5443 74.9526 68.6768C74.8129 68.8071 74.6365 68.9124 74.4235 68.9929C74.2128 69.071 73.9654 69.1101 73.6813 69.1101ZM74.0151 68.1655C74.2731 68.1655 74.4969 68.1146 74.6863 68.0128C74.8757 67.9086 75.0212 67.7713 75.123 67.6009C75.2272 67.4304 75.2793 67.2446 75.2793 67.0433V66.4006C75.2391 66.4337 75.1704 66.4645 75.0733 66.4929C74.9786 66.5213 74.8721 66.5462 74.7537 66.5675C74.6354 66.5888 74.5182 66.6077 74.4022 66.6243C74.2862 66.6409 74.1855 66.6551 74.1003 66.6669C73.9086 66.6929 73.7369 66.7356 73.5854 66.7947C73.4339 66.8539 73.3143 66.9368 73.2267 67.0433C73.1391 67.1475 73.0953 67.2824 73.0953 67.4482C73.0953 67.6849 73.1818 67.8636 73.3546 67.9844C73.5274 68.1051 73.7476 68.1655 74.0151 68.1655ZM77.8539 69V63.5455H79.1003V64.4545H79.1571C79.2566 64.1397 79.427 63.897 79.6685 63.7266C79.9123 63.5537 80.1905 63.4673 80.503 63.4673C80.574 63.4673 80.6534 63.4709 80.7409 63.478C80.8309 63.4827 80.9055 63.491 80.9647 63.5028V64.6854C80.9102 64.6664 80.8238 64.6499 80.7054 64.6357C80.5894 64.6191 80.477 64.6108 80.3681 64.6108C80.1337 64.6108 79.923 64.6617 79.736 64.7635C79.5513 64.8629 79.4057 65.0014 79.2992 65.179C79.1926 65.3565 79.1394 65.5613 79.1394 65.7933V69H77.8539ZM83.1042 65.804V69H81.8187V63.5455H83.0474V64.4723H83.1113C83.2368 64.1669 83.4368 63.9242 83.7115 63.7443C83.9885 63.5644 84.3306 63.4744 84.7377 63.4744C85.1142 63.4744 85.4421 63.5549 85.7214 63.7159C86.0031 63.8769 86.2209 64.1101 86.3748 64.4155C86.5311 64.7209 86.608 65.0914 86.6056 65.527V69H85.3201V65.7259C85.3201 65.3613 85.2254 65.076 85.036 64.87C84.849 64.6641 84.5898 64.5611 84.2583 64.5611C84.0334 64.5611 83.8334 64.6108 83.6582 64.7102C83.4854 64.8073 83.3493 64.9482 83.2498 65.1328C83.1528 65.3175 83.1042 65.5412 83.1042 65.804ZM87.9125 69V63.5455H89.198V69H87.9125ZM88.5588 62.7713C88.3552 62.7713 88.18 62.7038 88.0332 62.5689C87.8864 62.4316 87.813 62.267 87.813 62.0753C87.813 61.8812 87.8864 61.7166 88.0332 61.5817C88.18 61.4444 88.3552 61.3757 88.5588 61.3757C88.7647 61.3757 88.9399 61.4444 89.0843 61.5817C89.2311 61.7166 89.3045 61.8812 89.3045 62.0753C89.3045 62.267 89.2311 62.4316 89.0843 62.5689C88.9399 62.7038 88.7647 62.7713 88.5588 62.7713ZM91.8054 65.804V69H90.5199V63.5455H91.7486V64.4723H91.8125C91.938 64.1669 92.138 63.9242 92.4126 63.7443C92.6896 63.5644 93.0317 63.4744 93.4389 63.4744C93.8153 63.4744 94.1432 63.5549 94.4226 63.7159C94.7043 63.8769 94.9221 64.1101 95.076 64.4155C95.2322 64.7209 95.3092 65.0914 95.3068 65.527V69H94.0213V65.7259C94.0213 65.3613 93.9266 65.076 93.7372 64.87C93.5502 64.6641 93.291 64.5611 92.9595 64.5611C92.7346 64.5611 92.5346 64.6108 92.3594 64.7102C92.1866 64.8073 92.0504 64.9482 91.951 65.1328C91.8539 65.3175 91.8054 65.5412 91.8054 65.804ZM98.9858 71.1591C98.5241 71.1591 98.1276 71.0964 97.7962 70.9709C97.4647 70.8478 97.1984 70.6821 96.9972 70.4737C96.7959 70.2654 96.6562 70.0346 96.5781 69.7812L97.7358 69.5007C97.7879 69.6072 97.8636 69.7126 97.9631 69.8168C98.0625 69.9233 98.1963 70.0109 98.3643 70.0795C98.5348 70.1506 98.7491 70.1861 99.0071 70.1861C99.3717 70.1861 99.6735 70.0973 99.9126 69.9197C100.152 69.7446 100.271 69.4557 100.271 69.0533V68.0199H100.207C100.141 68.1525 100.044 68.2886 99.9162 68.4283C99.7907 68.5679 99.6238 68.6851 99.4155 68.7798C99.2095 68.8745 98.9503 68.9219 98.6378 68.9219C98.2188 68.9219 97.8388 68.8236 97.4979 68.6271C97.1593 68.4283 96.8894 68.1323 96.6882 67.7393C96.4893 67.344 96.3899 66.8492 96.3899 66.255C96.3899 65.656 96.4893 65.1506 96.6882 64.7386C96.8894 64.3243 97.1605 64.0107 97.5014 63.7976C97.8423 63.5821 98.2223 63.4744 98.6413 63.4744C98.9609 63.4744 99.2237 63.5289 99.4297 63.6378C99.638 63.7443 99.8037 63.8733 99.9268 64.0249C100.05 64.174 100.143 64.3149 100.207 64.4474H100.278V63.5455H101.546V69.0888C101.546 69.5552 101.435 69.9411 101.212 70.2464C100.99 70.5518 100.686 70.7803 100.3 70.9318C99.9138 71.0833 99.4759 71.1591 98.9858 71.1591ZM98.9964 67.9134C99.2687 67.9134 99.5007 67.8471 99.6925 67.7145C99.8842 67.5819 100.03 67.3913 100.129 67.1428C100.229 66.8942 100.278 66.5959 100.278 66.2479C100.278 65.9046 100.229 65.6039 100.129 65.3459C100.032 65.0878 99.8878 64.8878 99.696 64.7457C99.5066 64.6013 99.2734 64.5291 98.9964 64.5291C98.71 64.5291 98.4709 64.6037 98.2791 64.7528C98.0874 64.902 97.9429 65.1068 97.8459 65.3672C97.7488 65.6252 97.7003 65.9188 97.7003 66.2479C97.7003 66.5817 97.7488 66.8741 97.8459 67.125C97.9453 67.3736 98.0909 67.5677 98.2827 67.7074C98.4768 67.8447 98.7147 67.9134 98.9964 67.9134Z" fill="black"/>
<path d="M44.3821 94.6364V78.2727H45.4304V94.6364H44.3821ZM47.4055 83.5078C47.3459 82.9496 47.0945 82.5149 46.6513 82.2038C46.2124 81.8928 45.6413 81.7372 44.9382 81.7372C44.4439 81.7372 44.0199 81.8118 43.6662 81.9609C43.3125 82.1101 43.0419 82.3125 42.8544 82.5682C42.6669 82.8239 42.571 83.1158 42.5668 83.4439C42.5668 83.7166 42.6286 83.9531 42.7521 84.1534C42.88 84.3537 43.0526 84.5241 43.2699 84.6648C43.4872 84.8011 43.728 84.9162 43.9922 85.0099C44.2564 85.1037 44.5227 85.1825 44.7912 85.2464L46.0185 85.5533C46.5128 85.6683 46.9879 85.8239 47.4439 86.0199C47.9041 86.2159 48.3153 86.4631 48.6776 86.7614C49.044 87.0597 49.3338 87.4197 49.5469 87.8416C49.7599 88.2635 49.8665 88.7578 49.8665 89.3246C49.8665 90.0916 49.6705 90.767 49.2784 91.3509C48.8864 91.9304 48.3196 92.3842 47.5781 92.7124C46.8409 93.0362 45.9482 93.1982 44.8999 93.1982C43.8814 93.1982 42.9972 93.0405 42.2472 92.7251C41.5014 92.4098 40.9176 91.9496 40.4957 91.3445C40.0781 90.7393 39.8523 90.0021 39.8182 89.1328H42.1513C42.1854 89.5888 42.326 89.968 42.5732 90.2706C42.8203 90.5732 43.142 90.799 43.5384 90.9482C43.9389 91.0973 44.3864 91.1719 44.8807 91.1719C45.3963 91.1719 45.848 91.0952 46.2358 90.9418C46.6278 90.7841 46.9347 90.5668 47.1562 90.2898C47.3778 90.0085 47.4908 89.6804 47.495 89.3054C47.4908 88.9645 47.3906 88.6832 47.1946 88.4616C46.9986 88.2358 46.7237 88.0483 46.37 87.8991C46.0206 87.7457 45.6115 87.6094 45.1428 87.4901L43.6534 87.1065C42.5753 86.8295 41.723 86.4098 41.0966 85.8473C40.4744 85.2805 40.1634 84.5284 40.1634 83.5909C40.1634 82.8196 40.3722 82.1442 40.7898 81.5646C41.2116 80.9851 41.7848 80.5355 42.5092 80.2159C43.2337 79.892 44.054 79.7301 44.9702 79.7301C45.8991 79.7301 46.7131 79.892 47.4119 80.2159C48.1151 80.5355 48.6669 80.9808 49.0675 81.5518C49.468 82.1186 49.6747 82.7706 49.6875 83.5078H47.4055ZM51.8528 93V91.2869L56.3976 86.8317C56.8322 86.3928 57.1944 86.0028 57.4842 85.6619C57.774 85.321 57.9913 84.9908 58.1362 84.6712C58.2811 84.3516 58.3535 84.0107 58.3535 83.6484C58.3535 83.2351 58.2598 82.8814 58.0723 82.5874C57.8848 82.2891 57.627 82.0589 57.2988 81.897C56.9707 81.7351 56.5978 81.6541 56.1802 81.6541C55.7498 81.6541 55.3727 81.7436 55.0488 81.9226C54.725 82.0973 54.4735 82.3466 54.2946 82.6705C54.1199 82.9943 54.0325 83.38 54.0325 83.8274H51.7761C51.7761 82.9964 51.9657 82.2741 52.345 81.6605C52.7243 81.0469 53.2463 80.5717 53.911 80.2351C54.5801 79.8984 55.3471 79.7301 56.2122 79.7301C57.09 79.7301 57.8613 79.8942 58.5261 80.2223C59.1909 80.5504 59.7065 81 60.073 81.571C60.4437 82.142 60.6291 82.794 60.6291 83.527C60.6291 84.017 60.5353 84.4986 60.3478 84.9716C60.1603 85.4446 59.8301 85.9687 59.3571 86.544C58.8883 87.1193 58.2299 87.8161 57.3819 88.6342L55.1255 90.929V91.0185H60.8272V93H51.8528ZM67.5836 93.179C66.7314 93.179 65.9686 93.0192 65.2953 92.6996C64.622 92.3757 64.0872 91.9325 63.6909 91.37C63.2988 90.8075 63.09 90.1641 63.0645 89.4396H65.3656C65.4082 89.9766 65.6404 90.4155 66.0623 90.7564C66.4842 91.093 66.9913 91.2614 67.5836 91.2614C68.0481 91.2614 68.4615 91.1548 68.8237 90.9418C69.1859 90.7287 69.4714 90.4325 69.6802 90.0533C69.889 89.674 69.9913 89.2415 69.987 88.7557C69.9913 88.2614 69.8869 87.8224 69.6738 87.4389C69.4608 87.0554 69.1689 86.755 68.7981 86.5376C68.4274 86.3161 68.0012 86.2053 67.5197 86.2053C67.1277 86.201 66.742 86.2734 66.3627 86.4226C65.9835 86.5717 65.6831 86.7678 65.4615 87.0107L63.3201 86.6591L64.0041 79.9091H71.5978V81.8906H65.9664L65.5893 85.3615H65.666C65.9089 85.076 66.252 84.8395 66.6951 84.652C67.1383 84.4602 67.6241 84.3643 68.1525 84.3643C68.9451 84.3643 69.6525 84.5518 70.2747 84.9268C70.8968 85.2976 71.3869 85.8089 71.7449 86.4609C72.1028 87.1129 72.2818 87.8587 72.2818 88.6982C72.2818 89.5632 72.0815 90.3345 71.6809 91.0121C71.2846 91.6854 70.7328 92.2159 70.0254 92.6037C69.3223 92.9872 68.5083 93.179 67.5836 93.179ZM79.2172 93.179C78.5907 93.1747 77.9792 93.0661 77.3826 92.853C76.786 92.6357 76.2491 92.2841 75.7718 91.7983C75.2946 91.3082 74.9153 90.6584 74.6341 89.8487C74.3528 89.0348 74.2143 88.027 74.2186 86.8253C74.2186 85.7045 74.3379 84.7053 74.5765 83.8274C74.8152 82.9496 75.1582 82.2081 75.6056 81.603C76.0531 80.9936 76.5922 80.5291 77.2228 80.2095C77.8578 79.8899 78.5673 79.7301 79.3514 79.7301C80.1738 79.7301 80.9025 79.892 81.5375 80.2159C82.1767 80.5398 82.6923 80.983 83.0843 81.5455C83.4764 82.1037 83.7193 82.7344 83.813 83.4375H81.4799C81.3606 82.9347 81.1156 82.5341 80.7449 82.2358C80.3784 81.9332 79.9139 81.782 79.3514 81.782C78.4437 81.782 77.7449 82.1761 77.2548 82.9645C76.769 83.7528 76.524 84.8352 76.5197 86.2116H76.6092C76.818 85.8366 77.0886 85.5149 77.421 85.2464C77.7534 84.978 78.1284 84.7713 78.546 84.6264C78.9679 84.4773 79.4132 84.4027 79.8819 84.4027C80.649 84.4027 81.3372 84.5859 81.9466 84.9524C82.5602 85.3189 83.046 85.8239 83.4039 86.4673C83.7619 87.1065 83.9387 87.8395 83.9345 88.6662C83.9387 89.527 83.7427 90.3004 83.3464 90.9865C82.9501 91.6683 82.3983 92.2053 81.6909 92.5973C80.9835 92.9893 80.1589 93.1832 79.2172 93.179ZM79.2044 91.2614C79.6689 91.2614 80.0843 91.1484 80.4508 90.9226C80.8173 90.6967 81.1071 90.392 81.3201 90.0085C81.5332 89.625 81.6376 89.1946 81.6333 88.7173C81.6376 88.2486 81.5353 87.8246 81.3265 87.4453C81.122 87.0661 80.8386 86.7656 80.4764 86.544C80.1142 86.3224 79.7008 86.2116 79.2363 86.2116C78.8912 86.2116 78.5694 86.2777 78.2711 86.4098C77.9728 86.5419 77.7129 86.7251 77.4913 86.9595C77.2697 87.1896 77.095 87.4581 76.9672 87.7649C76.8436 88.0675 76.7797 88.3913 76.7754 88.7365C76.7797 89.1925 76.8862 89.6122 77.095 89.9957C77.3038 90.3793 77.5914 90.6861 77.9579 90.9162C78.3244 91.1463 78.7399 91.2614 79.2044 91.2614Z" fill="#FC3A3A"/>
<path d="M41.8835 105.182V111H40.8295V106.207H40.7955L39.4347 107.077V106.111L40.8807 105.182H41.8835ZM46.017 107.668V108.514H43.3977V107.668H46.017ZM46.8842 111V110.239L48.9041 108.259C49.0973 108.063 49.2583 107.89 49.3871 107.739C49.5159 107.587 49.6125 107.44 49.6768 107.298C49.7412 107.156 49.7734 107.005 49.7734 106.844C49.7734 106.66 49.7318 106.503 49.6484 106.372C49.5651 106.24 49.4505 106.137 49.3047 106.065C49.1589 105.993 48.9931 105.957 48.8075 105.957C48.6162 105.957 48.4486 105.997 48.3047 106.077C48.1607 106.154 48.049 106.265 47.9695 106.409C47.8918 106.553 47.853 106.724 47.853 106.923H46.8501C46.8501 106.554 46.9344 106.233 47.103 105.96C47.2715 105.687 47.5036 105.476 47.799 105.327C48.0964 105.177 48.4373 105.102 48.8217 105.102C49.2119 105.102 49.5547 105.175 49.8501 105.321C50.1456 105.467 50.3748 105.667 50.5376 105.92C50.7024 106.174 50.7848 106.464 50.7848 106.79C50.7848 107.008 50.7431 107.222 50.6598 107.432C50.5765 107.642 50.4297 107.875 50.2195 108.131C50.0111 108.386 49.7185 108.696 49.3416 109.06L48.3388 110.08V110.119H50.8729V111H46.8842ZM53.8942 111V105.182H54.9226V107.358H54.9652C55.0182 107.252 55.093 107.139 55.1896 107.02C55.2862 106.899 55.4169 106.795 55.5817 106.71C55.7464 106.623 55.9567 106.58 56.2124 106.58C56.5495 106.58 56.8535 106.666 57.1243 106.838C57.397 107.009 57.6129 107.261 57.772 107.597C57.933 107.93 58.0135 108.339 58.0135 108.824C58.0135 109.303 57.9349 109.71 57.7777 110.045C57.6205 110.381 57.4065 110.636 57.1357 110.812C56.8648 110.989 56.558 111.077 56.2152 111.077C55.9652 111.077 55.7578 111.035 55.593 110.952C55.4283 110.868 55.2957 110.768 55.1953 110.651C55.0968 110.531 55.0201 110.419 54.9652 110.312H54.9055V111H53.8942ZM54.9027 108.818C54.9027 109.1 54.9425 109.348 55.022 109.56C55.1035 109.772 55.2199 109.937 55.3714 110.057C55.5249 110.174 55.7105 110.233 55.9283 110.233C56.1555 110.233 56.3459 110.172 56.4993 110.051C56.6527 109.928 56.7682 109.76 56.8459 109.548C56.9254 109.334 56.9652 109.091 56.9652 108.818C56.9652 108.547 56.9264 108.307 56.8487 108.097C56.7711 107.886 56.6555 107.722 56.5021 107.602C56.3487 107.483 56.1574 107.423 55.9283 107.423C55.7086 107.423 55.522 107.481 55.3686 107.597C55.2152 107.712 55.0987 107.874 55.0192 108.082C54.9415 108.291 54.9027 108.536 54.9027 108.818ZM61.669 109.165V106.636H62.6974V111H61.7003V110.224H61.6548C61.5563 110.469 61.3944 110.669 61.169 110.824C60.9455 110.979 60.67 111.057 60.3423 111.057C60.0563 111.057 59.8035 110.993 59.5838 110.866C59.366 110.738 59.1955 110.551 59.0724 110.307C58.9493 110.061 58.8878 109.763 58.8878 109.415V106.636H59.9162V109.256C59.9162 109.532 59.992 109.752 60.1435 109.915C60.295 110.078 60.4938 110.159 60.7401 110.159C60.8916 110.159 61.0384 110.122 61.1804 110.048C61.3224 109.974 61.4389 109.865 61.5298 109.719C61.6226 109.571 61.669 109.386 61.669 109.165ZM67.2038 107.79L66.2663 107.892C66.2398 107.797 66.1934 107.708 66.1271 107.625C66.0627 107.542 65.9756 107.474 65.8658 107.423C65.7559 107.372 65.6214 107.347 65.4624 107.347C65.2483 107.347 65.0684 107.393 64.9226 107.486C64.7786 107.579 64.7076 107.699 64.7095 107.847C64.7076 107.973 64.754 108.077 64.8487 108.156C64.9453 108.236 65.1044 108.301 65.326 108.352L66.0703 108.511C66.4832 108.6 66.79 108.741 66.9908 108.935C67.1934 109.128 67.2957 109.381 67.2976 109.693C67.2957 109.968 67.2152 110.21 67.0561 110.42C66.8989 110.629 66.6802 110.792 66.3999 110.909C66.1196 111.027 65.7976 111.085 65.4339 111.085C64.8999 111.085 64.4699 110.973 64.1442 110.75C63.8184 110.525 63.6243 110.211 63.5618 109.81L64.5646 109.713C64.6101 109.91 64.7067 110.059 64.8544 110.159C65.0021 110.259 65.1944 110.31 65.4311 110.31C65.6754 110.31 65.8714 110.259 66.0192 110.159C66.1688 110.059 66.2436 109.935 66.2436 109.787C66.2436 109.662 66.1953 109.559 66.0987 109.477C66.004 109.396 65.8563 109.333 65.6555 109.29L64.9112 109.134C64.4927 109.046 64.183 108.9 63.9822 108.693C63.7815 108.485 63.6821 108.222 63.6839 107.903C63.6821 107.634 63.755 107.402 63.9027 107.205C64.0523 107.006 64.2597 106.852 64.5249 106.744C64.7919 106.634 65.0997 106.58 65.4482 106.58C65.9595 106.58 66.362 106.688 66.6555 106.906C66.951 107.124 67.1338 107.419 67.2038 107.79ZM68.1456 111V106.636H69.174V111H68.1456ZM68.6626 106.017C68.4998 106.017 68.3596 105.963 68.2422 105.855C68.1248 105.745 68.0661 105.614 68.0661 105.46C68.0661 105.305 68.1248 105.173 68.2422 105.065C68.3596 104.955 68.4998 104.901 68.6626 104.901C68.8274 104.901 68.9676 104.955 69.0831 105.065C69.2005 105.173 69.2592 105.305 69.2592 105.46C69.2592 105.614 69.2005 105.745 69.0831 105.855C68.9676 105.963 68.8274 106.017 68.6626 106.017ZM71.2599 108.443V111H70.2315V106.636H71.2145V107.378H71.2656C71.366 107.134 71.526 106.939 71.7457 106.795C71.9673 106.652 72.241 106.58 72.5668 106.58C72.8679 106.58 73.1302 106.644 73.3537 106.773C73.5791 106.902 73.7533 107.088 73.8764 107.332C74.0014 107.577 74.063 107.873 74.0611 108.222V111H73.0327V108.381C73.0327 108.089 72.9569 107.861 72.8054 107.696C72.6558 107.531 72.4484 107.449 72.1832 107.449C72.0033 107.449 71.8433 107.489 71.7031 107.568C71.5649 107.646 71.456 107.759 71.3764 107.906C71.2988 108.054 71.2599 108.233 71.2599 108.443ZM77.0384 111.085C76.6009 111.085 76.223 110.994 75.9048 110.812C75.5885 110.629 75.3452 110.369 75.1747 110.034C75.0043 109.697 74.919 109.3 74.919 108.844C74.919 108.395 75.0043 108.001 75.1747 107.662C75.3471 107.321 75.5876 107.056 75.8963 106.866C76.205 106.675 76.5677 106.58 76.9844 106.58C77.2533 106.58 77.5071 106.623 77.7457 106.71C77.9863 106.795 78.1984 106.928 78.3821 107.108C78.5677 107.288 78.7135 107.517 78.8196 107.795C78.9257 108.072 78.9787 108.402 78.9787 108.784V109.099H75.402V108.406H77.9929C77.991 108.209 77.9484 108.034 77.8651 107.881C77.7817 107.725 77.6652 107.603 77.5156 107.514C77.3679 107.425 77.1955 107.381 76.9986 107.381C76.7884 107.381 76.6037 107.432 76.4446 107.534C76.2855 107.634 76.1615 107.767 76.0724 107.932C75.9853 108.095 75.9408 108.274 75.9389 108.469V109.074C75.9389 109.328 75.9853 109.545 76.0781 109.727C76.1709 109.907 76.3007 110.045 76.4673 110.142C76.634 110.237 76.8291 110.284 77.0526 110.284C77.2022 110.284 77.3376 110.263 77.4588 110.222C77.58 110.178 77.6851 110.115 77.7741 110.031C77.8632 109.948 77.9304 109.845 77.9759 109.722L78.9361 109.83C78.8755 110.083 78.7599 110.305 78.5895 110.494C78.4209 110.682 78.205 110.828 77.9418 110.932C77.6785 111.034 77.3774 111.085 77.0384 111.085ZM83.2976 107.79L82.3601 107.892C82.3336 107.797 82.2872 107.708 82.2209 107.625C82.1565 107.542 82.0694 107.474 81.9595 107.423C81.8497 107.372 81.7152 107.347 81.5561 107.347C81.3421 107.347 81.1622 107.393 81.0163 107.486C80.8724 107.579 80.8014 107.699 80.8033 107.847C80.8014 107.973 80.8478 108.077 80.9425 108.156C81.0391 108.236 81.1982 108.301 81.4197 108.352L82.1641 108.511C82.5769 108.6 82.8838 108.741 83.0845 108.935C83.2872 109.128 83.3894 109.381 83.3913 109.693C83.3894 109.968 83.3089 110.21 83.1499 110.42C82.9927 110.629 82.7739 110.792 82.4936 110.909C82.2133 111.027 81.8913 111.085 81.5277 111.085C80.9936 111.085 80.5637 110.973 80.2379 110.75C79.9122 110.525 79.718 110.211 79.6555 109.81L80.6584 109.713C80.7038 109.91 80.8004 110.059 80.9482 110.159C81.0959 110.259 81.2881 110.31 81.5249 110.31C81.7692 110.31 81.9652 110.259 82.1129 110.159C82.2625 110.059 82.3374 109.935 82.3374 109.787C82.3374 109.662 82.2891 109.559 82.1925 109.477C82.0978 109.396 81.95 109.333 81.7493 109.29L81.005 109.134C80.5864 109.046 80.2768 108.9 80.076 108.693C79.8752 108.485 79.7758 108.222 79.7777 107.903C79.7758 107.634 79.8487 107.402 79.9964 107.205C80.1461 107.006 80.3535 106.852 80.6186 106.744C80.8857 106.634 81.1934 106.58 81.5419 106.58C82.0533 106.58 82.4557 106.688 82.7493 106.906C83.0447 107.124 83.2275 107.419 83.2976 107.79ZM87.6882 107.79L86.7507 107.892C86.7242 107.797 86.6778 107.708 86.6115 107.625C86.5471 107.542 86.46 107.474 86.3501 107.423C86.2403 107.372 86.1058 107.347 85.9467 107.347C85.7327 107.347 85.5528 107.393 85.407 107.486C85.263 107.579 85.192 107.699 85.1939 107.847C85.192 107.973 85.2384 108.077 85.3331 108.156C85.4297 108.236 85.5888 108.301 85.8104 108.352L86.5547 108.511C86.9676 108.6 87.2744 108.741 87.4751 108.935C87.6778 109.128 87.7801 109.381 87.782 109.693C87.7801 109.968 87.6996 110.21 87.5405 110.42C87.3833 110.629 87.1645 110.792 86.8842 110.909C86.6039 111.027 86.282 111.085 85.9183 111.085C85.3842 111.085 84.9543 110.973 84.6286 110.75C84.3028 110.525 84.1087 110.211 84.0462 109.81L85.049 109.713C85.0945 109.91 85.1911 110.059 85.3388 110.159C85.4865 110.259 85.6787 110.31 85.9155 110.31C86.1598 110.31 86.3558 110.259 86.5036 110.159C86.6532 110.059 86.728 109.935 86.728 109.787C86.728 109.662 86.6797 109.559 86.5831 109.477C86.4884 109.396 86.3407 109.333 86.1399 109.29L85.3956 109.134C84.977 109.046 84.6674 108.9 84.4666 108.693C84.2659 108.485 84.1664 108.222 84.1683 107.903C84.1664 107.634 84.2393 107.402 84.3871 107.205C84.5367 107.006 84.7441 106.852 85.0092 106.744C85.2763 106.634 85.584 106.58 85.9325 106.58C86.4439 106.58 86.8464 106.688 87.1399 106.906C87.4354 107.124 87.6181 107.419 87.6882 107.79ZM92.2337 111.077C91.8909 111.077 91.584 110.989 91.3132 110.812C91.0424 110.636 90.8284 110.381 90.6712 110.045C90.514 109.71 90.4354 109.303 90.4354 108.824C90.4354 108.339 90.5149 107.93 90.674 107.597C90.835 107.261 91.0518 107.009 91.3246 106.838C91.5973 106.666 91.9013 106.58 92.2365 106.58C92.4922 106.58 92.7024 106.623 92.8672 106.71C93.032 106.795 93.1626 106.899 93.2592 107.02C93.3558 107.139 93.4306 107.252 93.4837 107.358H93.5263V105.182H94.5575V111H93.5462V110.312H93.4837C93.4306 110.419 93.3539 110.531 93.2536 110.651C93.1532 110.768 93.0206 110.868 92.8558 110.952C92.6911 111.035 92.4837 111.077 92.2337 111.077ZM92.5206 110.233C92.7384 110.233 92.924 110.174 93.0774 110.057C93.2308 109.937 93.3473 109.772 93.4268 109.56C93.5064 109.348 93.5462 109.1 93.5462 108.818C93.5462 108.536 93.5064 108.291 93.4268 108.082C93.3492 107.874 93.2337 107.712 93.0803 107.597C92.9287 107.481 92.7422 107.423 92.5206 107.423C92.2914 107.423 92.1001 107.483 91.9467 107.602C91.7933 107.722 91.6778 107.886 91.6001 108.097C91.5225 108.307 91.4837 108.547 91.4837 108.818C91.4837 109.091 91.5225 109.334 91.6001 109.548C91.6797 109.76 91.7962 109.928 91.9496 110.051C92.1049 110.172 92.2952 110.233 92.5206 110.233ZM96.9091 111.088C96.6326 111.088 96.3835 111.039 96.1619 110.94C95.9422 110.84 95.768 110.692 95.6392 110.497C95.5123 110.302 95.4489 110.062 95.4489 109.776C95.4489 109.529 95.4943 109.326 95.5852 109.165C95.6761 109.004 95.8002 108.875 95.9574 108.778C96.1146 108.682 96.2917 108.609 96.4886 108.56C96.6875 108.509 96.893 108.472 97.1051 108.449C97.3608 108.422 97.5682 108.399 97.7273 108.378C97.8864 108.355 98.0019 108.321 98.0739 108.276C98.1477 108.228 98.1847 108.155 98.1847 108.057V108.04C98.1847 107.826 98.1212 107.66 97.9943 107.543C97.8674 107.425 97.6847 107.366 97.446 107.366C97.1941 107.366 96.9943 107.421 96.8466 107.531C96.7008 107.641 96.6023 107.771 96.5511 107.92L95.5909 107.784C95.6667 107.519 95.7917 107.297 95.9659 107.119C96.1402 106.939 96.3532 106.805 96.6051 106.716C96.857 106.625 97.1354 106.58 97.4403 106.58C97.6506 106.58 97.8598 106.604 98.0682 106.653C98.2765 106.703 98.4669 106.784 98.6392 106.898C98.8116 107.009 98.9498 107.162 99.054 107.355C99.16 107.548 99.2131 107.79 99.2131 108.08V111H98.2244V110.401H98.1903C98.1278 110.522 98.0398 110.635 97.9261 110.741C97.8144 110.846 97.6733 110.93 97.5028 110.994C97.3343 111.057 97.1364 111.088 96.9091 111.088ZM97.1761 110.332C97.3826 110.332 97.5616 110.292 97.7131 110.21C97.8646 110.127 97.9811 110.017 98.0625 109.881C98.1458 109.744 98.1875 109.596 98.1875 109.435V108.92C98.1553 108.947 98.1004 108.972 98.0227 108.994C97.947 109.017 97.8617 109.037 97.767 109.054C97.6723 109.071 97.5786 109.086 97.4858 109.099C97.393 109.113 97.3125 109.124 97.2443 109.134C97.0909 109.154 96.9536 109.188 96.8324 109.236C96.7112 109.283 96.6155 109.349 96.5455 109.435C96.4754 109.518 96.4403 109.626 96.4403 109.759C96.4403 109.948 96.5095 110.091 96.6477 110.188C96.786 110.284 96.9621 110.332 97.1761 110.332ZM100.73 112.636C100.59 112.636 100.46 112.625 100.341 112.602C100.223 112.581 100.13 112.557 100.06 112.528L100.298 111.727C100.448 111.771 100.581 111.792 100.699 111.79C100.816 111.788 100.92 111.751 101.009 111.679C101.099 111.609 101.176 111.491 101.239 111.327L101.327 111.091L99.7443 106.636H100.835L101.841 109.932H101.886L102.895 106.636H103.989L102.241 111.528C102.16 111.759 102.052 111.957 101.918 112.122C101.783 112.289 101.618 112.416 101.423 112.503C101.23 112.592 100.999 112.636 100.73 112.636ZM108.149 107.79L107.212 107.892C107.185 107.797 107.139 107.708 107.072 107.625C107.008 107.542 106.921 107.474 106.811 107.423C106.701 107.372 106.567 107.347 106.408 107.347C106.194 107.347 106.014 107.393 105.868 107.486C105.724 107.579 105.653 107.699 105.655 107.847C105.653 107.973 105.699 108.077 105.794 108.156C105.891 108.236 106.05 108.301 106.271 108.352L107.016 108.511C107.429 108.6 107.735 108.741 107.936 108.935C108.139 109.128 108.241 109.381 108.243 109.693C108.241 109.968 108.161 110.21 108.001 110.42C107.844 110.629 107.625 110.792 107.345 110.909C107.065 111.027 106.743 111.085 106.379 111.085C105.845 111.085 105.415 110.973 105.089 110.75C104.764 110.525 104.57 110.211 104.507 109.81L105.51 109.713C105.555 109.91 105.652 110.059 105.8 110.159C105.947 110.259 106.14 110.31 106.376 110.31C106.621 110.31 106.817 110.259 106.964 110.159C107.114 110.059 107.189 109.935 107.189 109.787C107.189 109.662 107.141 109.559 107.044 109.477C106.949 109.396 106.802 109.333 106.601 109.29L105.857 109.134C105.438 109.046 105.128 108.9 104.928 108.693C104.727 108.485 104.627 108.222 104.629 107.903C104.627 107.634 104.7 107.402 104.848 107.205C104.998 107.006 105.205 106.852 105.47 106.744C105.737 106.634 106.045 106.58 106.393 106.58C106.905 106.58 107.307 106.688 107.601 106.906C107.896 107.124 108.079 107.419 108.149 107.79Z" fill="#E1E1E1"/>
<defs>
<filter id="filter0_d_46_54" x="0" y="22" width="194" height="190" filterUnits="userSpaceOnUse" color-interpolation-filters="sRGB">
<feFlood flood-opacity="0" result="BackgroundImageFix"/>
<feColorMatrix in="SourceAlpha" type="matrix" values="0 0 0 0 0 0 0 0 0 0 0 0 0 0 0 0 0 0 127 0" result="hardAlpha"/>
<feOffset dy="4"/>
<feGaussianBlur stdDeviation="15"/>
<feComposite in2="hardAlpha" operator="out"/>
<feColorMatrix type="matrix" values="0 0 0 0 0 0 0 0 0 0 0 0 0 0 0 0 0 0 0.1 0"/>
<feBlend mode="normal" in2="BackgroundImageFix" result="effect1_dropShadow_46_54"/>
<feBlend mode="normal" in="SourceGraphic" in2="effect1_dropShadow_46_54" result="shape"/>
</filter>
<filter id="filter1_d_46_54" x="11" y="138" width="51" height="56" filterUnits="userSpaceOnUse" color-interpolation-filters="sRGB">
<feFlood flood-opacity="0" result="BackgroundImageFix"/>
<feColorMatrix in="SourceAlpha" type="matrix" values="0 0 0 0 0 0 0 0 0 0 0 0 0 0 0 0 0 0 127 0" result="hardAlpha"/>
<feMorphology radius="5" operator="erode" in="SourceAlpha" result="effect1_dropShadow_46_54"/>
<feOffset dx="-10" dy="-15"/>
<feGaussianBlur stdDeviation="0.5"/>
<feComposite in2="hardAlpha" operator="out"/>
<feColorMatrix type="matrix" values="0 0 0 0 1 0 0 0 0 0.945098 0 0 0 0 0.831373 0 0 0 1 0"/>
<feBlend mode="normal" in2="BackgroundImageFix" result="effect1_dropShadow_46_54"/>
<feBlend mode="normal" in="SourceGraphic" in2="effect1_dropShadow_46_54" result="shape"/>
</filter>
</defs>
</svg>
