<svg width="401" height="237" viewBox="0 0 401 237" fill="none" xmlns="http://www.w3.org/2000/svg">
<g filter="url(#filter0_d_34_8)">
<rect x="30" y="26" width="341" height="177" rx="10" fill="white"/>
</g>
<path d="M47.1929 55.0909H49.4248L52.0935 59.9169H52.2L54.8687 55.0909H57.1006L53.1322 61.9304V66H51.1613V61.9304L47.1929 55.0909ZM67.6328 60.5455C67.6328 61.7209 67.4126 62.7276 66.9723 63.5657C66.5355 64.4002 65.9389 65.0394 65.1825 65.4833C64.4297 65.9272 63.5756 66.1491 62.6204 66.1491C61.6651 66.1491 60.8093 65.9272 60.0529 65.4833C59.3 65.0359 58.7035 64.3949 58.2631 63.5604C57.8263 62.7223 57.6079 61.7173 57.6079 60.5455C57.6079 59.37 57.8263 58.3651 58.2631 57.5305C58.7035 56.6925 59.3 56.0515 60.0529 55.6076C60.8093 55.1637 61.6651 54.9418 62.6204 54.9418C63.5756 54.9418 64.4297 55.1637 65.1825 55.6076C65.9389 56.0515 66.5355 56.6925 66.9723 57.5305C67.4126 58.3651 67.6328 59.37 67.6328 60.5455ZM65.6459 60.5455C65.6459 59.718 65.5163 59.0202 65.2571 58.4521C65.0014 57.8803 64.6463 57.4489 64.1917 57.1577C63.7372 56.8629 63.2134 56.7156 62.6204 56.7156C62.0273 56.7156 61.5035 56.8629 61.049 57.1577C60.5944 57.4489 60.2375 57.8803 59.9783 58.4521C59.7226 59.0202 59.5948 59.718 59.5948 60.5455C59.5948 61.3729 59.7226 62.0724 59.9783 62.6442C60.2375 63.2124 60.5944 63.6438 61.049 63.9386C61.5035 64.2298 62.0273 64.3754 62.6204 64.3754C63.2134 64.3754 63.7372 64.2298 64.1917 63.9386C64.6463 63.6438 65.0014 63.2124 65.2571 62.6442C65.5163 62.0724 65.6459 61.3729 65.6459 60.5455ZM76.3779 55.0909H78.3541V62.218C78.3541 62.9993 78.1695 63.6864 77.8001 64.2795C77.4344 64.8725 76.9195 65.3359 76.2554 65.6697C75.5913 66 74.8154 66.1651 73.9276 66.1651C73.0363 66.1651 72.2586 66 71.5945 65.6697C70.9305 65.3359 70.4155 64.8725 70.0498 64.2795C69.684 63.6864 69.5011 62.9993 69.5011 62.218V55.0909H71.4773V62.0529C71.4773 62.5075 71.5768 62.9123 71.7756 63.2674C71.978 63.6225 72.2621 63.9013 72.6279 64.1037C72.9937 64.3026 73.4269 64.402 73.9276 64.402C74.4283 64.402 74.8616 64.3026 75.2273 64.1037C75.5967 63.9013 75.8807 63.6225 76.0796 63.2674C76.2785 62.9123 76.3779 62.5075 76.3779 62.0529V55.0909ZM80.5021 66V55.0909H84.593C85.4311 55.0909 86.1342 55.2365 86.7024 55.5277C87.2741 55.8189 87.7056 56.2273 87.9968 56.7528C88.2915 57.2749 88.4389 57.8839 88.4389 58.5799C88.4389 59.2795 88.2897 59.8867 87.9915 60.4016C87.6967 60.913 87.2617 61.3089 86.6864 61.5895C86.1111 61.8665 85.4045 62.005 84.5664 62.005H81.6527V60.3643H84.3C84.7901 60.3643 85.1914 60.2969 85.5039 60.1619C85.8164 60.0234 86.0472 59.8228 86.1964 59.56C86.3491 59.2937 86.4254 58.967 86.4254 58.5799C86.4254 58.1928 86.3491 57.8626 86.1964 57.5891C86.0437 57.3121 85.8111 57.1026 85.4986 56.9606C85.1861 56.815 84.783 56.7422 84.2894 56.7422H82.4783V66H80.5021ZM86.1378 61.0568L88.8384 66H86.6331L83.9804 61.0568H86.1378ZM95.3796 66H93.2702L97.1108 55.0909H99.5504L103.396 66H101.287L98.3732 57.3281H98.288L95.3796 66ZM95.4488 61.7227H101.202V63.31H95.4488V61.7227ZM113.658 58.7717H111.666C111.609 58.445 111.504 58.1555 111.352 57.9034C111.199 57.6477 111.009 57.4311 110.782 57.2536C110.554 57.076 110.295 56.9428 110.004 56.854C109.716 56.7617 109.406 56.7156 109.072 56.7156C108.479 56.7156 107.953 56.8647 107.495 57.163C107.037 57.4577 106.678 57.891 106.419 58.4627C106.16 59.0309 106.03 59.7251 106.03 60.5455C106.03 61.38 106.16 62.0831 106.419 62.6548C106.682 63.223 107.041 63.6527 107.495 63.9439C107.953 64.2315 108.477 64.3754 109.067 64.3754C109.393 64.3754 109.699 64.3327 109.983 64.2475C110.27 64.1587 110.528 64.0291 110.755 63.8587C110.986 63.6882 111.179 63.4787 111.336 63.2301C111.496 62.9815 111.606 62.6974 111.666 62.3778L113.658 62.3885C113.584 62.907 113.422 63.3935 113.173 63.848C112.928 64.3026 112.607 64.7038 112.209 65.0518C111.812 65.3963 111.346 65.6662 110.814 65.8615C110.281 66.0533 109.69 66.1491 109.04 66.1491C108.081 66.1491 107.225 65.9272 106.472 65.4833C105.72 65.0394 105.127 64.3984 104.693 63.5604C104.26 62.7223 104.043 61.7173 104.043 60.5455C104.043 59.37 104.262 58.3651 104.699 57.5305C105.135 56.6925 105.73 56.0515 106.483 55.6076C107.236 55.1637 108.088 54.9418 109.04 54.9418C109.647 54.9418 110.212 55.027 110.734 55.1974C111.256 55.3679 111.721 55.6183 112.129 55.9485C112.538 56.2752 112.873 56.6765 113.136 57.1523C113.402 57.6246 113.577 58.1644 113.658 58.7717ZM124.806 58.7717H122.813C122.757 58.445 122.652 58.1555 122.499 57.9034C122.346 57.6477 122.156 57.4311 121.929 57.2536C121.702 57.076 121.443 56.9428 121.152 56.854C120.864 56.7617 120.553 56.7156 120.219 56.7156C119.626 56.7156 119.101 56.8647 118.643 57.163C118.185 57.4577 117.826 57.891 117.567 58.4627C117.307 59.0309 117.178 59.7251 117.178 60.5455C117.178 61.38 117.307 62.0831 117.567 62.6548C117.829 63.223 118.188 63.6527 118.643 63.9439C119.101 64.2315 119.625 64.3754 120.214 64.3754C120.541 64.3754 120.846 64.3327 121.13 64.2475C121.418 64.1587 121.675 64.0291 121.903 63.8587C122.133 63.6882 122.327 63.4787 122.483 63.2301C122.643 62.9815 122.753 62.6974 122.813 62.3778L124.806 62.3885C124.731 62.907 124.569 63.3935 124.321 63.848C124.076 64.3026 123.755 64.7038 123.357 65.0518C122.959 65.3963 122.494 65.6662 121.961 65.8615C121.429 66.0533 120.837 66.1491 120.187 66.1491C119.229 66.1491 118.373 65.9272 117.62 65.4833C116.867 65.0394 116.274 64.3984 115.841 63.5604C115.408 62.7223 115.191 61.7173 115.191 60.5455C115.191 59.37 115.409 58.3651 115.846 57.5305C116.283 56.6925 116.878 56.0515 117.631 55.6076C118.383 55.1637 119.236 54.9418 120.187 54.9418C120.795 54.9418 121.359 55.027 121.881 55.1974C122.403 55.3679 122.868 55.6183 123.277 55.9485C123.685 56.2752 124.021 56.6765 124.284 57.1523C124.55 57.6246 124.724 58.1644 124.806 58.7717ZM136.363 60.5455C136.363 61.7209 136.143 62.7276 135.703 63.5657C135.266 64.4002 134.669 65.0394 133.913 65.4833C133.16 65.9272 132.306 66.1491 131.351 66.1491C130.396 66.1491 129.54 65.9272 128.783 65.4833C128.031 65.0359 127.434 64.3949 126.994 63.5604C126.557 62.7223 126.338 61.7173 126.338 60.5455C126.338 59.37 126.557 58.3651 126.994 57.5305C127.434 56.6925 128.031 56.0515 128.783 55.6076C129.54 55.1637 130.396 54.9418 131.351 54.9418C132.306 54.9418 133.16 55.1637 133.913 55.6076C134.669 56.0515 135.266 56.6925 135.703 57.5305C136.143 58.3651 136.363 59.37 136.363 60.5455ZM134.376 60.5455C134.376 59.718 134.247 59.0202 133.988 58.4521C133.732 57.8803 133.377 57.4489 132.922 57.1577C132.468 56.8629 131.944 56.7156 131.351 56.7156C130.758 56.7156 130.234 56.8629 129.779 57.1577C129.325 57.4489 128.968 57.8803 128.709 58.4521C128.453 59.0202 128.325 59.718 128.325 60.5455C128.325 61.3729 128.453 62.0724 128.709 62.6442C128.968 63.2124 129.325 63.6438 129.779 63.9386C130.234 64.2298 130.758 64.3754 131.351 64.3754C131.944 64.3754 132.468 64.2298 132.922 63.9386C133.377 63.6438 133.732 63.2124 133.988 62.6442C134.247 62.0724 134.376 61.3729 134.376 60.5455ZM145.108 55.0909H147.085V62.218C147.085 62.9993 146.9 63.6864 146.531 64.2795C146.165 64.8725 145.65 65.3359 144.986 65.6697C144.322 66 143.546 66.1651 142.658 66.1651C141.767 66.1651 140.989 66 140.325 65.6697C139.661 65.3359 139.146 64.8725 138.78 64.2795C138.414 63.6864 138.232 62.9993 138.232 62.218V55.0909H140.208V62.0529C140.208 62.5075 140.307 62.9123 140.506 63.2674C140.709 63.6225 140.993 63.9013 141.358 64.1037C141.724 64.3026 142.157 64.402 142.658 64.402C143.159 64.402 143.592 64.3026 143.958 64.1037C144.327 63.9013 144.611 63.6225 144.81 63.2674C145.009 62.9123 145.108 62.5075 145.108 62.0529V55.0909ZM158.197 55.0909V66H156.44L151.299 58.5692H151.209V66H149.233V55.0909H151.001L156.136 62.527H156.232V55.0909H158.197ZM159.871 56.7475V55.0909H168.575V56.7475H165.203V66H163.243V56.7475H159.871ZM173.974 66V55.0909H178.065C178.903 55.0909 179.606 55.2472 180.174 55.5597C180.746 55.8722 181.177 56.3018 181.468 56.8487C181.763 57.392 181.911 58.0099 181.911 58.7024C181.911 59.402 181.763 60.0234 181.468 60.5668C181.174 61.1101 180.739 61.538 180.163 61.8505C179.588 62.1594 178.88 62.3139 178.038 62.3139H175.327V60.6893H177.772C178.262 60.6893 178.663 60.604 178.976 60.4336C179.288 60.2631 179.519 60.0288 179.668 59.7305C179.821 59.4322 179.897 59.0895 179.897 58.7024C179.897 58.3153 179.821 57.9744 179.668 57.6797C179.519 57.3849 179.286 57.1559 178.97 56.9925C178.658 56.8256 178.255 56.7422 177.761 56.7422H175.95V66H173.974ZM183.627 66V55.0909H185.603V64.3434H190.408V66H183.627ZM193.934 66H191.825L195.665 55.0909H198.105L201.951 66H199.842L196.928 57.3281H196.843L193.934 66ZM194.004 61.7227H199.756V63.31H194.004V61.7227ZM212.353 55.0909V66H210.595L205.455 58.5692H205.364V66H203.388V55.0909H205.156L210.291 62.527H210.387V55.0909H212.353Z" fill="black"/>
<path d="M49.3733 115V89.5455H58.9187C60.8742 89.5455 62.5149 89.91 63.8406 90.6392C65.1747 91.3684 66.1814 92.371 66.8609 93.647C67.5486 94.9148 67.8925 96.3565 67.8925 97.9723C67.8925 99.6046 67.5486 101.055 66.8609 102.322C66.1731 103.59 65.1581 104.589 63.8158 105.318C62.4734 106.039 60.8204 106.399 58.8566 106.399H52.5303V102.608H58.2352C59.3786 102.608 60.3149 102.409 61.0441 102.012C61.7733 101.614 62.3119 101.067 62.6599 100.371C63.0162 99.6751 63.1943 98.8755 63.1943 97.9723C63.1943 97.0691 63.0162 96.2737 62.6599 95.5859C62.3119 94.8982 61.7691 94.3638 61.0317 93.9826C60.3025 93.5932 59.362 93.3984 58.2103 93.3984H53.9844V115H49.3733ZM71.8977 115V89.5455H81.4432C83.3987 89.5455 85.0393 89.8852 86.365 90.5646C87.6991 91.2441 88.7058 92.197 89.3853 93.4233C90.073 94.6413 90.4169 96.0624 90.4169 97.6864C90.4169 99.3188 90.0689 100.736 89.3728 101.937C88.6851 103.13 87.6701 104.054 86.3277 104.709C84.9854 105.355 83.3365 105.678 81.381 105.678H74.5824V101.85H80.7596C81.903 101.85 82.8393 101.693 83.5685 101.378C84.2977 101.055 84.8363 100.587 85.1843 99.9734C85.5406 99.3519 85.7187 98.5896 85.7187 97.6864C85.7187 96.7833 85.5406 96.0127 85.1843 95.3746C84.828 94.7283 84.2853 94.2395 83.5561 93.908C82.8269 93.5683 81.8865 93.3984 80.7347 93.3984H76.5089V115H71.8977ZM85.0476 103.466L91.3491 115H86.2035L80.0138 103.466H85.0476ZM94.6614 115V89.5455H111.217V93.4109H99.2725V100.321H110.359V104.187H99.2725V111.135H111.316V115H94.6614ZM115.921 89.5455H121.564L129.121 107.99H129.419L136.976 89.5455H142.619V115H138.194V97.5124H137.958L130.923 114.925H127.617L120.582 97.4751H120.346V115H115.921V89.5455ZM152.251 89.5455V115H147.64V89.5455H152.251ZM173.29 89.5455H177.901V106.175C177.901 107.998 177.47 109.602 176.609 110.985C175.755 112.369 174.554 113.451 173.004 114.229C171.455 115 169.644 115.385 167.573 115.385C165.493 115.385 163.678 115 162.129 114.229C160.579 113.451 159.378 112.369 158.525 110.985C157.671 109.602 157.244 107.998 157.244 106.175V89.5455H161.856V105.79C161.856 106.851 162.088 107.795 162.552 108.624C163.024 109.453 163.687 110.103 164.54 110.575C165.394 111.039 166.405 111.271 167.573 111.271C168.741 111.271 169.752 111.039 170.606 110.575C171.467 110.103 172.13 109.453 172.594 108.624C173.058 107.795 173.29 106.851 173.29 105.79V89.5455ZM182.913 89.5455H188.556L196.113 107.99H196.411L203.968 89.5455H209.611V115H205.186V97.5124H204.95L197.915 114.925H194.609L187.574 97.4751H187.338V115H182.913V89.5455Z" fill="#03B962"/>
<path d="M52.2426 137.091H54.2028V144.761C54.1993 145.464 54.0501 146.07 53.7554 146.578C53.4606 147.082 53.0487 147.471 52.5196 147.744C51.994 148.014 51.3815 148.149 50.6819 148.149C50.0427 148.149 49.4674 148.036 48.956 147.808C48.4482 147.577 48.0452 147.237 47.7469 146.786C47.4486 146.335 47.2994 145.773 47.2994 145.102H49.265C49.2685 145.397 49.3325 145.651 49.4567 145.864C49.5846 146.077 49.7604 146.24 49.9841 146.354C50.2078 146.468 50.4653 146.525 50.7565 146.525C51.0725 146.525 51.3406 146.459 51.5608 146.327C51.781 146.192 51.9479 145.994 52.0615 145.731C52.1787 145.468 52.2391 145.145 52.2426 144.761V137.091ZM59.8305 148.16C59.0315 148.16 58.339 147.984 57.7531 147.632C57.1671 147.281 56.7126 146.789 56.3894 146.157C56.0698 145.525 55.91 144.786 55.91 143.941C55.91 143.096 56.0698 142.355 56.3894 141.72C56.7126 141.084 57.1671 140.591 57.7531 140.239C58.339 139.887 59.0315 139.712 59.8305 139.712C60.6295 139.712 61.322 139.887 61.9079 140.239C62.4939 140.591 62.9466 141.084 63.2662 141.72C63.5894 142.355 63.751 143.096 63.751 143.941C63.751 144.786 63.5894 145.525 63.2662 146.157C62.9466 146.789 62.4939 147.281 61.9079 147.632C61.322 147.984 60.6295 148.16 59.8305 148.16ZM59.8412 146.615C60.2744 146.615 60.6366 146.496 60.9278 146.258C61.219 146.017 61.4356 145.694 61.5777 145.289C61.7233 144.884 61.7961 144.433 61.7961 143.936C61.7961 143.435 61.7233 142.982 61.5777 142.577C61.4356 142.169 61.219 141.844 60.9278 141.603C60.6366 141.361 60.2744 141.24 59.8412 141.24C59.3973 141.24 59.0279 141.361 58.7332 141.603C58.442 141.844 58.2236 142.169 58.078 142.577C57.936 142.982 57.8649 143.435 57.8649 143.936C57.8649 144.433 57.936 144.884 58.078 145.289C58.2236 145.694 58.442 146.017 58.7332 146.258C59.0279 146.496 59.3973 146.615 59.8412 146.615ZM65.3876 148V139.818H67.3159V148H65.3876ZM66.357 138.657C66.0516 138.657 65.7889 138.556 65.5687 138.353C65.3485 138.147 65.2384 137.901 65.2384 137.613C65.2384 137.322 65.3485 137.075 65.5687 136.873C65.7889 136.667 66.0516 136.564 66.357 136.564C66.666 136.564 66.9288 136.667 67.1454 136.873C67.3656 137.075 67.4757 137.322 67.4757 137.613C67.4757 137.901 67.3656 138.147 67.1454 138.353C66.9288 138.556 66.666 138.657 66.357 138.657ZM71.227 143.206V148H69.2987V139.818H71.1418V141.208H71.2376C71.4258 140.75 71.7259 140.386 72.1378 140.116C72.5533 139.847 73.0665 139.712 73.6773 139.712C74.2419 139.712 74.7337 139.832 75.1528 140.074C75.5753 140.315 75.9021 140.665 76.1329 141.123C76.3673 141.581 76.4827 142.137 76.4791 142.79V148H74.5508V143.089C74.5508 142.542 74.4088 142.114 74.1247 141.805C73.8442 141.496 73.4553 141.342 72.9582 141.342C72.6208 141.342 72.3207 141.416 72.0579 141.565C71.7987 141.711 71.5945 141.922 71.4454 142.199C71.2998 142.476 71.227 142.812 71.227 143.206ZM82.0615 148.16C81.2412 148.16 80.5327 147.989 79.9361 147.648C79.3431 147.304 78.8868 146.817 78.5672 146.189C78.2476 145.557 78.0878 144.813 78.0878 143.957C78.0878 143.115 78.2476 142.377 78.5672 141.741C78.8903 141.102 79.3413 140.605 79.9202 140.25C80.499 139.891 81.179 139.712 81.9603 139.712C82.4646 139.712 82.9404 139.793 83.3878 139.957C83.8388 140.116 84.2366 140.365 84.581 140.702C84.929 141.04 85.2025 141.469 85.4013 141.991C85.6002 142.51 85.6996 143.128 85.6996 143.845V144.436H78.9933V143.137H83.8513C83.8477 142.767 83.7678 142.439 83.6116 142.151C83.4553 141.86 83.2369 141.631 82.9564 141.464C82.6794 141.297 82.3562 141.214 81.9869 141.214C81.5928 141.214 81.2465 141.31 80.9482 141.501C80.6499 141.69 80.4173 141.938 80.2504 142.247C80.0871 142.553 80.0036 142.888 80.0001 143.254V144.388C80.0001 144.864 80.0871 145.273 80.2611 145.614C80.4351 145.951 80.6783 146.21 80.9908 146.391C81.3033 146.569 81.6691 146.658 82.0881 146.658C82.3687 146.658 82.6226 146.619 82.8499 146.54C83.0771 146.459 83.2742 146.34 83.4411 146.184C83.608 146.027 83.7341 145.834 83.8193 145.603L85.6197 145.805C85.5061 146.281 85.2895 146.697 84.9699 147.052C84.6538 147.403 84.249 147.677 83.7554 147.872C83.2618 148.064 82.6972 148.16 82.0615 148.16ZM90.3672 148.144C89.7244 148.144 89.1491 147.979 88.6413 147.648C88.1335 147.318 87.7322 146.839 87.4375 146.21C87.1427 145.582 86.9954 144.818 86.9954 143.92C86.9954 143.011 87.1445 142.244 87.4428 141.619C87.7447 140.99 88.1513 140.516 88.6626 140.196C89.174 139.873 89.7439 139.712 90.3725 139.712C90.8519 139.712 91.2461 139.793 91.555 139.957C91.864 140.116 92.109 140.31 92.2901 140.537C92.4712 140.761 92.6115 140.972 92.7109 141.171H92.7908V137.091H94.7244V148H92.8281V146.711H92.7109C92.6115 146.91 92.4677 147.121 92.2795 147.345C92.0912 147.565 91.8427 147.753 91.5337 147.909C91.2248 148.066 90.8359 148.144 90.3672 148.144ZM90.9052 146.562C91.3135 146.562 91.6616 146.452 91.9492 146.232C92.2368 146.008 92.4552 145.697 92.6044 145.299C92.7535 144.902 92.8281 144.438 92.8281 143.909C92.8281 143.38 92.7535 142.92 92.6044 142.529C92.4588 142.139 92.2422 141.835 91.9545 141.619C91.6704 141.402 91.3206 141.294 90.9052 141.294C90.4755 141.294 90.1168 141.406 89.8292 141.629C89.5415 141.853 89.3249 142.162 89.1793 142.556C89.0337 142.95 88.9609 143.401 88.9609 143.909C88.9609 144.42 89.0337 144.877 89.1793 145.278C89.3285 145.676 89.5469 145.99 89.8345 146.221C90.1257 146.448 90.4826 146.562 90.9052 146.562ZM100.479 148V146.572L104.266 142.86C104.628 142.494 104.93 142.169 105.171 141.885C105.413 141.601 105.594 141.326 105.715 141.059C105.835 140.793 105.896 140.509 105.896 140.207C105.896 139.863 105.818 139.568 105.661 139.323C105.505 139.074 105.29 138.882 105.017 138.748C104.743 138.613 104.433 138.545 104.085 138.545C103.726 138.545 103.412 138.62 103.142 138.769C102.872 138.914 102.663 139.122 102.513 139.392C102.368 139.662 102.295 139.983 102.295 140.356H100.415C100.415 139.664 100.573 139.062 100.889 138.55C101.205 138.039 101.64 137.643 102.194 137.363C102.751 137.082 103.391 136.942 104.111 136.942C104.843 136.942 105.486 137.078 106.04 137.352C106.594 137.625 107.023 138 107.329 138.476C107.638 138.952 107.792 139.495 107.792 140.106C107.792 140.514 107.714 140.915 107.558 141.31C107.402 141.704 107.126 142.141 106.732 142.62C106.342 143.099 105.793 143.68 105.086 144.362L103.206 146.274V146.349H107.957V148H100.479ZM110.194 148L114.834 138.817V138.742H109.449V137.091H116.88V138.779L112.245 148H110.194ZM122.706 139.818V141.31H118.002V139.818H122.706ZM119.163 137.858H121.092V145.539C121.092 145.798 121.131 145.997 121.209 146.136C121.29 146.271 121.397 146.363 121.528 146.413C121.66 146.462 121.805 146.487 121.965 146.487C122.086 146.487 122.196 146.478 122.295 146.461C122.398 146.443 122.477 146.427 122.53 146.413L122.855 147.92C122.752 147.956 122.604 147.995 122.413 148.037C122.224 148.08 121.994 148.105 121.72 148.112C121.237 148.126 120.802 148.053 120.415 147.893C120.028 147.73 119.721 147.478 119.494 147.137C119.27 146.796 119.16 146.37 119.163 145.859V137.858ZM126.422 143.206V148H124.494V137.091H126.38V141.208H126.476C126.667 140.747 126.964 140.383 127.365 140.116C127.77 139.847 128.285 139.712 128.91 139.712C129.478 139.712 129.973 139.831 130.396 140.069C130.819 140.306 131.145 140.654 131.376 141.113C131.611 141.571 131.728 142.13 131.728 142.79V148H129.799V143.089C129.799 142.538 129.657 142.11 129.373 141.805C129.093 141.496 128.699 141.342 128.191 141.342C127.85 141.342 127.544 141.416 127.275 141.565C127.008 141.711 126.799 141.922 126.646 142.199C126.497 142.476 126.422 142.812 126.422 143.206ZM137.499 137.091H139.918L143.156 144.996H143.284L146.523 137.091H148.941V148H147.045V140.505H146.943L143.929 147.968H142.512L139.497 140.489H139.395V148H137.499V137.091ZM153.362 148.165C152.844 148.165 152.377 148.073 151.961 147.888C151.549 147.7 151.223 147.423 150.981 147.057C150.743 146.691 150.624 146.24 150.624 145.704C150.624 145.243 150.709 144.861 150.88 144.559C151.05 144.257 151.283 144.016 151.578 143.835C151.872 143.653 152.204 143.517 152.574 143.424C152.947 143.328 153.332 143.259 153.73 143.217C154.209 143.167 154.598 143.123 154.896 143.083C155.194 143.041 155.411 142.977 155.546 142.892C155.685 142.803 155.754 142.666 155.754 142.482V142.45C155.754 142.048 155.635 141.738 155.397 141.517C155.159 141.297 154.816 141.187 154.369 141.187C153.897 141.187 153.522 141.29 153.245 141.496C152.971 141.702 152.787 141.945 152.691 142.226L150.891 141.97C151.033 141.473 151.267 141.058 151.594 140.724C151.92 140.386 152.32 140.134 152.792 139.967C153.264 139.797 153.786 139.712 154.358 139.712C154.752 139.712 155.145 139.758 155.535 139.85C155.926 139.942 156.283 140.095 156.606 140.308C156.929 140.518 157.188 140.804 157.384 141.166C157.583 141.528 157.682 141.981 157.682 142.524V148H155.828V146.876H155.764C155.647 147.103 155.482 147.316 155.269 147.515C155.06 147.711 154.795 147.869 154.475 147.989C154.159 148.107 153.788 148.165 153.362 148.165ZM153.863 146.748C154.25 146.748 154.585 146.672 154.87 146.519C155.154 146.363 155.372 146.157 155.525 145.901C155.681 145.646 155.759 145.367 155.759 145.065V144.101C155.699 144.151 155.596 144.197 155.45 144.239C155.308 144.282 155.148 144.319 154.971 144.351C154.793 144.383 154.617 144.412 154.443 144.436C154.269 144.461 154.118 144.483 153.991 144.5C153.703 144.539 153.446 144.603 153.218 144.692C152.991 144.781 152.812 144.905 152.68 145.065C152.549 145.221 152.483 145.424 152.483 145.672C152.483 146.027 152.613 146.295 152.872 146.477C153.131 146.658 153.462 146.748 153.863 146.748ZM159.621 148V139.818H161.491V141.182H161.576C161.725 140.71 161.981 140.346 162.343 140.09C162.709 139.831 163.126 139.701 163.595 139.701C163.701 139.701 163.82 139.706 163.952 139.717C164.087 139.724 164.198 139.737 164.287 139.754V141.528C164.205 141.5 164.076 141.475 163.898 141.453C163.724 141.429 163.556 141.416 163.392 141.416C163.041 141.416 162.725 141.493 162.444 141.645C162.167 141.794 161.949 142.002 161.789 142.268C161.629 142.535 161.549 142.842 161.549 143.19V148H159.621ZM168.8 148.16C167.983 148.16 167.282 147.98 166.696 147.622C166.114 147.263 165.665 146.768 165.349 146.136C165.036 145.5 164.88 144.768 164.88 143.941C164.88 143.11 165.04 142.377 165.359 141.741C165.679 141.102 166.13 140.605 166.712 140.25C167.298 139.891 167.991 139.712 168.79 139.712C169.454 139.712 170.041 139.834 170.553 140.079C171.068 140.321 171.478 140.663 171.783 141.107C172.089 141.548 172.263 142.062 172.305 142.652H170.462C170.388 142.258 170.21 141.929 169.929 141.667C169.652 141.4 169.281 141.267 168.816 141.267C168.422 141.267 168.076 141.374 167.777 141.587C167.479 141.796 167.247 142.098 167.08 142.492C166.916 142.886 166.835 143.359 166.835 143.909C166.835 144.467 166.916 144.946 167.08 145.347C167.243 145.745 167.472 146.052 167.767 146.269C168.065 146.482 168.415 146.588 168.816 146.588C169.1 146.588 169.354 146.535 169.578 146.429C169.805 146.319 169.995 146.161 170.148 145.955C170.301 145.749 170.405 145.498 170.462 145.203H172.305C172.259 145.782 172.089 146.295 171.794 146.743C171.499 147.187 171.098 147.535 170.59 147.787C170.082 148.036 169.486 148.16 168.8 148.16ZM175.817 143.206V148H173.889V137.091H175.774V141.208H175.87C176.062 140.747 176.358 140.383 176.76 140.116C177.164 139.847 177.679 139.712 178.304 139.712C178.873 139.712 179.368 139.831 179.791 140.069C180.213 140.306 180.54 140.654 180.771 141.113C181.005 141.571 181.122 142.13 181.122 142.79V148H179.194V143.089C179.194 142.538 179.052 142.11 178.768 141.805C178.487 141.496 178.093 141.342 177.585 141.342C177.244 141.342 176.939 141.416 176.669 141.565C176.403 141.711 176.193 141.922 176.041 142.199C175.891 142.476 175.817 142.812 175.817 143.206ZM185.352 146.509L185.282 147.094C185.233 147.542 185.144 147.996 185.016 148.458C184.892 148.923 184.76 149.351 184.622 149.742C184.483 150.132 184.372 150.44 184.286 150.663H182.987C183.036 150.447 183.104 150.152 183.189 149.779C183.278 149.406 183.363 148.987 183.445 148.522C183.526 148.057 183.581 147.585 183.61 147.105L183.647 146.509H185.352ZM187.49 148V146.572L191.278 142.86C191.64 142.494 191.942 142.169 192.183 141.885C192.425 141.601 192.606 141.326 192.726 141.059C192.847 140.793 192.908 140.509 192.908 140.207C192.908 139.863 192.829 139.568 192.673 139.323C192.517 139.074 192.302 138.882 192.029 138.748C191.755 138.613 191.444 138.545 191.096 138.545C190.738 138.545 190.424 138.62 190.154 138.769C189.884 138.914 189.674 139.122 189.525 139.392C189.38 139.662 189.307 139.983 189.307 140.356H187.426C187.426 139.664 187.584 139.062 187.9 138.55C188.217 138.039 188.652 137.643 189.205 137.363C189.763 137.082 190.402 136.942 191.123 136.942C191.855 136.942 192.497 137.078 193.051 137.352C193.605 137.625 194.035 138 194.34 138.476C194.649 138.952 194.804 139.495 194.804 140.106C194.804 140.514 194.726 140.915 194.569 141.31C194.413 141.704 194.138 142.141 193.744 142.62C193.353 143.099 192.805 143.68 192.098 144.362L190.218 146.274V146.349H194.969V148H187.49ZM200.839 148.208C199.962 148.208 199.209 147.986 198.58 147.542C197.955 147.094 197.474 146.45 197.137 145.608C196.803 144.763 196.636 143.746 196.636 142.556C196.64 141.366 196.808 140.354 197.142 139.52C197.48 138.682 197.961 138.043 198.586 137.602C199.214 137.162 199.965 136.942 200.839 136.942C201.713 136.942 202.464 137.162 203.092 137.602C203.721 138.043 204.202 138.682 204.536 139.52C204.873 140.358 205.042 141.37 205.042 142.556C205.042 143.749 204.873 144.768 204.536 145.614C204.202 146.455 203.721 147.098 203.092 147.542C202.467 147.986 201.716 148.208 200.839 148.208ZM200.839 146.54C201.521 146.54 202.059 146.205 202.453 145.534C202.851 144.859 203.05 143.866 203.05 142.556C203.05 141.69 202.959 140.962 202.778 140.372C202.597 139.783 202.341 139.339 202.011 139.04C201.681 138.739 201.29 138.588 200.839 138.588C200.161 138.588 199.625 138.925 199.23 139.6C198.836 140.271 198.637 141.256 198.634 142.556C198.63 143.426 198.717 144.158 198.895 144.751C199.076 145.344 199.332 145.791 199.662 146.093C199.992 146.391 200.384 146.54 200.839 146.54ZM206.812 148V146.572L210.599 142.86C210.961 142.494 211.263 142.169 211.504 141.885C211.746 141.601 211.927 141.326 212.048 141.059C212.168 140.793 212.229 140.509 212.229 140.207C212.229 139.863 212.151 139.568 211.994 139.323C211.838 139.074 211.623 138.882 211.35 138.748C211.077 138.613 210.766 138.545 210.418 138.545C210.059 138.545 209.745 138.62 209.475 138.769C209.205 138.914 208.996 139.122 208.846 139.392C208.701 139.662 208.628 139.983 208.628 140.356H206.748C206.748 139.664 206.906 139.062 207.222 138.55C207.538 138.039 207.973 137.643 208.527 137.363C209.084 137.082 209.724 136.942 210.444 136.942C211.176 136.942 211.819 137.078 212.373 137.352C212.927 137.625 213.356 138 213.662 138.476C213.971 138.952 214.125 139.495 214.125 140.106C214.125 140.514 214.047 140.915 213.891 141.31C213.735 141.704 213.459 142.141 213.065 142.62C212.675 143.099 212.126 143.68 211.419 144.362L209.539 146.274V146.349H214.29V148H206.812ZM220.043 148.149C219.276 148.149 218.594 148.018 217.998 147.755C217.405 147.492 216.936 147.126 216.591 146.658C216.247 146.189 216.064 145.647 216.043 145.033H218.046C218.063 145.328 218.161 145.585 218.339 145.805C218.516 146.022 218.752 146.191 219.047 146.311C219.342 146.432 219.672 146.493 220.038 146.493C220.428 146.493 220.775 146.425 221.077 146.29C221.378 146.152 221.615 145.96 221.785 145.715C221.955 145.47 222.039 145.187 222.035 144.868C222.039 144.538 221.954 144.246 221.78 143.994C221.606 143.742 221.353 143.545 221.023 143.403C220.697 143.261 220.302 143.19 219.841 143.19H218.877V141.667H219.841C220.221 141.667 220.553 141.601 220.837 141.469C221.124 141.338 221.35 141.153 221.513 140.915C221.677 140.674 221.757 140.395 221.753 140.079C221.757 139.77 221.687 139.502 221.545 139.275C221.407 139.044 221.21 138.865 220.954 138.737C220.702 138.609 220.405 138.545 220.064 138.545C219.731 138.545 219.422 138.605 219.138 138.726C218.853 138.847 218.624 139.019 218.45 139.243C218.276 139.463 218.184 139.726 218.173 140.031H216.272C216.286 139.42 216.462 138.884 216.799 138.423C217.14 137.957 217.595 137.595 218.163 137.336C218.731 137.073 219.368 136.942 220.075 136.942C220.803 136.942 221.435 137.078 221.971 137.352C222.511 137.622 222.928 137.986 223.223 138.444C223.518 138.902 223.665 139.408 223.665 139.962C223.669 140.576 223.488 141.091 223.122 141.507C222.76 141.922 222.284 142.194 221.694 142.322V142.407C222.461 142.513 223.049 142.798 223.458 143.259C223.869 143.717 224.074 144.287 224.07 144.969C224.07 145.58 223.896 146.127 223.548 146.61C223.204 147.089 222.728 147.466 222.121 147.739C221.517 148.012 220.824 148.149 220.043 148.149Z" fill="black" fill-opacity="0.2"/>
<path d="M345.32 57.4688L344.352 51.777L339.907 55.4614L345.32 57.4688ZM343.994 55.8691L344.379 55.5501L344.371 55.5403L344.363 55.531L343.994 55.8691ZM335.276 52L335.276 52.5L335.276 52.5L335.276 52ZM335.276 77L335.276 77.5H335.276L335.276 77ZM347.116 68.8282C347.205 68.5668 347.066 68.2827 346.804 68.1935C346.543 68.1043 346.259 68.2438 346.17 68.5052L347.116 68.8282ZM344.363 55.531C343.193 54.2567 341.784 53.2414 340.221 52.548L339.816 53.462C341.251 54.0989 342.548 55.0326 343.626 56.2073L344.363 55.531ZM340.221 52.548C338.659 51.8546 336.976 51.4978 335.275 51.5L335.276 52.5C336.836 52.498 338.381 52.8251 339.816 53.462L340.221 52.548ZM335.276 51.5C328.328 51.5 322.723 57.3401 322.723 64.5H323.723C323.723 57.8578 328.915 52.5 335.276 52.5V51.5ZM322.723 64.5C322.723 71.6599 328.328 77.5 335.276 77.5V76.5C328.915 76.5 323.723 71.1422 323.723 64.5H322.723ZM335.276 77.5C337.876 77.4998 340.411 76.6637 342.531 75.1093L341.94 74.3028C339.989 75.7332 337.661 76.4998 335.276 76.5L335.276 77.5ZM342.531 75.1093C344.651 73.5552 346.252 71.3601 347.116 68.8282L346.17 68.5052C345.37 70.8476 343.892 72.8723 341.94 74.3028L342.531 75.1093Z" fill="#595AB4"/>
<rect x="253" y="168" width="139" height="61" rx="10" fill="#F0F2F4"/>
<g clip-path="url(#clip0_34_8)">
<path d="M347.962 197.413C347.93 199.772 350.207 201.088 351.922 201.87C353.684 202.673 354.276 203.188 354.269 203.906C354.256 205.005 352.864 205.49 351.561 205.509C349.287 205.542 347.965 204.934 346.914 204.475L346.095 208.063C347.15 208.518 349.102 208.915 351.126 208.932C355.879 208.932 358.988 206.736 359.005 203.33C359.023 199.008 352.62 198.769 352.664 196.837C352.679 196.251 353.276 195.626 354.584 195.467C355.231 195.387 357.019 195.325 359.045 196.199L359.841 192.727C358.751 192.356 357.35 192 355.606 192C351.133 192 347.987 194.226 347.962 197.413ZM367.483 192.299C366.616 192.299 365.884 192.773 365.558 193.5L358.769 208.677H363.518L364.463 206.232H370.266L370.814 208.677H375L371.348 192.299H367.483ZM368.148 196.723L369.518 202.873H365.765L368.148 196.723ZM342.204 192.299L338.461 208.677H342.986L346.728 192.299H342.204M335.51 192.299L330.8 203.447L328.894 193.968C328.671 192.91 327.788 192.299 326.807 192.299H319.108L319 192.775C320.581 193.096 322.377 193.614 323.465 194.168C324.131 194.507 324.32 194.803 324.539 195.607L328.148 208.677H332.93L340.262 192.299L335.51 192.299Z" fill="url(#paint0_linear_34_8)"/>
</g>
<path d="M280.498 192.246H290.502V208.754H280.498V192.246Z" fill="#FF5F00"/>
<path d="M281.133 200.5C281.133 197.146 282.848 194.171 285.484 192.246C283.547 190.846 281.101 190 278.434 190C272.113 190 267 194.696 267 200.5C267 206.304 272.113 211 278.433 211C281.101 211 283.547 210.154 285.484 208.754C282.848 206.858 281.133 203.854 281.133 200.5Z" fill="#EB001B"/>
<path d="M304 200.5C304 206.304 298.887 211 292.566 211C289.899 211 287.453 210.154 285.516 208.754C288.184 206.829 289.867 203.854 289.867 200.5C289.867 197.146 288.152 194.171 285.516 192.246C287.453 190.846 289.899 190 292.566 190C298.887 190 304 194.725 304 200.5Z" fill="#F79E1B"/>
<g filter="url(#filter1_d_34_8)">
<rect x="12" y="178" width="45" height="45" rx="10" fill="#ACAEFF"/>
</g>
<path d="M28.6158 211V208.621L34.9279 202.433C35.5316 201.823 36.0347 201.282 36.4371 200.808C36.8396 200.335 37.1415 199.876 37.3427 199.432C37.5439 198.988 37.6445 198.515 37.6445 198.012C37.6445 197.438 37.5143 196.946 37.2539 196.538C36.9935 196.124 36.6354 195.804 36.1797 195.579C35.724 195.354 35.2061 195.242 34.6261 195.242C34.0283 195.242 33.5045 195.366 33.0547 195.615C32.6049 195.857 32.2557 196.204 32.0071 196.653C31.7644 197.103 31.6431 197.639 31.6431 198.26H28.5092C28.5092 197.106 28.7726 196.103 29.2994 195.251C29.8261 194.398 30.5511 193.739 31.4744 193.271C32.4036 192.803 33.469 192.57 34.6705 192.57C35.8897 192.57 36.9609 192.797 37.8842 193.253C38.8075 193.709 39.5237 194.333 40.0327 195.126C40.5476 195.92 40.805 196.825 40.805 197.843C40.805 198.524 40.6748 199.192 40.4144 199.849C40.154 200.506 39.6953 201.234 39.0384 202.033C38.3873 202.832 37.4729 203.8 36.2951 204.936L33.1612 208.124V208.248H41.0803V211H28.6158Z" fill="white"/>
<defs>
<filter id="filter0_d_34_8" x="0" y="0" width="401" height="237" filterUnits="userSpaceOnUse" color-interpolation-filters="sRGB">
<feFlood flood-opacity="0" result="BackgroundImageFix"/>
<feColorMatrix in="SourceAlpha" type="matrix" values="0 0 0 0 0 0 0 0 0 0 0 0 0 0 0 0 0 0 127 0" result="hardAlpha"/>
<feOffset dy="4"/>
<feGaussianBlur stdDeviation="15"/>
<feComposite in2="hardAlpha" operator="out"/>
<feColorMatrix type="matrix" values="0 0 0 0 0 0 0 0 0 0 0 0 0 0 0 0 0 0 0.1 0"/>
<feBlend mode="normal" in2="BackgroundImageFix" result="effect1_dropShadow_34_8"/>
<feBlend mode="normal" in="SourceGraphic" in2="effect1_dropShadow_34_8" result="shape"/>
</filter>
<filter id="filter1_d_34_8" x="6" y="167" width="51" height="56" filterUnits="userSpaceOnUse" color-interpolation-filters="sRGB">
<feFlood flood-opacity="0" result="BackgroundImageFix"/>
<feColorMatrix in="SourceAlpha" type="matrix" values="0 0 0 0 0 0 0 0 0 0 0 0 0 0 0 0 0 0 127 0" result="hardAlpha"/>
<feMorphology radius="5" operator="erode" in="SourceAlpha" result="effect1_dropShadow_34_8"/>
<feOffset dx="-10" dy="-15"/>
<feGaussianBlur stdDeviation="0.5"/>
<feComposite in2="hardAlpha" operator="out"/>
<feColorMatrix type="matrix" values="0 0 0 0 1 0 0 0 0 0.945098 0 0 0 0 0.831373 0 0 0 1 0"/>
<feBlend mode="normal" in2="BackgroundImageFix" result="effect1_dropShadow_34_8"/>
<feBlend mode="normal" in="SourceGraphic" in2="effect1_dropShadow_34_8" result="shape"/>
</filter>
<linearGradient id="paint0_linear_34_8" x1="2893.54" y1="242.898" x2="2939.44" y2="-1496.21" gradientUnits="userSpaceOnUse">
<stop stop-color="#222357"/>
<stop offset="1" stop-color="#254AA5"/>
</linearGradient>
<clipPath id="clip0_34_8">
<rect width="56" height="17" fill="white" transform="translate(319 192)"/>
</clipPath>
</defs>
</svg>
