<svg width="296" height="202" viewBox="0 0 296 202" fill="none" xmlns="http://www.w3.org/2000/svg">
<g filter="url(#filter0_d_26_9)">
<rect x="30" y="26" width="236" height="142" rx="15" fill="white"/>
</g>
<rect x="46" y="42" width="204" height="39" rx="5" fill="#F0F2F4"/>
<path d="M58.6818 67.1932C58.1288 67.1932 57.6288 67.0909 57.1818 66.8864C56.7348 66.678 56.3807 66.3769 56.1193 65.983C55.8617 65.589 55.733 65.1061 55.733 64.5341C55.733 64.0417 55.8277 63.6364 56.017 63.3182C56.2064 63 56.4621 62.7481 56.7841 62.5625C57.1061 62.3769 57.4659 62.2367 57.8636 62.142C58.2614 62.0473 58.6667 61.9754 59.0795 61.9261C59.6023 61.8655 60.0265 61.8163 60.3523 61.7784C60.678 61.7367 60.9148 61.6705 61.0625 61.5795C61.2102 61.4886 61.2841 61.3409 61.2841 61.1364V61.0966C61.2841 60.6004 61.1439 60.2159 60.8636 59.9432C60.5871 59.6705 60.1742 59.5341 59.625 59.5341C59.053 59.5341 58.6023 59.661 58.2727 59.9148C57.947 60.1648 57.7216 60.4432 57.5966 60.75L56 60.3864C56.1894 59.8561 56.4659 59.428 56.8295 59.1023C57.197 58.7727 57.6193 58.5341 58.0966 58.3864C58.5739 58.2348 59.0758 58.1591 59.6023 58.1591C59.9508 58.1591 60.3201 58.2008 60.7102 58.2841C61.1042 58.3636 61.4716 58.5114 61.8125 58.7273C62.1572 58.9432 62.4394 59.2519 62.6591 59.6534C62.8788 60.0511 62.9886 60.5682 62.9886 61.2045V67H61.3295V65.8068H61.2614C61.1515 66.0265 60.9867 66.2424 60.767 66.4545C60.5473 66.6667 60.2652 66.8428 59.9205 66.983C59.5758 67.1231 59.1629 67.1932 58.6818 67.1932ZM59.0511 65.8295C59.5208 65.8295 59.9223 65.7367 60.2557 65.5511C60.5928 65.3655 60.8485 65.1231 61.0227 64.8239C61.2008 64.5208 61.2898 64.197 61.2898 63.8523V62.7273C61.2292 62.7879 61.1117 62.8447 60.9375 62.8977C60.767 62.947 60.572 62.9905 60.3523 63.0284C60.1326 63.0625 59.9186 63.0947 59.7102 63.125C59.5019 63.1515 59.3277 63.1742 59.1875 63.1932C58.858 63.2348 58.5568 63.3049 58.2841 63.4034C58.0152 63.5019 57.7992 63.6439 57.6364 63.8295C57.4773 64.0114 57.3977 64.2538 57.3977 64.5568C57.3977 64.9773 57.553 65.2955 57.8636 65.5114C58.1742 65.7235 58.5701 65.8295 59.0511 65.8295ZM65.3878 67V55.3636H67.0866V59.6875H67.1889C67.2874 59.5057 67.4295 59.2955 67.6151 59.0568C67.8007 58.8182 68.0582 58.6098 68.3878 58.4318C68.7173 58.25 69.1529 58.1591 69.6946 58.1591C70.3991 58.1591 71.0279 58.3371 71.581 58.6932C72.134 59.0492 72.5677 59.5625 72.8821 60.233C73.2003 60.9034 73.3594 61.7102 73.3594 62.6534C73.3594 63.5966 73.2022 64.4053 72.8878 65.0795C72.5734 65.75 72.1416 66.267 71.5923 66.6307C71.0431 66.9905 70.4162 67.1705 69.7116 67.1705C69.1813 67.1705 68.7476 67.0814 68.4105 66.9034C68.0772 66.7254 67.8158 66.517 67.6264 66.2784C67.437 66.0398 67.2912 65.8277 67.1889 65.642H67.0469V67H65.3878ZM67.0526 62.6364C67.0526 63.25 67.1416 63.7879 67.3196 64.25C67.4976 64.7121 67.7552 65.0739 68.0923 65.3352C68.4295 65.5928 68.8423 65.7216 69.331 65.7216C69.8385 65.7216 70.2628 65.5871 70.6037 65.3182C70.9446 65.0455 71.2022 64.6761 71.3764 64.2102C71.5545 63.7443 71.6435 63.2197 71.6435 62.6364C71.6435 62.0606 71.5563 61.5436 71.3821 61.0852C71.2116 60.6269 70.9541 60.2652 70.6094 60C70.2685 59.7348 69.8423 59.6023 69.331 59.6023C68.8385 59.6023 68.4219 59.7292 68.081 59.983C67.7438 60.2367 67.4882 60.5909 67.3139 61.0455C67.1397 61.5 67.0526 62.0303 67.0526 62.6364ZM78.9432 67.1761C78.0985 67.1761 77.3712 66.9848 76.7614 66.6023C76.1553 66.2159 75.6894 65.6837 75.3636 65.0057C75.0379 64.3277 74.875 63.5511 74.875 62.6761C74.875 61.7898 75.0417 61.0076 75.375 60.3295C75.7083 59.6477 76.178 59.1155 76.7841 58.733C77.3902 58.3504 78.1042 58.1591 78.9261 58.1591C79.589 58.1591 80.1799 58.2822 80.6989 58.5284C81.2178 58.7708 81.6364 59.1117 81.9545 59.5511C82.2765 59.9905 82.4678 60.5038 82.5284 61.0909H80.875C80.7841 60.6818 80.5758 60.3295 80.25 60.0341C79.928 59.7386 79.4962 59.5909 78.9545 59.5909C78.4811 59.5909 78.0663 59.7159 77.7102 59.9659C77.358 60.2121 77.0833 60.5644 76.8864 61.0227C76.6894 61.4773 76.5909 62.0152 76.5909 62.6364C76.5909 63.2727 76.6875 63.822 76.8807 64.2841C77.0739 64.7462 77.3466 65.1042 77.6989 65.358C78.0549 65.6117 78.4735 65.7386 78.9545 65.7386C79.2765 65.7386 79.5682 65.6799 79.8295 65.5625C80.0947 65.4413 80.3163 65.2689 80.4943 65.0455C80.6761 64.822 80.803 64.553 80.875 64.2386H82.5284C82.4678 64.803 82.2841 65.3068 81.9773 65.75C81.6705 66.1932 81.2595 66.5417 80.7443 66.7955C80.233 67.0492 79.6326 67.1761 78.9432 67.1761ZM86.8849 67.1932C86.3319 67.1932 85.8319 67.0909 85.3849 66.8864C84.938 66.678 84.5838 66.3769 84.3224 65.983C84.0649 65.589 83.9361 65.1061 83.9361 64.5341C83.9361 64.0417 84.0308 63.6364 84.2202 63.3182C84.4096 63 84.6652 62.7481 84.9872 62.5625C85.3092 62.3769 85.669 62.2367 86.0668 62.142C86.4645 62.0473 86.8698 61.9754 87.2827 61.9261C87.8054 61.8655 88.2296 61.8163 88.5554 61.7784C88.8812 61.7367 89.1179 61.6705 89.2656 61.5795C89.4134 61.4886 89.4872 61.3409 89.4872 61.1364V61.0966C89.4872 60.6004 89.3471 60.2159 89.0668 59.9432C88.7902 59.6705 88.3774 59.5341 87.8281 59.5341C87.2562 59.5341 86.8054 59.661 86.4759 59.9148C86.1501 60.1648 85.9247 60.4432 85.7997 60.75L84.2031 60.3864C84.3925 59.8561 84.669 59.428 85.0327 59.1023C85.4001 58.7727 85.8224 58.5341 86.2997 58.3864C86.777 58.2348 87.2789 58.1591 87.8054 58.1591C88.1539 58.1591 88.5232 58.2008 88.9134 58.2841C89.3073 58.3636 89.6747 58.5114 90.0156 58.7273C90.3603 58.9432 90.6425 59.2519 90.8622 59.6534C91.0819 60.0511 91.1918 60.5682 91.1918 61.2045V67H89.5327V65.8068H89.4645C89.3546 66.0265 89.1899 66.2424 88.9702 66.4545C88.7505 66.6667 88.4683 66.8428 88.1236 66.983C87.7789 67.1231 87.366 67.1932 86.8849 67.1932ZM87.2543 65.8295C87.724 65.8295 88.1255 65.7367 88.4588 65.5511C88.7959 65.3655 89.0516 65.1231 89.2259 64.8239C89.4039 64.5208 89.4929 64.197 89.4929 63.8523V62.7273C89.4323 62.7879 89.3149 62.8447 89.1406 62.8977C88.9702 62.947 88.7751 62.9905 88.5554 63.0284C88.3357 63.0625 88.1217 63.0947 87.9134 63.125C87.705 63.1515 87.5308 63.1742 87.3906 63.1932C87.0611 63.2348 86.7599 63.3049 86.4872 63.4034C86.2183 63.5019 86.0024 63.6439 85.8395 63.8295C85.6804 64.0114 85.6009 64.2538 85.6009 64.5568C85.6009 64.9773 85.7562 65.2955 86.0668 65.5114C86.3774 65.7235 86.7732 65.8295 87.2543 65.8295ZM95.1534 55.3636V67H93.4545V55.3636H95.1534ZM99.9787 67.1932C99.4257 67.1932 98.9257 67.0909 98.4787 66.8864C98.0317 66.678 97.6776 66.3769 97.4162 65.983C97.1586 65.589 97.0298 65.1061 97.0298 64.5341C97.0298 64.0417 97.1245 63.6364 97.3139 63.3182C97.5033 63 97.759 62.7481 98.081 62.5625C98.4029 62.3769 98.7628 62.2367 99.1605 62.142C99.5582 62.0473 99.9635 61.9754 100.376 61.9261C100.899 61.8655 101.323 61.8163 101.649 61.7784C101.975 61.7367 102.212 61.6705 102.359 61.5795C102.507 61.4886 102.581 61.3409 102.581 61.1364V61.0966C102.581 60.6004 102.441 60.2159 102.161 59.9432C101.884 59.6705 101.471 59.5341 100.922 59.5341C100.35 59.5341 99.8991 59.661 99.5696 59.9148C99.2438 60.1648 99.0185 60.4432 98.8935 60.75L97.2969 60.3864C97.4863 59.8561 97.7628 59.428 98.1264 59.1023C98.4938 58.7727 98.9162 58.5341 99.3935 58.3864C99.8707 58.2348 100.373 58.1591 100.899 58.1591C101.248 58.1591 101.617 58.2008 102.007 58.2841C102.401 58.3636 102.768 58.5114 103.109 58.7273C103.454 58.9432 103.736 59.2519 103.956 59.6534C104.176 60.0511 104.286 60.5682 104.286 61.2045V67H102.626V65.8068H102.558C102.448 66.0265 102.284 66.2424 102.064 66.4545C101.844 66.6667 101.562 66.8428 101.217 66.983C100.873 67.1231 100.46 67.1932 99.9787 67.1932ZM100.348 65.8295C100.818 65.8295 101.219 65.7367 101.553 65.5511C101.89 65.3655 102.145 65.1231 102.32 64.8239C102.498 64.5208 102.587 64.197 102.587 63.8523V62.7273C102.526 62.7879 102.409 62.8447 102.234 62.8977C102.064 62.947 101.869 62.9905 101.649 63.0284C101.429 63.0625 101.215 63.0947 101.007 63.125C100.799 63.1515 100.625 63.1742 100.484 63.1932C100.155 63.2348 99.8537 63.3049 99.581 63.4034C99.312 63.5019 99.0961 63.6439 98.9332 63.8295C98.7741 64.0114 98.6946 64.2538 98.6946 64.5568C98.6946 64.9773 98.8499 65.2955 99.1605 65.5114C99.4711 65.7235 99.867 65.8295 100.348 65.8295ZM106.685 67V55.3636H108.384V59.6875H108.486C108.584 59.5057 108.726 59.2955 108.912 59.0568C109.098 58.8182 109.355 58.6098 109.685 58.4318C110.014 58.25 110.45 58.1591 110.991 58.1591C111.696 58.1591 112.325 58.3371 112.878 58.6932C113.431 59.0492 113.865 59.5625 114.179 60.233C114.497 60.9034 114.656 61.7102 114.656 62.6534C114.656 63.5966 114.499 64.4053 114.185 65.0795C113.87 65.75 113.438 66.267 112.889 66.6307C112.34 66.9905 111.713 67.1705 111.009 67.1705C110.478 67.1705 110.045 67.0814 109.707 66.9034C109.374 66.7254 109.113 66.517 108.923 66.2784C108.734 66.0398 108.588 65.8277 108.486 65.642H108.344V67H106.685ZM108.349 62.6364C108.349 63.25 108.438 63.7879 108.616 64.25C108.795 64.7121 109.052 65.0739 109.389 65.3352C109.726 65.5928 110.139 65.7216 110.628 65.7216C111.135 65.7216 111.56 65.5871 111.901 65.3182C112.241 65.0455 112.499 64.6761 112.673 64.2102C112.851 63.7443 112.94 63.2197 112.94 62.6364C112.94 62.0606 112.853 61.5436 112.679 61.0852C112.509 60.6269 112.251 60.2652 111.906 60C111.565 59.7348 111.139 59.6023 110.628 59.6023C110.135 59.6023 109.719 59.7292 109.378 59.983C109.041 60.2367 108.785 60.5909 108.611 61.0455C108.437 61.5 108.349 62.0303 108.349 62.6364ZM119.104 67.1932C118.551 67.1932 118.051 67.0909 117.604 66.8864C117.157 66.678 116.803 66.3769 116.541 65.983C116.284 65.589 116.155 65.1061 116.155 64.5341C116.155 64.0417 116.25 63.6364 116.439 63.3182C116.628 63 116.884 62.7481 117.206 62.5625C117.528 62.3769 117.888 62.2367 118.286 62.142C118.683 62.0473 119.089 61.9754 119.501 61.9261C120.024 61.8655 120.448 61.8163 120.774 61.7784C121.1 61.7367 121.337 61.6705 121.484 61.5795C121.632 61.4886 121.706 61.3409 121.706 61.1364V61.0966C121.706 60.6004 121.566 60.2159 121.286 59.9432C121.009 59.6705 120.596 59.5341 120.047 59.5341C119.475 59.5341 119.024 59.661 118.695 59.9148C118.369 60.1648 118.143 60.4432 118.018 60.75L116.422 60.3864C116.611 59.8561 116.888 59.428 117.251 59.1023C117.619 58.7727 118.041 58.5341 118.518 58.3864C118.996 58.2348 119.498 58.1591 120.024 58.1591C120.373 58.1591 120.742 58.2008 121.132 58.2841C121.526 58.3636 121.893 58.5114 122.234 58.7273C122.579 58.9432 122.861 59.2519 123.081 59.6534C123.301 60.0511 123.411 60.5682 123.411 61.2045V67H121.751V65.8068H121.683C121.573 66.0265 121.409 66.2424 121.189 66.4545C120.969 66.6667 120.687 66.8428 120.342 66.983C119.998 67.1231 119.585 67.1932 119.104 67.1932ZM119.473 65.8295C119.943 65.8295 120.344 65.7367 120.678 65.5511C121.015 65.3655 121.27 65.1231 121.445 64.8239C121.623 64.5208 121.712 64.197 121.712 63.8523V62.7273C121.651 62.7879 121.534 62.8447 121.359 62.8977C121.189 62.947 120.994 62.9905 120.774 63.0284C120.554 63.0625 120.34 63.0947 120.132 63.125C119.924 63.1515 119.75 63.1742 119.609 63.1932C119.28 63.2348 118.979 63.3049 118.706 63.4034C118.437 63.5019 118.221 63.6439 118.058 63.8295C117.899 64.0114 117.82 64.2538 117.82 64.5568C117.82 64.9773 117.975 65.2955 118.286 65.5114C118.596 65.7235 118.992 65.8295 119.473 65.8295ZM125.673 67V58.2727H127.304V59.6932H127.412C127.594 59.2121 127.891 58.8371 128.304 58.5682C128.717 58.2955 129.211 58.1591 129.787 58.1591C130.37 58.1591 130.859 58.2955 131.253 58.5682C131.651 58.8409 131.944 59.2159 132.134 59.6932H132.224C132.433 59.2273 132.764 58.8561 133.219 58.5795C133.673 58.2992 134.215 58.1591 134.844 58.1591C135.635 58.1591 136.281 58.4072 136.781 58.9034C137.285 59.3996 137.537 60.1477 137.537 61.1477V67H135.838V61.3068C135.838 60.7159 135.677 60.2879 135.355 60.0227C135.033 59.7576 134.649 59.625 134.202 59.625C133.649 59.625 133.219 59.7955 132.912 60.1364C132.605 60.4735 132.452 60.9072 132.452 61.4375V67H130.759V61.1989C130.759 60.7254 130.611 60.3447 130.315 60.0568C130.02 59.7689 129.635 59.625 129.162 59.625C128.84 59.625 128.543 59.7102 128.27 59.8807C128.001 60.0473 127.783 60.2803 127.616 60.5795C127.454 60.8788 127.372 61.2254 127.372 61.6193V67H125.673ZM142.354 67.1932C141.801 67.1932 141.301 67.0909 140.854 66.8864C140.407 66.678 140.053 66.3769 139.791 65.983C139.534 65.589 139.405 65.1061 139.405 64.5341C139.405 64.0417 139.5 63.6364 139.689 63.3182C139.878 63 140.134 62.7481 140.456 62.5625C140.778 62.3769 141.138 62.2367 141.536 62.142C141.933 62.0473 142.339 61.9754 142.751 61.9261C143.274 61.8655 143.698 61.8163 144.024 61.7784C144.35 61.7367 144.587 61.6705 144.734 61.5795C144.882 61.4886 144.956 61.3409 144.956 61.1364V61.0966C144.956 60.6004 144.816 60.2159 144.536 59.9432C144.259 59.6705 143.846 59.5341 143.297 59.5341C142.725 59.5341 142.274 59.661 141.945 59.9148C141.619 60.1648 141.393 60.4432 141.268 60.75L139.672 60.3864C139.861 59.8561 140.138 59.428 140.501 59.1023C140.869 58.7727 141.291 58.5341 141.768 58.3864C142.246 58.2348 142.748 58.1591 143.274 58.1591C143.623 58.1591 143.992 58.2008 144.382 58.2841C144.776 58.3636 145.143 58.5114 145.484 58.7273C145.829 58.9432 146.111 59.2519 146.331 59.6534C146.551 60.0511 146.661 60.5682 146.661 61.2045V67H145.001V65.8068H144.933C144.823 66.0265 144.659 66.2424 144.439 66.4545C144.219 66.6667 143.937 66.8428 143.592 66.983C143.248 67.1231 142.835 67.1932 142.354 67.1932ZM142.723 65.8295C143.193 65.8295 143.594 65.7367 143.928 65.5511C144.265 65.3655 144.52 65.1231 144.695 64.8239C144.873 64.5208 144.962 64.197 144.962 63.8523V62.7273C144.901 62.7879 144.784 62.8447 144.609 62.8977C144.439 62.947 144.244 62.9905 144.024 63.0284C143.804 63.0625 143.59 63.0947 143.382 63.125C143.174 63.1515 143 63.1742 142.859 63.1932C142.53 63.2348 142.229 63.3049 141.956 63.4034C141.687 63.5019 141.471 63.6439 141.308 63.8295C141.149 64.0114 141.07 64.2538 141.07 64.5568C141.07 64.9773 141.225 65.2955 141.536 65.5114C141.846 65.7235 142.242 65.8295 142.723 65.8295ZM155.929 70.1648C154.755 70.1648 153.713 70.0038 152.804 69.6818C151.899 69.3636 151.135 68.8939 150.514 68.2727C149.893 67.6553 149.421 66.8977 149.099 66C148.777 65.1023 148.616 64.0777 148.616 62.9261C148.616 61.8049 148.779 60.7973 149.105 59.9034C149.431 59.0095 149.904 58.2481 150.526 57.6193C151.151 56.9867 151.91 56.5038 152.804 56.1705C153.698 55.8371 154.713 55.6705 155.849 55.6705C156.937 55.6705 157.895 55.8409 158.724 56.1818C159.554 56.5227 160.251 56.9905 160.815 57.5852C161.384 58.1799 161.812 58.8617 162.099 59.6307C162.387 60.3996 162.531 61.2121 162.531 62.0682C162.531 62.6667 162.493 63.2519 162.418 63.8239C162.342 64.392 162.202 64.9072 161.997 65.3693C161.796 65.8277 161.505 66.1951 161.122 66.4716C160.743 66.7443 160.251 66.8864 159.645 66.8977C159.323 66.9091 159.01 66.8712 158.707 66.7841C158.404 66.697 158.147 66.5568 157.935 66.3636C157.723 66.1667 157.594 65.9167 157.548 65.6136H157.48C157.389 65.8371 157.238 66.0455 157.026 66.2386C156.813 66.428 156.543 66.5795 156.213 66.6932C155.887 66.803 155.509 66.8485 155.077 66.8295C154.599 66.8106 154.17 66.7027 153.787 66.5057C153.404 66.3087 153.077 66.036 152.804 65.6875C152.535 65.339 152.329 64.9261 152.185 64.4489C152.041 63.9716 151.969 63.4413 151.969 62.858C151.969 62.2973 152.05 61.7955 152.213 61.3523C152.376 60.9053 152.598 60.5208 152.878 60.1989C153.162 59.8731 153.488 59.6155 153.855 59.4261C154.223 59.2367 154.611 59.1174 155.02 59.0682C155.418 59.0227 155.783 59.0341 156.116 59.1023C156.45 59.1705 156.726 59.2746 156.946 59.4148C157.17 59.5549 157.31 59.7083 157.366 59.875H157.44V59.2386H158.838V64.5114C158.838 64.8106 158.916 65.0644 159.071 65.2727C159.23 65.4811 159.455 65.5852 159.747 65.5852C160.092 65.5852 160.361 65.4583 160.554 65.2045C160.751 64.9508 160.889 64.5606 160.969 64.0341C161.052 63.5076 161.094 62.8333 161.094 62.0114C161.094 61.4356 161.016 60.8939 160.861 60.3864C160.709 59.875 160.484 59.4129 160.185 59C159.889 58.5833 159.526 58.2254 159.094 57.9261C158.662 57.6269 158.17 57.3958 157.616 57.233C157.067 57.0701 156.459 56.9886 155.793 56.9886C154.887 56.9886 154.082 57.1288 153.378 57.4091C152.673 57.6856 152.079 58.0852 151.594 58.608C151.113 59.1307 150.747 59.7576 150.497 60.4886C150.251 61.2159 150.128 62.0322 150.128 62.9375C150.128 63.8807 150.255 64.7178 150.509 65.4489C150.762 66.1761 151.137 66.7898 151.634 67.2898C152.13 67.7898 152.743 68.1686 153.474 68.4261C154.205 68.6875 155.048 68.8182 156.003 68.8182C156.427 68.8182 156.844 68.7803 157.253 68.7045C157.662 68.6326 158.026 68.5492 158.344 68.4545C158.666 68.3636 158.906 68.2898 159.065 68.233L159.463 69.4773C159.228 69.5871 158.916 69.6951 158.526 69.8011C158.139 69.9072 157.719 69.9943 157.264 70.0625C156.813 70.1307 156.368 70.1648 155.929 70.1648ZM155.406 65.4375C155.899 65.4375 156.295 65.339 156.594 65.142C156.897 64.9451 157.115 64.6515 157.247 64.2614C157.384 63.8674 157.452 63.375 157.452 62.7841C157.448 62.2083 157.374 61.75 157.23 61.4091C157.09 61.0644 156.87 60.8182 156.571 60.6705C156.276 60.5189 155.895 60.4432 155.429 60.4432C155.001 60.4432 154.635 60.5473 154.332 60.7557C154.033 60.964 153.804 61.2462 153.645 61.6023C153.49 61.9583 153.41 62.3542 153.406 62.7898C153.41 63.2481 153.474 63.6799 153.599 64.0852C153.728 64.4867 153.937 64.8125 154.224 65.0625C154.516 65.3125 154.91 65.4375 155.406 65.4375ZM168.067 70.4545C167.374 70.4545 166.777 70.3636 166.277 70.1818C165.781 70 165.375 69.7595 165.061 69.4602C164.747 69.161 164.512 68.8333 164.357 68.4773L165.817 67.875C165.919 68.0417 166.055 68.2178 166.226 68.4034C166.4 68.5928 166.635 68.7538 166.93 68.8864C167.23 69.0189 167.614 69.0852 168.084 69.0852C168.728 69.0852 169.26 68.928 169.68 68.6136C170.101 68.303 170.311 67.8068 170.311 67.125V65.4091H170.203C170.101 65.5947 169.953 65.8011 169.76 66.0284C169.571 66.2557 169.309 66.4527 168.976 66.6193C168.643 66.786 168.209 66.8693 167.675 66.8693C166.985 66.8693 166.364 66.7083 165.811 66.3864C165.262 66.0606 164.826 65.5814 164.504 64.9489C164.186 64.3125 164.027 63.5303 164.027 62.6023C164.027 61.6742 164.184 60.8788 164.499 60.2159C164.817 59.553 165.252 59.0455 165.805 58.6932C166.358 58.3371 166.985 58.1591 167.686 58.1591C168.228 58.1591 168.665 58.25 168.999 58.4318C169.332 58.6098 169.591 58.8182 169.777 59.0568C169.966 59.2955 170.112 59.5057 170.214 59.6875H170.339V58.2727H172.004V67.1932C172.004 67.9432 171.83 68.5587 171.482 69.0398C171.133 69.5208 170.661 69.8769 170.067 70.108C169.476 70.339 168.809 70.4545 168.067 70.4545ZM168.05 65.4602C168.538 65.4602 168.951 65.3466 169.288 65.1193C169.629 64.8883 169.887 64.5587 170.061 64.1307C170.239 63.6989 170.328 63.1818 170.328 62.5795C170.328 61.9924 170.241 61.4754 170.067 61.0284C169.893 60.5814 169.637 60.233 169.3 59.983C168.963 59.7292 168.546 59.6023 168.05 59.6023C167.538 59.6023 167.112 59.7348 166.771 60C166.43 60.2614 166.173 60.6174 165.999 61.0682C165.828 61.5189 165.743 62.0227 165.743 62.5795C165.743 63.1515 165.83 63.6534 166.004 64.0852C166.179 64.517 166.436 64.8542 166.777 65.0966C167.122 65.339 167.546 65.4602 168.05 65.4602ZM174.283 67V58.2727H175.913V59.6932H176.021C176.203 59.2121 176.5 58.8371 176.913 58.5682C177.326 58.2955 177.821 58.1591 178.396 58.1591C178.98 58.1591 179.468 58.2955 179.862 58.5682C180.26 58.8409 180.554 59.2159 180.743 59.6932H180.834C181.042 59.2273 181.374 58.8561 181.828 58.5795C182.283 58.2992 182.824 58.1591 183.453 58.1591C184.245 58.1591 184.891 58.4072 185.391 58.9034C185.894 59.3996 186.146 60.1477 186.146 61.1477V67H184.447V61.3068C184.447 60.7159 184.286 60.2879 183.964 60.0227C183.643 59.7576 183.258 59.625 182.811 59.625C182.258 59.625 181.828 59.7955 181.521 60.1364C181.214 60.4735 181.061 60.9072 181.061 61.4375V67H179.368V61.1989C179.368 60.7254 179.22 60.3447 178.925 60.0568C178.629 59.7689 178.245 59.625 177.771 59.625C177.449 59.625 177.152 59.7102 176.879 59.8807C176.61 60.0473 176.393 60.2803 176.226 60.5795C176.063 60.8788 175.982 61.2254 175.982 61.6193V67H174.283ZM190.963 67.1932C190.41 67.1932 189.91 67.0909 189.463 66.8864C189.016 66.678 188.662 66.3769 188.401 65.983C188.143 65.589 188.014 65.1061 188.014 64.5341C188.014 64.0417 188.109 63.6364 188.298 63.3182C188.488 63 188.743 62.7481 189.065 62.5625C189.387 62.3769 189.747 62.2367 190.145 62.142C190.543 62.0473 190.948 61.9754 191.361 61.9261C191.884 61.8655 192.308 61.8163 192.634 61.7784C192.959 61.7367 193.196 61.6705 193.344 61.5795C193.491 61.4886 193.565 61.3409 193.565 61.1364V61.0966C193.565 60.6004 193.425 60.2159 193.145 59.9432C192.868 59.6705 192.455 59.5341 191.906 59.5341C191.334 59.5341 190.884 59.661 190.554 59.9148C190.228 60.1648 190.003 60.4432 189.878 60.75L188.281 60.3864C188.471 59.8561 188.747 59.428 189.111 59.1023C189.478 58.7727 189.901 58.5341 190.378 58.3864C190.855 58.2348 191.357 58.1591 191.884 58.1591C192.232 58.1591 192.601 58.2008 192.991 58.2841C193.385 58.3636 193.753 58.5114 194.094 58.7273C194.438 58.9432 194.721 59.2519 194.94 59.6534C195.16 60.0511 195.27 60.5682 195.27 61.2045V67H193.611V65.8068H193.543C193.433 66.0265 193.268 66.2424 193.048 66.4545C192.829 66.6667 192.546 66.8428 192.202 66.983C191.857 67.1231 191.444 67.1932 190.963 67.1932ZM191.332 65.8295C191.802 65.8295 192.204 65.7367 192.537 65.5511C192.874 65.3655 193.13 65.1231 193.304 64.8239C193.482 64.5208 193.571 64.197 193.571 63.8523V62.7273C193.51 62.7879 193.393 62.8447 193.219 62.8977C193.048 62.947 192.853 62.9905 192.634 63.0284C192.414 63.0625 192.2 63.0947 191.991 63.125C191.783 63.1515 191.609 63.1742 191.469 63.1932C191.139 63.2348 190.838 63.3049 190.565 63.4034C190.296 63.5019 190.08 63.6439 189.918 63.8295C189.759 64.0114 189.679 64.2538 189.679 64.5568C189.679 64.9773 189.834 65.2955 190.145 65.5114C190.455 65.7235 190.851 65.8295 191.332 65.8295ZM197.533 67V58.2727H199.232V67H197.533ZM198.391 56.9261C198.095 56.9261 197.841 56.8277 197.629 56.6307C197.421 56.4299 197.317 56.1913 197.317 55.9148C197.317 55.6345 197.421 55.3958 197.629 55.1989C197.841 54.9981 198.095 54.8977 198.391 54.8977C198.686 54.8977 198.938 54.9981 199.146 55.1989C199.358 55.3958 199.464 55.6345 199.464 55.9148C199.464 56.1913 199.358 56.4299 199.146 56.6307C198.938 56.8277 198.686 56.9261 198.391 56.9261ZM203.216 55.3636V67H201.517V55.3636H203.216ZM206.621 67.108C206.31 67.108 206.043 66.9981 205.82 66.7784C205.596 66.5549 205.484 66.286 205.484 65.9716C205.484 65.661 205.596 65.3958 205.82 65.1761C206.043 64.9527 206.31 64.8409 206.621 64.8409C206.931 64.8409 207.198 64.9527 207.422 65.1761C207.645 65.3958 207.757 65.661 207.757 65.9716C207.757 66.1799 207.704 66.3712 207.598 66.5455C207.496 66.7159 207.359 66.8523 207.189 66.9545C207.018 67.0568 206.829 67.108 206.621 67.108ZM213.709 67.1761C212.864 67.1761 212.137 66.9848 211.527 66.6023C210.921 66.2159 210.455 65.6837 210.129 65.0057C209.804 64.3277 209.641 63.5511 209.641 62.6761C209.641 61.7898 209.807 61.0076 210.141 60.3295C210.474 59.6477 210.944 59.1155 211.55 58.733C212.156 58.3504 212.87 58.1591 213.692 58.1591C214.355 58.1591 214.946 58.2822 215.464 58.5284C215.983 58.7708 216.402 59.1117 216.72 59.5511C217.042 59.9905 217.233 60.5038 217.294 61.0909H215.641C215.55 60.6818 215.341 60.3295 215.016 60.0341C214.694 59.7386 214.262 59.5909 213.72 59.5909C213.247 59.5909 212.832 59.7159 212.476 59.9659C212.124 60.2121 211.849 60.5644 211.652 61.0227C211.455 61.4773 211.357 62.0152 211.357 62.6364C211.357 63.2727 211.453 63.822 211.646 64.2841C211.839 64.7462 212.112 65.1042 212.464 65.358C212.821 65.6117 213.239 65.7386 213.72 65.7386C214.042 65.7386 214.334 65.6799 214.595 65.5625C214.86 65.4413 215.082 65.2689 215.26 65.0455C215.442 64.822 215.569 64.553 215.641 64.2386H217.294C217.233 64.803 217.05 65.3068 216.743 65.75C216.436 66.1932 216.025 66.5417 215.51 66.7955C214.999 67.0492 214.398 67.1761 213.709 67.1761ZM222.787 67.1761C221.969 67.1761 221.255 66.9886 220.645 66.6136C220.035 66.2386 219.562 65.714 219.224 65.0398C218.887 64.3655 218.719 63.5777 218.719 62.6761C218.719 61.7708 218.887 60.9792 219.224 60.3011C219.562 59.6231 220.035 59.0966 220.645 58.7216C221.255 58.3466 221.969 58.1591 222.787 58.1591C223.605 58.1591 224.319 58.3466 224.929 58.7216C225.539 59.0966 226.012 59.6231 226.349 60.3011C226.687 60.9792 226.855 61.7708 226.855 62.6761C226.855 63.5777 226.687 64.3655 226.349 65.0398C226.012 65.714 225.539 66.2386 224.929 66.6136C224.319 66.9886 223.605 67.1761 222.787 67.1761ZM222.793 65.75C223.323 65.75 223.762 65.6098 224.111 65.3295C224.459 65.0492 224.717 64.6761 224.884 64.2102C225.054 63.7443 225.139 63.2311 225.139 62.6705C225.139 62.1136 225.054 61.6023 224.884 61.1364C224.717 60.6667 224.459 60.2898 224.111 60.0057C223.762 59.7216 223.323 59.5795 222.793 59.5795C222.259 59.5795 221.815 59.7216 221.463 60.0057C221.115 60.2898 220.855 60.6667 220.685 61.1364C220.518 61.6023 220.435 62.1136 220.435 62.6705C220.435 63.2311 220.518 63.7443 220.685 64.2102C220.855 64.6761 221.115 65.0492 221.463 65.3295C221.815 65.6098 222.259 65.75 222.793 65.75ZM228.751 67V58.2727H230.382V59.6932H230.49C230.672 59.2121 230.969 58.8371 231.382 58.5682C231.795 58.2955 232.289 58.1591 232.865 58.1591C233.448 58.1591 233.937 58.2955 234.331 58.5682C234.729 58.8409 235.022 59.2159 235.212 59.6932H235.303C235.511 59.2273 235.842 58.8561 236.297 58.5795C236.751 58.2992 237.293 58.1591 237.922 58.1591C238.714 58.1591 239.359 58.4072 239.859 58.9034C240.363 59.3996 240.615 60.1477 240.615 61.1477V67H238.916V61.3068C238.916 60.7159 238.755 60.2879 238.433 60.0227C238.111 59.7576 237.727 59.625 237.28 59.625C236.727 59.625 236.297 59.7955 235.99 60.1364C235.683 60.4735 235.53 60.9072 235.53 61.4375V67H233.837V61.1989C233.837 60.7254 233.689 60.3447 233.393 60.0568C233.098 59.7689 232.714 59.625 232.24 59.625C231.918 59.625 231.621 59.7102 231.348 59.8807C231.079 60.0473 230.861 60.2803 230.695 60.5795C230.532 60.8788 230.45 61.2254 230.45 61.6193V67H228.751Z" fill="black"/>
<rect x="46" y="94" width="204" height="39" rx="5" fill="#F0F2F4"/>
<path d="M56.5455 119V107.364H63.2955V108.318H57.608V112.699H62.9375V113.653H57.608V118.045H63.4091V119H56.5455ZM66.8466 113.545V119H65.8352V110.273H66.8182V111.642H66.9091C67.1136 111.195 67.4318 110.837 67.8636 110.568C68.2992 110.295 68.8371 110.159 69.4773 110.159C70.0644 110.159 70.5795 110.282 71.0227 110.528C71.4697 110.771 71.8163 111.129 72.0625 111.602C72.3125 112.076 72.4375 112.657 72.4375 113.347V119H71.4261V113.409C71.4261 112.693 71.2254 112.127 70.8239 111.71C70.4261 111.294 69.892 111.085 69.2216 111.085C68.7633 111.085 68.3561 111.184 68 111.381C67.6439 111.578 67.3617 111.862 67.1534 112.233C66.9489 112.6 66.8466 113.038 66.8466 113.545ZM78.5384 110.273V111.153H74.3736V110.273H78.5384ZM75.6747 108.182H76.6918V116.722C76.6918 117.085 76.7543 117.371 76.8793 117.58C77.0043 117.784 77.1671 117.93 77.3679 118.017C77.5687 118.1 77.7827 118.142 78.0099 118.142C78.1425 118.142 78.2562 118.134 78.3509 118.119C78.4455 118.1 78.5289 118.081 78.6009 118.062L78.8168 118.977C78.7183 119.015 78.5971 119.049 78.4531 119.08C78.3092 119.114 78.1312 119.131 77.919 119.131C77.5478 119.131 77.1899 119.049 76.8452 118.886C76.5043 118.723 76.224 118.481 76.0043 118.159C75.7846 117.837 75.6747 117.438 75.6747 116.96V108.182ZM84.2699 119.182C83.4555 119.182 82.7509 118.992 82.1562 118.614C81.5616 118.231 81.1013 117.703 80.7756 117.028C80.4536 116.35 80.2926 115.57 80.2926 114.688C80.2926 113.809 80.4536 113.028 80.7756 112.347C81.1013 111.661 81.5502 111.125 82.1222 110.739C82.6979 110.348 83.3627 110.153 84.1165 110.153C84.59 110.153 85.0464 110.241 85.4858 110.415C85.9252 110.585 86.3191 110.848 86.6676 111.205C87.0199 111.557 87.2983 112.002 87.5028 112.54C87.7074 113.074 87.8097 113.706 87.8097 114.438V114.938H80.9915V114.045H86.7756C86.7756 113.485 86.6619 112.981 86.4347 112.534C86.2112 112.083 85.8987 111.727 85.4972 111.466C85.0994 111.205 84.6392 111.074 84.1165 111.074C83.5634 111.074 83.0767 111.222 82.6562 111.517C82.2358 111.812 81.9063 112.203 81.6676 112.688C81.4328 113.172 81.3134 113.703 81.3097 114.278V114.812C81.3097 115.506 81.429 116.112 81.6676 116.631C81.91 117.146 82.2528 117.545 82.696 117.83C83.1392 118.114 83.6638 118.256 84.2699 118.256C84.6828 118.256 85.0445 118.191 85.3551 118.062C85.6695 117.934 85.9328 117.761 86.1449 117.545C86.3608 117.326 86.5237 117.085 86.6335 116.824L87.5938 117.136C87.4612 117.504 87.2434 117.843 86.9403 118.153C86.6411 118.464 86.2661 118.714 85.8153 118.903C85.3684 119.089 84.8532 119.182 84.2699 119.182ZM90.0384 119V110.273H91.0213V111.614H91.0952C91.2694 111.174 91.5724 110.82 92.0043 110.551C92.4399 110.278 92.9323 110.142 93.4815 110.142C93.5649 110.142 93.6577 110.144 93.7599 110.148C93.8622 110.152 93.9474 110.155 94.0156 110.159V111.188C93.9702 111.18 93.8906 111.169 93.777 111.153C93.6634 111.138 93.5402 111.131 93.4077 111.131C92.9531 111.131 92.5478 111.227 92.1918 111.42C91.8395 111.61 91.5611 111.873 91.3565 112.21C91.152 112.547 91.0497 112.932 91.0497 113.364V119H90.0384ZM100.452 119V107.364H104.207C105.033 107.364 105.723 107.523 106.276 107.841C106.832 108.155 107.251 108.583 107.531 109.125C107.815 109.667 107.957 110.277 107.957 110.955C107.957 111.633 107.817 112.244 107.537 112.79C107.257 113.331 106.84 113.761 106.287 114.08C105.734 114.394 105.046 114.551 104.224 114.551H101.27V113.597H104.196C104.806 113.597 105.312 113.483 105.713 113.256C106.115 113.025 106.414 112.71 106.611 112.312C106.812 111.915 106.912 111.462 106.912 110.955C106.912 110.447 106.812 109.994 106.611 109.597C106.414 109.199 106.113 108.886 105.707 108.659C105.306 108.432 104.796 108.318 104.179 108.318H101.514V119H100.452ZM112.679 119.199C112.152 119.199 111.671 119.097 111.236 118.892C110.8 118.684 110.454 118.384 110.196 117.994C109.938 117.6 109.81 117.123 109.81 116.562C109.81 116.131 109.891 115.767 110.054 115.472C110.217 115.176 110.448 114.934 110.747 114.744C111.046 114.555 111.401 114.405 111.81 114.295C112.219 114.186 112.67 114.1 113.162 114.04C113.651 113.979 114.063 113.926 114.401 113.881C114.741 113.835 115.001 113.763 115.179 113.665C115.357 113.566 115.446 113.407 115.446 113.188V112.983C115.446 112.388 115.268 111.92 114.912 111.58C114.56 111.235 114.052 111.062 113.389 111.062C112.76 111.062 112.247 111.201 111.849 111.477C111.455 111.754 111.179 112.08 111.02 112.455L110.06 112.108C110.257 111.631 110.529 111.25 110.878 110.966C111.226 110.678 111.616 110.472 112.048 110.347C112.48 110.218 112.918 110.153 113.361 110.153C113.694 110.153 114.041 110.197 114.401 110.284C114.764 110.371 115.101 110.523 115.412 110.739C115.723 110.951 115.974 111.248 116.168 111.631C116.361 112.009 116.457 112.491 116.457 113.074V119H115.446V117.619H115.384C115.262 117.877 115.082 118.127 114.844 118.369C114.605 118.612 114.306 118.811 113.946 118.966C113.586 119.121 113.164 119.199 112.679 119.199ZM112.815 118.273C113.353 118.273 113.819 118.153 114.213 117.915C114.607 117.676 114.91 117.36 115.122 116.966C115.338 116.568 115.446 116.131 115.446 115.653V114.392C115.37 114.464 115.243 114.528 115.065 114.585C114.891 114.642 114.688 114.693 114.457 114.739C114.23 114.78 114.003 114.816 113.776 114.847C113.548 114.877 113.344 114.903 113.162 114.926C112.67 114.987 112.249 115.081 111.901 115.21C111.552 115.339 111.285 115.517 111.099 115.744C110.914 115.968 110.821 116.256 110.821 116.608C110.821 117.138 111.01 117.549 111.389 117.841C111.768 118.129 112.243 118.273 112.815 118.273ZM125.011 112.188L124.085 112.449C123.994 112.187 123.866 111.951 123.699 111.739C123.532 111.527 123.314 111.358 123.045 111.233C122.78 111.108 122.451 111.045 122.057 111.045C121.466 111.045 120.981 111.186 120.602 111.466C120.223 111.746 120.034 112.108 120.034 112.551C120.034 112.926 120.163 113.231 120.42 113.466C120.682 113.697 121.083 113.881 121.625 114.017L122.943 114.341C123.674 114.519 124.222 114.801 124.585 115.188C124.953 115.574 125.136 116.059 125.136 116.642C125.136 117.134 125 117.572 124.727 117.955C124.455 118.337 124.074 118.638 123.585 118.858C123.1 119.074 122.538 119.182 121.898 119.182C121.045 119.182 120.343 118.991 119.79 118.608C119.237 118.222 118.883 117.665 118.727 116.938L119.699 116.699C119.824 117.218 120.068 117.61 120.432 117.875C120.799 118.14 121.282 118.273 121.881 118.273C122.551 118.273 123.087 118.123 123.489 117.824C123.89 117.521 124.091 117.142 124.091 116.688C124.091 116.335 123.973 116.04 123.739 115.801C123.504 115.559 123.148 115.381 122.67 115.267L121.244 114.926C120.487 114.744 119.926 114.456 119.562 114.062C119.199 113.669 119.017 113.18 119.017 112.597C119.017 112.116 119.148 111.693 119.409 111.33C119.67 110.962 120.03 110.674 120.489 110.466C120.947 110.258 121.47 110.153 122.057 110.153C122.856 110.153 123.494 110.335 123.972 110.699C124.453 111.059 124.799 111.555 125.011 112.188ZM133.214 112.188L132.288 112.449C132.197 112.187 132.069 111.951 131.902 111.739C131.735 111.527 131.518 111.358 131.249 111.233C130.983 111.108 130.654 111.045 130.26 111.045C129.669 111.045 129.184 111.186 128.805 111.466C128.427 111.746 128.237 112.108 128.237 112.551C128.237 112.926 128.366 113.231 128.624 113.466C128.885 113.697 129.286 113.881 129.828 114.017L131.146 114.341C131.877 114.519 132.425 114.801 132.788 115.188C133.156 115.574 133.339 116.059 133.339 116.642C133.339 117.134 133.203 117.572 132.93 117.955C132.658 118.337 132.277 118.638 131.788 118.858C131.304 119.074 130.741 119.182 130.101 119.182C129.249 119.182 128.546 118.991 127.993 118.608C127.44 118.222 127.086 117.665 126.93 116.938L127.902 116.699C128.027 117.218 128.271 117.61 128.635 117.875C129.002 118.14 129.485 118.273 130.084 118.273C130.754 118.273 131.29 118.123 131.692 117.824C132.093 117.521 132.294 117.142 132.294 116.688C132.294 116.335 132.177 116.04 131.942 115.801C131.707 115.559 131.351 115.381 130.874 115.267L129.447 114.926C128.69 114.744 128.129 114.456 127.766 114.062C127.402 113.669 127.22 113.18 127.22 112.597C127.22 112.116 127.351 111.693 127.612 111.33C127.874 110.962 128.233 110.674 128.692 110.466C129.15 110.258 129.673 110.153 130.26 110.153C131.059 110.153 131.697 110.335 132.175 110.699C132.656 111.059 133.002 111.555 133.214 112.188ZM137.491 119L134.855 110.273H135.923L137.991 117.472H138.065L140.128 110.273H141.202L143.247 117.455H143.327L145.395 110.273H146.463L143.827 119H142.781L140.713 111.847H140.605L138.537 119H137.491ZM151.524 119.182C150.77 119.182 150.104 118.991 149.524 118.608C148.948 118.225 148.498 117.697 148.172 117.023C147.846 116.345 147.683 115.562 147.683 114.676C147.683 113.782 147.846 112.996 148.172 112.318C148.498 111.636 148.948 111.106 149.524 110.727C150.104 110.345 150.77 110.153 151.524 110.153C152.278 110.153 152.943 110.345 153.518 110.727C154.094 111.11 154.545 111.64 154.871 112.318C155.2 112.996 155.365 113.782 155.365 114.676C155.365 115.562 155.202 116.345 154.876 117.023C154.551 117.697 154.098 118.225 153.518 118.608C152.943 118.991 152.278 119.182 151.524 119.182ZM151.524 118.256C152.13 118.256 152.643 118.093 153.064 117.767C153.484 117.441 153.803 117.008 154.018 116.466C154.238 115.924 154.348 115.328 154.348 114.676C154.348 114.025 154.238 113.426 154.018 112.881C153.803 112.335 153.484 111.898 153.064 111.568C152.643 111.239 152.13 111.074 151.524 111.074C150.922 111.074 150.409 111.239 149.984 111.568C149.564 111.898 149.244 112.335 149.024 112.881C148.808 113.426 148.7 114.025 148.7 114.676C148.7 115.328 148.808 115.924 149.024 116.466C149.244 117.008 149.564 117.441 149.984 117.767C150.405 118.093 150.918 118.256 151.524 118.256ZM157.585 119V110.273H158.568V111.614H158.642C158.816 111.174 159.119 110.82 159.551 110.551C159.987 110.278 160.479 110.142 161.028 110.142C161.112 110.142 161.205 110.144 161.307 110.148C161.409 110.152 161.494 110.155 161.562 110.159V111.188C161.517 111.18 161.438 111.169 161.324 111.153C161.21 111.138 161.087 111.131 160.955 111.131C160.5 111.131 160.095 111.227 159.739 111.42C159.386 111.61 159.108 111.873 158.903 112.21C158.699 112.547 158.597 112.932 158.597 113.364V119H157.585ZM166.165 119.182C165.449 119.182 164.822 118.992 164.284 118.614C163.746 118.235 163.326 117.706 163.023 117.028C162.723 116.35 162.574 115.561 162.574 114.659C162.574 113.761 162.723 112.975 163.023 112.301C163.326 111.623 163.748 111.097 164.29 110.722C164.831 110.343 165.462 110.153 166.182 110.153C166.712 110.153 167.153 110.248 167.506 110.438C167.858 110.623 168.14 110.854 168.352 111.131C168.564 111.407 168.729 111.676 168.847 111.938H168.938V107.364H169.955V119H168.966V117.381H168.847C168.729 117.646 168.563 117.919 168.347 118.199C168.131 118.475 167.845 118.708 167.489 118.898C167.136 119.087 166.695 119.182 166.165 119.182ZM166.284 118.256C166.848 118.256 167.33 118.102 167.727 117.795C168.125 117.485 168.428 117.059 168.636 116.517C168.848 115.972 168.955 115.347 168.955 114.642C168.955 113.945 168.85 113.33 168.642 112.795C168.434 112.258 168.131 111.837 167.733 111.534C167.335 111.227 166.852 111.074 166.284 111.074C165.701 111.074 165.208 111.233 164.807 111.551C164.409 111.866 164.106 112.292 163.898 112.83C163.693 113.367 163.591 113.972 163.591 114.642C163.591 115.32 163.695 115.932 163.903 116.477C164.112 117.023 164.415 117.456 164.812 117.778C165.214 118.097 165.705 118.256 166.284 118.256Z" fill="black" fill-opacity="0.3"/>
<g filter="url(#filter1_d_26_9)">
<rect x="22" y="144" width="45" height="45" rx="10" fill="#ACAEFF"/>
</g>
<path d="M47.011 159.818V178H43.7173V163.023H43.6108L39.3583 165.74V162.721L43.8771 159.818H47.011Z" fill="white"/>
<rect x="200" y="150" width="83" height="35" rx="7" fill="#F7A400"/>
<path d="M218.472 164.562C218.419 164.066 218.195 163.68 217.801 163.403C217.411 163.127 216.903 162.989 216.278 162.989C215.839 162.989 215.462 163.055 215.148 163.188C214.833 163.32 214.593 163.5 214.426 163.727C214.259 163.955 214.174 164.214 214.17 164.506C214.17 164.748 214.225 164.958 214.335 165.136C214.449 165.314 214.602 165.466 214.795 165.591C214.989 165.712 215.203 165.814 215.438 165.898C215.672 165.981 215.909 166.051 216.148 166.108L217.239 166.381C217.678 166.483 218.1 166.621 218.506 166.795C218.915 166.97 219.28 167.189 219.602 167.455C219.928 167.72 220.186 168.04 220.375 168.415C220.564 168.79 220.659 169.229 220.659 169.733C220.659 170.415 220.485 171.015 220.136 171.534C219.788 172.049 219.284 172.453 218.625 172.744C217.97 173.032 217.176 173.176 216.244 173.176C215.339 173.176 214.553 173.036 213.886 172.756C213.223 172.475 212.705 172.066 212.33 171.528C211.958 170.991 211.758 170.335 211.727 169.562H213.801C213.831 169.968 213.956 170.305 214.176 170.574C214.396 170.843 214.682 171.044 215.034 171.176C215.39 171.309 215.788 171.375 216.227 171.375C216.686 171.375 217.087 171.307 217.432 171.17C217.78 171.03 218.053 170.837 218.25 170.591C218.447 170.341 218.547 170.049 218.551 169.716C218.547 169.413 218.458 169.163 218.284 168.966C218.11 168.765 217.866 168.598 217.551 168.466C217.241 168.33 216.877 168.208 216.46 168.102L215.136 167.761C214.178 167.515 213.42 167.142 212.864 166.642C212.311 166.138 212.034 165.47 212.034 164.636C212.034 163.951 212.22 163.35 212.591 162.835C212.966 162.32 213.475 161.92 214.119 161.636C214.763 161.348 215.492 161.205 216.307 161.205C217.133 161.205 217.856 161.348 218.477 161.636C219.102 161.92 219.593 162.316 219.949 162.824C220.305 163.328 220.489 163.907 220.5 164.562H218.472ZM222.447 173V164.273H224.504V173H222.447ZM223.482 163.034C223.156 163.034 222.875 162.926 222.641 162.71C222.406 162.491 222.288 162.227 222.288 161.92C222.288 161.61 222.406 161.347 222.641 161.131C222.875 160.911 223.156 160.801 223.482 160.801C223.811 160.801 224.091 160.911 224.322 161.131C224.557 161.347 224.675 161.61 224.675 161.92C224.675 162.227 224.557 162.491 224.322 162.71C224.091 162.926 223.811 163.034 223.482 163.034ZM230.415 176.455C229.676 176.455 229.042 176.354 228.511 176.153C227.981 175.956 227.555 175.691 227.233 175.358C226.911 175.025 226.688 174.655 226.562 174.25L228.415 173.801C228.498 173.972 228.619 174.14 228.778 174.307C228.938 174.477 229.152 174.617 229.42 174.727C229.693 174.841 230.036 174.898 230.449 174.898C231.032 174.898 231.515 174.756 231.898 174.472C232.28 174.191 232.472 173.729 232.472 173.085V171.432H232.369C232.263 171.644 232.108 171.862 231.903 172.085C231.703 172.309 231.436 172.496 231.102 172.648C230.773 172.799 230.358 172.875 229.858 172.875C229.188 172.875 228.58 172.718 228.034 172.403C227.492 172.085 227.061 171.612 226.739 170.983C226.42 170.35 226.261 169.559 226.261 168.608C226.261 167.65 226.42 166.841 226.739 166.182C227.061 165.519 227.494 165.017 228.04 164.676C228.585 164.331 229.193 164.159 229.864 164.159C230.375 164.159 230.795 164.246 231.125 164.42C231.458 164.591 231.723 164.797 231.92 165.04C232.117 165.278 232.267 165.504 232.369 165.716H232.483V164.273H234.511V173.142C234.511 173.888 234.333 174.506 233.977 174.994C233.621 175.483 233.134 175.848 232.517 176.091C231.9 176.333 231.199 176.455 230.415 176.455ZM230.432 171.261C230.867 171.261 231.239 171.155 231.545 170.943C231.852 170.731 232.085 170.426 232.244 170.028C232.403 169.631 232.483 169.153 232.483 168.597C232.483 168.047 232.403 167.566 232.244 167.153C232.089 166.741 231.858 166.42 231.551 166.193C231.248 165.962 230.875 165.847 230.432 165.847C229.973 165.847 229.591 165.966 229.284 166.205C228.977 166.443 228.746 166.771 228.591 167.188C228.436 167.6 228.358 168.07 228.358 168.597C228.358 169.131 228.436 169.598 228.591 170C228.75 170.398 228.983 170.708 229.29 170.932C229.6 171.152 229.981 171.261 230.432 171.261ZM238.676 167.886V173H236.619V164.273H238.585V165.756H238.688C238.888 165.267 239.208 164.879 239.648 164.591C240.091 164.303 240.638 164.159 241.29 164.159C241.892 164.159 242.417 164.288 242.864 164.545C243.314 164.803 243.663 165.176 243.909 165.665C244.159 166.153 244.282 166.746 244.278 167.443V173H242.222V167.761C242.222 167.178 242.07 166.722 241.767 166.392C241.468 166.062 241.053 165.898 240.523 165.898C240.163 165.898 239.843 165.977 239.562 166.136C239.286 166.292 239.068 166.517 238.909 166.812C238.754 167.108 238.676 167.466 238.676 167.886ZM257.764 161.364H259.872V168.966C259.872 169.799 259.675 170.532 259.281 171.165C258.891 171.797 258.342 172.292 257.634 172.648C256.925 173 256.098 173.176 255.151 173.176C254.2 173.176 253.37 173 252.662 172.648C251.954 172.292 251.404 171.797 251.014 171.165C250.624 170.532 250.429 169.799 250.429 168.966V161.364H252.537V168.79C252.537 169.275 252.643 169.706 252.855 170.085C253.071 170.464 253.374 170.761 253.764 170.977C254.154 171.189 254.616 171.295 255.151 171.295C255.685 171.295 256.147 171.189 256.537 170.977C256.931 170.761 257.234 170.464 257.446 170.085C257.658 169.706 257.764 169.275 257.764 168.79V161.364ZM262.072 176.273V164.273H264.095V165.716H264.214C264.321 165.504 264.47 165.278 264.663 165.04C264.857 164.797 265.118 164.591 265.447 164.42C265.777 164.246 266.197 164.159 266.709 164.159C267.383 164.159 267.991 164.331 268.533 164.676C269.078 165.017 269.51 165.523 269.828 166.193C270.15 166.86 270.311 167.678 270.311 168.648C270.311 169.606 270.154 170.42 269.839 171.091C269.525 171.761 269.097 172.273 268.555 172.625C268.014 172.977 267.4 173.153 266.714 173.153C266.214 173.153 265.8 173.07 265.47 172.903C265.141 172.737 264.875 172.536 264.675 172.301C264.478 172.062 264.324 171.837 264.214 171.625H264.129V176.273H262.072ZM264.089 168.636C264.089 169.201 264.169 169.695 264.328 170.119C264.491 170.544 264.724 170.875 265.027 171.114C265.334 171.348 265.705 171.466 266.141 171.466C266.595 171.466 266.976 171.345 267.283 171.102C267.589 170.856 267.821 170.521 267.976 170.097C268.135 169.669 268.214 169.182 268.214 168.636C268.214 168.095 268.137 167.614 267.982 167.193C267.826 166.773 267.595 166.443 267.288 166.205C266.982 165.966 266.599 165.847 266.141 165.847C265.701 165.847 265.328 165.962 265.021 166.193C264.714 166.424 264.482 166.748 264.322 167.165C264.167 167.581 264.089 168.072 264.089 168.636Z" fill="white"/>
<defs>
<filter id="filter0_d_26_9" x="0" y="0" width="296" height="202" filterUnits="userSpaceOnUse" color-interpolation-filters="sRGB">
<feFlood flood-opacity="0" result="BackgroundImageFix"/>
<feColorMatrix in="SourceAlpha" type="matrix" values="0 0 0 0 0 0 0 0 0 0 0 0 0 0 0 0 0 0 127 0" result="hardAlpha"/>
<feOffset dy="4"/>
<feGaussianBlur stdDeviation="15"/>
<feComposite in2="hardAlpha" operator="out"/>
<feColorMatrix type="matrix" values="0 0 0 0 0 0 0 0 0 0 0 0 0 0 0 0 0 0 0.06 0"/>
<feBlend mode="normal" in2="BackgroundImageFix" result="effect1_dropShadow_26_9"/>
<feBlend mode="normal" in="SourceGraphic" in2="effect1_dropShadow_26_9" result="shape"/>
</filter>
<filter id="filter1_d_26_9" x="16" y="133" width="51" height="56" filterUnits="userSpaceOnUse" color-interpolation-filters="sRGB">
<feFlood flood-opacity="0" result="BackgroundImageFix"/>
<feColorMatrix in="SourceAlpha" type="matrix" values="0 0 0 0 0 0 0 0 0 0 0 0 0 0 0 0 0 0 127 0" result="hardAlpha"/>
<feMorphology radius="5" operator="erode" in="SourceAlpha" result="effect1_dropShadow_26_9"/>
<feOffset dx="-10" dy="-15"/>
<feGaussianBlur stdDeviation="0.5"/>
<feComposite in2="hardAlpha" operator="out"/>
<feColorMatrix type="matrix" values="0 0 0 0 1 0 0 0 0 0.945098 0 0 0 0 0.831373 0 0 0 1 0"/>
<feBlend mode="normal" in2="BackgroundImageFix" result="effect1_dropShadow_26_9"/>
<feBlend mode="normal" in="SourceGraphic" in2="effect1_dropShadow_26_9" result="shape"/>
</filter>
</defs>
</svg>
