<svg width="18" height="14" viewBox="0 0 18 14" fill="none" xmlns="http://www.w3.org/2000/svg">
<path d="M16.2 7C16.2 7.46413 16.3896 7.90925 16.7272 8.23744C17.0648 8.56563 17.5226 8.75 18 8.75V12.25C18 12.7141 17.8104 13.1592 17.4728 13.4874C17.1352 13.8156 16.6774 14 16.2 14H1.8C1.32261 14 0.864773 13.8156 0.527208 13.4874C0.189642 13.1592 0 12.7141 0 12.25V8.75C0.47739 8.75 0.935227 8.56563 1.27279 8.23744C1.61036 7.90925 1.8 7.46413 1.8 7C1.8 6.53587 1.61036 6.09075 1.27279 5.76256C0.935227 5.43437 0.47739 5.25 0 5.25V1.75C0 1.28587 0.189642 0.840752 0.527208 0.512563C0.864773 0.184374 1.32261 0 1.8 0H16.2C16.6774 0 17.1352 0.184374 17.4728 0.512563C17.8104 0.840752 18 1.28587 18 1.75V5.25C17.5226 5.25 17.0648 5.43437 16.7272 5.76256C16.3896 6.09075 16.2 6.53587 16.2 7ZM13.05 10.7188C13.05 9.40625 10.35 8.75 9 8.75C7.65 8.75 4.95 9.40625 4.95 10.7188V11.375H13.05V10.7188ZM9 7.21875C9.53706 7.21875 10.0521 7.01133 10.4319 6.64212C10.8117 6.2729 11.025 5.77214 11.025 5.25C11.025 4.72786 10.8117 4.2271 10.4319 3.85788C10.0521 3.48867 9.53706 3.28125 9 3.28125C8.46294 3.28125 7.94787 3.48867 7.56811 3.85788C7.18835 4.2271 6.975 4.72786 6.975 5.25C6.975 5.77214 7.18835 6.2729 7.56811 6.64212C7.94787 7.01133 8.46294 7.21875 9 7.21875Z" fill="#A3A5AF"/>
</svg>
