<svg width="98" height="370" viewBox="0 0 98 370" fill="none" xmlns="http://www.w3.org/2000/svg">
<rect width="40.7519" height="33.469" rx="15" transform="matrix(0.357691 -0.93384 0.75435 0.656473 58.176 151.429)" fill="#FFACAC"/>
<path d="M53.5902 150.262C56.5679 153.682 59.0515 158.711 60.7813 164.823C62.5111 170.936 63.4237 177.906 63.4237 185.007C63.4237 192.108 62.5111 199.079 60.7813 205.191C59.0515 211.303 56.5679 216.332 53.5902 219.753L-72.895 365.105C-75.7842 368.42 -79.0369 370.106 -82.3327 369.995C-85.6284 369.884 -88.8535 367.981 -91.6901 364.472C-94.5268 360.964 -96.8771 355.972 -98.5096 349.988C-100.142 344.004 -101 337.234 -101 330.346V39.6419C-100.999 32.7521 -100.14 25.9816 -98.5057 19.9976C-96.8717 14.0136 -94.5196 9.02268 -91.6815 5.51684C-88.8433 2.01099 -85.6169 0.111208 -82.3204 0.00473577C-79.0239 -0.101737 -75.771 1.58878 -72.8823 4.90965L53.5902 150.262Z" fill="#03B962"/>
</svg>
