<svg width="182" height="421" viewBox="0 0 182 421" fill="none" xmlns="http://www.w3.org/2000/svg">
<rect width="48.0074" height="43.7508" rx="15" transform="matrix(0.431798 -0.901971 0.820659 0.571418 125.366 172.301)" fill="#FFACAC"/>
<path d="M118.844 170.974C123.079 174.866 126.611 180.588 129.071 187.542C131.531 194.497 132.829 202.428 132.829 210.508C132.829 218.588 131.531 226.52 129.071 233.474C126.611 240.429 123.079 246.151 118.844 250.043L-61.0316 415.43C-65.1404 419.203 -69.7661 421.12 -74.453 420.994C-79.1399 420.868 -83.7263 418.702 -87.7603 414.711C-91.7943 410.719 -95.1368 405.039 -97.4584 398.23C-99.78 391.421 -101.001 383.718 -101 375.88V45.1061C-100.999 37.2666 -99.7766 29.5628 -97.4528 22.754C-95.129 15.9452 -91.7842 10.2663 -87.748 6.27726C-83.7118 2.28818 -79.1236 0.126537 -74.4356 0.00538854C-69.7476 -0.11576 -65.1216 1.80777 -61.0136 5.58639L118.844 170.974Z" fill="#03B962"/>
</svg>
